<svg width="49" height="36" viewBox="0 0 49 36" fill="none" xmlns="http://www.w3.org/2000/svg">
<path d="M37.4856 10.3967H29.1084V8.31387H37.4856V10.3967ZM23.7063 18.4476C24.3326 19.3822 24.6458 20.517 24.6458 21.8522C24.6458 22.9203 24.437 23.8549 24.0194 24.656C23.6541 25.4036 23.106 26.0178 22.3753 26.4985C21.749 26.9791 20.9661 27.353 20.0266 27.62C19.2958 27.8336 18.4085 27.9404 17.3647 27.9404H7.42163V6.63159H17.1298C17.7561 6.63159 18.6434 6.76511 19.7917 7.03213C20.4702 7.19235 21.1487 7.51278 21.8273 7.99343C22.4014 8.36727 22.8712 8.90133 23.2365 9.5956C23.5497 10.2899 23.7063 11.1177 23.7063 12.079C23.7063 13.1471 23.4583 14.0416 22.9625 14.7626C22.4667 15.4836 21.7751 16.0577 20.8878 16.4849C22.1404 16.8588 23.0799 17.513 23.7063 18.4476ZM11.7277 15.2032H16.5034C17.3908 15.2032 18.0693 15.043 18.539 14.7225C19.061 14.3487 19.3219 13.7345 19.3219 12.88C19.3219 12.3994 19.2306 11.9989 19.0479 11.6784C18.8652 11.358 18.6173 11.1177 18.3042 10.9574C17.991 10.7438 17.6778 10.6103 17.3647 10.5569C16.8949 10.4501 16.5034 10.3967 16.1903 10.3967H11.7277V15.2032ZM20.1049 21.6119C20.1049 20.5437 19.8178 19.7694 19.2437 19.2887C18.6695 18.8615 17.8866 18.6478 16.8949 18.6478H11.7277V24.4958H16.7383C17.1037 24.4958 17.5473 24.4423 18.0693 24.3355C18.4868 24.2287 18.8391 24.0819 19.1262 23.8949C19.4133 23.708 19.6612 23.4009 19.87 22.9737C20.0266 22.6533 20.1049 22.1993 20.1049 21.6119ZM40.7738 21.3715H30.0479C30.0479 22.6533 30.3871 23.6413 31.0657 24.3355C31.692 24.923 32.5793 25.2167 33.7276 25.2167C34.5105 25.2167 35.2151 25.0031 35.8415 24.5759C36.4678 24.0952 36.8331 23.6146 36.9375 23.1339H40.5389C40.017 25.0031 39.1297 26.3382 37.877 27.1393C36.6244 27.9938 35.189 28.4211 33.571 28.4211C32.4227 28.4211 31.3788 28.2341 30.4393 27.8603C29.4998 27.4865 28.6908 26.9257 28.0123 26.178C27.3338 25.4838 26.8379 24.6293 26.5248 23.6146C26.1594 22.6533 25.9767 21.5852 25.9767 20.4102C25.9767 19.2353 26.1594 18.1538 26.5248 17.1658C26.8901 16.1778 27.4121 15.31 28.0906 14.5623C28.7691 13.868 29.552 13.3073 30.4393 12.88C31.3788 12.4528 32.4227 12.2392 33.571 12.2392C34.8237 12.2392 35.9197 12.4929 36.8592 13.0002C37.7987 13.5076 38.5817 14.1885 39.208 15.043C39.7821 15.8441 40.2258 16.8321 40.5389 18.007C40.7999 19.1285 40.8782 20.25 40.7738 21.3715ZM36.7027 18.6478C36.5983 17.6865 36.2851 16.8855 35.7632 16.2446C35.2934 15.7105 34.5366 15.4435 33.4927 15.4435C32.8142 15.4435 32.2661 15.5637 31.8486 15.804C31.431 16.0443 31.0787 16.3247 30.7916 16.6451C30.5046 16.9656 30.3349 17.3127 30.2828 17.6865C30.1262 18.0604 30.0479 18.3808 30.0479 18.6478H36.7027Z" fill="white"/>
</svg>
