<svg width="34" height="22" viewBox="0 0 34 22" fill="none" xmlns="http://www.w3.org/2000/svg">
<path d="M30.0639 3.76509H21.6868V1.68228H30.0639V3.76509ZM16.2846 11.816C16.911 12.7506 17.2241 13.8854 17.2241 15.2206C17.2241 16.2887 17.0154 17.2233 16.5978 18.0244C16.2324 18.7721 15.6844 19.3862 14.9537 19.8669C14.3273 20.3475 13.5444 20.7214 12.6049 20.9884C11.8742 21.202 10.9869 21.3088 9.94302 21.3088H0V0H9.70815C10.3345 0 11.2218 0.133514 12.3701 0.400542C13.0486 0.560758 13.7271 0.881192 14.4056 1.36184C14.9798 1.73568 15.4495 2.26974 15.8149 2.96401C16.1281 3.65828 16.2846 4.48607 16.2846 5.44737C16.2846 6.51548 16.0367 7.41002 15.5409 8.131C15.045 8.85197 14.3534 9.42608 13.4661 9.85333C14.7188 10.2272 15.6583 10.8814 16.2846 11.816ZM4.30603 8.57159H9.08182C9.96912 8.57159 10.6476 8.41138 11.1174 8.09094C11.6393 7.7171 11.9003 7.10294 11.9003 6.24845C11.9003 5.7678 11.809 5.36726 11.6263 5.04683C11.4436 4.72639 11.1957 4.48607 10.8825 4.32585C10.5694 4.11223 10.2562 3.97871 9.94302 3.92531C9.47327 3.8185 9.08182 3.76509 8.76865 3.76509H4.30603V8.57159ZM12.6832 14.9803C12.6832 13.9122 12.3962 13.1378 11.822 12.6571C11.2479 12.2299 10.465 12.0163 9.47327 12.0163H4.30603V17.8642H9.31669C9.68205 17.8642 10.1257 17.8108 10.6476 17.7039C11.0652 17.5971 11.4175 17.4503 11.7046 17.2633C11.9917 17.0764 12.2396 16.7693 12.4484 16.3421C12.6049 16.0217 12.6832 15.5677 12.6832 14.9803ZM33.3522 14.7399H22.6262C22.6262 16.0217 22.9655 17.0097 23.644 17.7039C24.2704 18.2914 25.1577 18.5851 26.306 18.5851C27.0889 18.5851 27.7935 18.3715 28.4198 17.9443C29.0462 17.4636 29.4115 16.983 29.5159 16.5023H33.1173C32.5954 18.3715 31.7081 19.7067 30.4554 20.5077C29.2027 21.3622 27.7674 21.7895 26.1494 21.7895C25.0011 21.7895 23.9572 21.6026 23.0177 21.2287C22.0782 20.8549 21.2692 20.2941 20.5907 19.5464C19.9121 18.8522 19.4163 17.9977 19.1031 16.983C18.7378 16.0217 18.5551 14.9536 18.5551 13.7786C18.5551 12.6037 18.7378 11.5223 19.1031 10.5342C19.4685 9.54625 19.9904 8.6784 20.669 7.93073C21.3475 7.23645 22.1304 6.6757 23.0177 6.24845C23.9572 5.82121 25.0011 5.60758 26.1494 5.60758C27.402 5.60758 28.4981 5.86126 29.4376 6.36861C30.3771 6.87597 31.16 7.55689 31.7864 8.41138C32.3605 9.21246 32.8041 10.2005 33.1173 11.3754C33.3783 12.4969 33.4566 13.6184 33.3522 14.7399ZM29.281 12.0163C29.1766 11.055 28.8635 10.2539 28.3415 9.613C27.8718 9.07895 27.115 8.81192 26.0711 8.81192C25.3925 8.81192 24.8445 8.93208 24.427 9.17241C24.0094 9.41273 23.6571 9.69311 23.37 10.0135C23.0829 10.334 22.9133 10.6811 22.8611 11.055C22.7045 11.4288 22.6262 11.7492 22.6262 12.0163H29.281Z" fill="#3267F6"/>
</svg>
