<svg width="31" height="30" viewBox="0 0 31 30" fill="none" xmlns="http://www.w3.org/2000/svg">
<path d="M3.875 15C3.875 9.4025 3.875 6.6025 5.61375 4.86375C7.3525 3.125 10.1512 3.125 15.75 3.125C21.3475 3.125 24.1475 3.125 25.8862 4.86375C27.625 6.6025 27.625 9.40125 27.625 15C27.625 20.5975 27.625 23.3975 25.8862 25.1362C24.1475 26.875 21.3488 26.875 15.75 26.875C10.1525 26.875 7.3525 26.875 5.61375 25.1362C3.875 23.3975 3.875 20.5988 3.875 15Z" stroke="white" stroke-width="1.5" stroke-linecap="round" stroke-linejoin="round"/>
<path d="M22.635 8.125H22.6225M21.375 15C21.375 16.4918 20.7824 17.9226 19.7275 18.9775C18.6726 20.0324 17.2418 20.625 15.75 20.625C14.2582 20.625 12.8274 20.0324 11.7725 18.9775C10.7176 17.9226 10.125 16.4918 10.125 15C10.125 13.5082 10.7176 12.0774 11.7725 11.0225C12.8274 9.96763 14.2582 9.375 15.75 9.375C17.2418 9.375 18.6726 9.96763 19.7275 11.0225C20.7824 12.0774 21.375 13.5082 21.375 15Z" stroke="white" stroke-width="1.5" stroke-linecap="round" stroke-linejoin="round"/>
</svg>
