<svg width="30" height="30" viewBox="0 0 30 30" fill="none" xmlns="http://www.w3.org/2000/svg">
<path d="M9.06725 23.1175L9.97225 23.6462C11.4984 24.5365 13.2342 25.0038 15.001 25C16.9788 25 18.9122 24.4135 20.5567 23.3147C22.2012 22.2159 23.4829 20.6541 24.2398 18.8268C24.9967 16.9996 25.1947 14.9889 24.8088 13.0491C24.423 11.1093 23.4706 9.32746 22.0721 7.92893C20.6735 6.53041 18.8917 5.578 16.9519 5.19215C15.0121 4.8063 13.0014 5.00433 11.1742 5.7612C9.3469 6.51808 7.78511 7.79981 6.6863 9.4443C5.58749 11.0888 5.001 13.0222 5.001 15C4.99735 16.7673 5.46509 18.5037 6.356 20.03L6.8835 20.935L6.06725 23.9363L9.06725 23.1175ZM2.506 27.5L4.196 21.29C3.08219 19.3812 2.49712 17.21 2.501 15C2.501 8.09625 8.09725 2.5 15.001 2.5C21.9047 2.5 27.501 8.09625 27.501 15C27.501 21.9037 21.9047 27.5 15.001 27.5C12.7919 27.5038 10.6217 26.9192 8.7135 25.8063L2.506 27.5ZM10.4897 9.135C10.6581 9.12333 10.826 9.12167 10.9935 9.13C11.061 9.135 11.1285 9.14167 11.196 9.15C11.3947 9.1725 11.6135 9.29375 11.6872 9.46125C12.0597 10.3071 12.4214 11.1571 12.7722 12.0113C12.8497 12.2013 12.8035 12.445 12.656 12.6825C12.581 12.8038 12.4635 12.9737 12.3272 13.1475C12.186 13.3287 11.8822 13.6613 11.8822 13.6613C11.8822 13.6613 11.7585 13.8088 11.806 13.9925C11.8235 14.0625 11.881 14.1638 11.9335 14.2488L12.0072 14.3675C12.3272 14.9013 12.7572 15.4425 13.2822 15.9525C13.4322 16.0975 13.5785 16.2463 13.736 16.385C14.321 16.9012 14.9835 17.3225 15.6985 17.635L15.7047 17.6375C15.811 17.6837 15.8647 17.7088 16.0197 17.775C16.0972 17.8075 16.1768 17.835 16.2585 17.8575C16.2885 17.8658 16.3189 17.8704 16.3497 17.8713C16.421 17.874 16.4919 17.8592 16.5562 17.8283C16.6204 17.7973 16.6762 17.7512 16.7185 17.6937C17.6222 16.5988 17.706 16.5275 17.7122 16.5275V16.53C17.775 16.4712 17.8497 16.4266 17.9312 16.3992C18.0128 16.3718 18.0992 16.3623 18.1847 16.3713C18.2614 16.3746 18.3352 16.3912 18.406 16.4213C19.0697 16.725 20.156 17.1987 20.156 17.1987L20.8835 17.525C21.006 17.5838 21.1172 17.7225 21.121 17.8562C21.126 17.94 21.1335 18.075 21.1047 18.3225C21.0647 18.6462 20.9672 19.035 20.8697 19.2388C20.8022 19.3773 20.7136 19.5047 20.6072 19.6162C20.481 19.7486 20.3429 19.8691 20.1947 19.9762C20.0914 20.0529 20.0393 20.0904 20.0385 20.0887C19.883 20.1874 19.7233 20.2792 19.5597 20.3638C19.2378 20.5343 18.8824 20.6324 18.5185 20.6512C18.2872 20.6637 18.056 20.6812 17.8235 20.6688C17.8135 20.6688 17.1135 20.56 17.1135 20.56C15.3363 20.0925 13.6928 19.2168 12.3135 18.0025C12.031 17.7538 11.7685 17.4862 11.501 17.22C10.391 16.1138 9.54975 14.92 9.0385 13.7925C8.77912 13.239 8.6386 12.6374 8.626 12.0263C8.6213 11.2672 8.86982 10.5282 9.33225 9.92625C9.4235 9.80875 9.50975 9.68625 9.6585 9.545C9.816 9.395 9.91725 9.315 10.026 9.26C10.171 9.18875 10.3285 9.1463 10.4897 9.135Z" fill="white"/>
</svg>
