<svg width="41" height="40" viewBox="0 0 41 40" fill="none" xmlns="http://www.w3.org/2000/svg">
<path d="M28 20V27.5M28 14.9825V15M36.75 10.9725V29.0275C36.7493 30.9428 35.9882 32.7795 34.6338 34.1338C33.2795 35.4882 31.4428 36.2493 29.5275 36.25H11.475C9.55924 36.25 7.72192 35.4891 6.36704 34.1347C5.01216 32.7803 4.25066 30.9433 4.25 29.0275V10.975C4.25 9.05924 5.01086 7.22192 6.36527 5.86704C7.71968 4.51216 9.55674 3.75066 11.4725 3.75H29.5275C31.4428 3.75066 33.2795 4.51182 34.6338 5.86615C35.9882 7.22049 36.7493 9.05718 36.75 10.9725Z" stroke="white" stroke-linecap="round" stroke-linejoin="round"/>
<path d="M11.75 27.5L13.86 21.875M13.86 21.875L17.375 12.5L20.89 21.875M13.86 21.875H20.89M23 27.5L20.89 21.875" stroke="white" stroke-linecap="round" stroke-linejoin="round"/>
</svg>
