<svg width="41" height="40" viewBox="0 0 41 40" fill="none" xmlns="http://www.w3.org/2000/svg">
<path d="M13 13.75H28M13 18.75H20.5M4.25 21.2667C4.25 23.9333 6.12167 26.2567 8.76167 26.645C10.6439 26.9228 12.5456 27.1333 14.4667 27.2767C15.05 27.32 15.5833 27.6267 15.9083 28.1117L20.5 35L25.0917 28.1133C25.2526 27.8735 25.466 27.6734 25.7159 27.5285C25.9657 27.3835 26.2452 27.2974 26.5333 27.2767C28.4419 27.1344 30.3448 26.9237 32.2383 26.645C34.8783 26.2567 36.75 23.935 36.75 21.265V11.235C36.75 8.565 34.8783 6.24334 32.2383 5.855C28.3516 5.28456 24.4284 4.9988 20.5 5C16.5133 5 12.5933 5.29167 8.76167 5.855C6.12167 6.24334 4.25 8.56667 4.25 11.235V21.2667Z" stroke="white" stroke-linecap="round" stroke-linejoin="round"/>
</svg>
