<svg width="40" height="40" viewBox="0 0 40 40" fill="none" xmlns="http://www.w3.org/2000/svg">
<path d="M11.875 17.5C14.9816 17.5 17.5 14.9816 17.5 11.875C17.5 8.7684 14.9816 6.25 11.875 6.25C8.7684 6.25 6.25 8.7684 6.25 11.875C6.25 14.9816 8.7684 17.5 11.875 17.5Z" stroke="white" stroke-linecap="round" stroke-linejoin="round"/>
<path d="M28.125 17.5C31.2316 17.5 33.75 14.9816 33.75 11.875C33.75 8.7684 31.2316 6.25 28.125 6.25C25.0184 6.25 22.5 8.7684 22.5 11.875C22.5 14.9816 25.0184 17.5 28.125 17.5Z" stroke="white" stroke-linecap="round" stroke-linejoin="round"/>
<path d="M11.875 33.75C14.9816 33.75 17.5 31.2316 17.5 28.125C17.5 25.0184 14.9816 22.5 11.875 22.5C8.7684 22.5 6.25 25.0184 6.25 28.125C6.25 31.2316 8.7684 33.75 11.875 33.75Z" stroke="white" stroke-linecap="round" stroke-linejoin="round"/>
<path d="M28.125 23.75V32.5" stroke="white" stroke-linecap="round" stroke-linejoin="round"/>
<path d="M32.5 28.125H23.75" stroke="white" stroke-linecap="round" stroke-linejoin="round"/>
</svg>
