<svg width="50" height="50" viewBox="0 0 50 50" fill="none" xmlns="http://www.w3.org/2000/svg">
<path d="M7.09785 29.3422V8.98334C7.09785 7.92689 7.51752 6.91371 8.26455 6.16669C9.01157 5.41967 10.0247 5 11.0812 5H38.1679C39.2243 5 40.2375 5.41967 40.9845 6.16669C41.7316 6.91371 42.1512 7.92689 42.1512 8.98334V29.3422M7.09785 29.3422H42.1512M7.09785 29.3422L4.15018 39.7666C3.98277 40.3589 3.95489 40.9819 4.06872 41.5868C4.18256 42.1916 4.43502 42.7619 4.80628 43.2528C5.17755 43.7437 5.65753 44.1419 6.20856 44.4161C6.75958 44.6904 7.36666 44.8332 7.98215 44.8334H41.2669C41.8824 44.8332 42.4895 44.6904 43.0405 44.4161C43.5915 44.1419 44.0715 43.7437 44.4428 43.2528C44.8141 42.7619 45.0665 42.1916 45.1804 41.5868C45.2942 40.9819 45.2663 40.3589 45.0989 39.7666L42.1512 29.3422" stroke="white" stroke-width="2"/>
<path d="M22.6313 38.8585H26.6146M28.6063 12.9668L32.5896 16.9501L28.6063 20.9335M20.6396 12.9668L16.6562 16.9501L20.6396 20.9335" stroke="#D5FF5F" stroke-width="2" stroke-linecap="round" stroke-linejoin="round"/>
</svg>
