<svg width="40" height="40" viewBox="0 0 40 40" fill="none" xmlns="http://www.w3.org/2000/svg">
<path d="M6.41088 22.9441V7.1C6.41088 6.27783 6.73749 5.48933 7.31885 4.90797C7.90021 4.32661 8.68871 4 9.51088 4H30.5909C31.4131 4 32.2016 4.32661 32.7829 4.90797C33.3643 5.48933 33.6909 6.27783 33.6909 7.1V22.9441M6.41088 22.9441H33.6909M6.41088 22.9441L4.11688 31.0568C3.98659 31.5177 3.96489 32.0026 4.05348 32.4733C4.14207 32.9441 4.33855 33.3879 4.62748 33.7699C4.91642 34.152 5.28996 34.4619 5.71879 34.6753C6.14762 34.8887 6.62008 34.9999 7.09908 35H33.0027C33.4817 34.9999 33.9541 34.8887 34.383 34.6753C34.8118 34.4619 35.1853 34.152 35.4743 33.7699C35.7632 33.3879 35.9597 32.9441 36.0483 32.4733C36.1369 32.0026 36.1152 31.5177 35.9849 31.0568L33.6909 22.9441" stroke="white"/>
<path d="M18.5006 30.3502H21.6006M23.1506 10.2002L26.2506 13.3002L23.1506 16.4002M16.9506 10.2002L13.8506 13.3002L16.9506 16.4002" stroke="white" stroke-linecap="round" stroke-linejoin="round"/>
</svg>
