<svg width="41" height="40" viewBox="0 0 41 40" fill="none" xmlns="http://www.w3.org/2000/svg">
<path d="M26.9617 18.7692C26.9617 20.4013 26.3134 21.9666 25.1593 23.1206C24.0053 24.2747 22.44 24.923 20.8079 24.923C19.1758 24.923 17.6105 24.2747 16.4565 23.1206C15.3024 21.9666 14.6541 20.4013 14.6541 18.7692V10.1538C14.6541 8.52171 15.3024 6.95646 16.4565 5.80239C17.6105 4.64832 19.1758 3.99997 20.8079 3.99997C22.44 3.99997 24.0053 4.64832 25.1593 5.80239C26.3134 6.95646 26.9617 8.52171 26.9617 10.1538V18.7692Z" stroke="white" stroke-linecap="round" stroke-linejoin="round"/>
<path d="M33.1154 20C33.1187 21.4555 32.8344 22.8974 32.2788 24.2428C31.7233 25.5881 30.9075 26.8105 29.8783 27.8398C28.8491 28.869 27.6267 29.6848 26.2813 30.2403C24.9359 30.7958 23.494 31.0801 22.0385 31.0769H19.577C18.1214 31.0801 16.6795 30.7958 15.3342 30.2403C13.9888 29.6848 12.7664 28.869 11.7371 27.8398C10.7079 26.8105 9.89212 25.5881 9.3366 24.2428C8.78108 22.8974 8.49678 21.4555 8.50003 20M20.8077 31.0769V36" stroke="white" stroke-linecap="round" stroke-linejoin="round"/>
</svg>
