<svg width="40" height="40" viewBox="0 0 40 40" fill="none" xmlns="http://www.w3.org/2000/svg">
<path d="M26 13V31.685C26 31.8839 26.0488 32.0798 26.142 32.2551C26.2352 32.4305 26.37 32.58 26.5344 32.6903L28.1832 33.7971C28.3432 33.9045 28.5265 33.9716 28.7176 33.9928C28.9088 34.0139 29.1022 33.9885 29.2815 33.9187C29.4609 33.8489 29.621 33.7367 29.7483 33.5916C29.8756 33.4464 29.9663 33.2726 30.013 33.0848L32 25.0823" stroke="white" stroke-linecap="round" stroke-linejoin="round"/>
<path d="M32.4 25.0587C33.8852 25.0587 35.3096 24.4204 36.3598 23.2842C37.41 22.1479 38 20.6069 38 19C38 17.3931 37.41 15.8521 36.3598 14.7158C35.3096 13.5796 33.8852 12.9413 32.4 12.9413H26.8C26.8 12.9413 19.1768 12.9413 11.8409 6.28461C11.6777 6.13604 11.4787 6.04097 11.2673 6.01057C11.0559 5.98016 10.8409 6.0157 10.6476 6.11299C10.4542 6.21029 10.2905 6.36529 10.1758 6.55978C10.0611 6.75427 10.0001 6.98016 10 7.21088V30.7891C10.0001 31.0198 10.0611 31.2457 10.1758 31.4402C10.2905 31.6347 10.4542 31.7897 10.6476 31.887C10.8409 31.9843 11.0559 32.0198 11.2673 31.9894C11.4787 31.959 11.6777 31.864 11.8409 31.7154C19.1768 25.0587 26.8 25.0587 26.8 25.0587H32.4Z" stroke="white" stroke-linecap="round" stroke-linejoin="round"/>
<path d="M5.28857 13.1001C4.51553 13.8731 3.90231 14.7909 3.48394 15.8009C3.06557 16.811 2.85024 17.8935 2.85024 18.9868C2.85024 20.08 3.06557 21.1626 3.48394 22.1726C3.90231 23.1826 4.51553 24.1004 5.28857 24.8734" stroke="white" stroke-linecap="round" stroke-linejoin="round"/>
<path d="M7.55908 16.3704C7.21551 16.7139 6.94296 17.1218 6.75702 17.5707C6.57108 18.0196 6.47538 18.5008 6.47538 18.9867C6.47538 19.4725 6.57108 19.9537 6.75702 20.4026C6.94296 20.8515 7.21551 21.2594 7.55908 21.603" stroke="white" stroke-linecap="round" stroke-linejoin="round"/>
</svg>
