<svg width="50" height="50" viewBox="0 0 50 50" fill="none" xmlns="http://www.w3.org/2000/svg">
<path d="M32.5 16.25V39.6063C32.5 39.8549 32.561 40.0997 32.6775 40.3189C32.794 40.5381 32.9625 40.725 33.1679 40.8629L35.229 42.2463C35.429 42.3806 35.6581 42.4645 35.897 42.4909C36.136 42.5174 36.3777 42.4857 36.6019 42.3984C36.8261 42.3111 37.0262 42.1709 37.1853 41.9895C37.3444 41.8081 37.4579 41.5908 37.5162 41.356L40 31.3529" stroke="white" stroke-width="2" stroke-linecap="round" stroke-linejoin="round"/>
<path d="M40.2 31.1899C42.0035 31.1899 43.7331 30.3797 45.0083 28.9376C46.2836 27.4955 47 25.5395 47 23.5C47 21.4605 46.2836 19.5045 45.0083 18.0624C43.7331 16.6203 42.0035 15.8101 40.2 15.8101H33.4C33.4 15.8101 24.1432 15.8101 15.2353 7.36124C15.0372 7.17267 14.7956 7.052 14.5389 7.01341C14.2822 6.97482 14.0211 7.01992 13.7863 7.14341C13.5515 7.2669 13.3528 7.46364 13.2135 7.71049C13.0742 7.95734 13.0001 8.24405 13 8.53688V38.4631C13.0001 38.756 13.0742 39.0427 13.2135 39.2895C13.3528 39.5364 13.5515 39.7331 13.7863 39.8566C14.0211 39.9801 14.2822 40.0252 14.5389 39.9866C14.7956 39.948 15.0372 39.8273 15.2353 39.6388C24.1432 31.1899 33.4 31.1899 33.4 31.1899H40.2Z" stroke="white" stroke-width="2" stroke-linecap="round" stroke-linejoin="round"/>
<path d="M6.60938 16.375C5.64307 17.3413 4.87655 18.4885 4.35358 19.751C3.83062 21.0136 3.56145 22.3668 3.56145 23.7333C3.56145 25.0999 3.83062 26.4531 4.35358 27.7156C4.87655 28.9782 5.64307 30.1254 6.60938 31.0917" stroke="#D5FF5F" stroke-width="2" stroke-linecap="round" stroke-linejoin="round"/>
<path d="M9.19922 20.4629C8.76975 20.8924 8.42907 21.4022 8.19664 21.9633C7.96422 22.5245 7.84459 23.1259 7.84459 23.7333C7.84459 24.3406 7.96422 24.942 8.19664 25.5032C8.42907 26.0643 8.76975 26.5742 9.19922 27.0036" stroke="#D5FF5F" stroke-width="2" stroke-linecap="round" stroke-linejoin="round"/>
</svg>
