<svg width="41" height="40" viewBox="0 0 41 40" fill="none" xmlns="http://www.w3.org/2000/svg">
<path d="M5.5 26.6667V13.3333C5.5 11.1232 6.37797 9.00358 7.94078 7.44078C9.50358 5.87797 11.6232 5 13.8333 5H27.1667C29.3768 5 31.4964 5.87797 33.0592 7.44078C34.622 9.00358 35.5 11.1232 35.5 13.3333V26.6667C35.5 28.8768 34.622 30.9964 33.0592 32.5592C31.4964 34.122 29.3768 35 27.1667 35H13.8333C11.6232 35 9.50358 34.122 7.94078 32.5592C6.37797 30.9964 5.5 28.8768 5.5 26.6667Z" stroke="white"/>
<path d="M28 24.1667C28 24.1667 25.5 27.5 20.5 27.5C15.5 27.5 13 24.1667 13 24.1667" stroke="white" stroke-linecap="round" stroke-linejoin="round"/>
<path d="M14.6666 16.6667C14.4456 16.6667 14.2336 16.5789 14.0773 16.4226C13.921 16.2663 13.8333 16.0543 13.8333 15.8333C13.8333 15.6123 13.921 15.4004 14.0773 15.2441C14.2336 15.0878 14.4456 15 14.6666 15C14.8876 15 15.0996 15.0878 15.2558 15.2441C15.4121 15.4004 15.4999 15.6123 15.4999 15.8333C15.4999 16.0543 15.4121 16.2663 15.2558 16.4226C15.0996 16.5789 14.8876 16.6667 14.6666 16.6667ZM26.3333 16.6667C26.1122 16.6667 25.9003 16.5789 25.744 16.4226C25.5877 16.2663 25.4999 16.0543 25.4999 15.8333C25.4999 15.6123 25.5877 15.4004 25.744 15.2441C25.9003 15.0878 26.1122 15 26.3333 15C26.5543 15 26.7662 15.0878 26.9225 15.2441C27.0788 15.4004 27.1666 15.6123 27.1666 15.8333C27.1666 16.0543 27.0788 16.2663 26.9225 16.4226C26.7662 16.5789 26.5543 16.6667 26.3333 16.6667Z" fill="white" stroke="white" stroke-linecap="round" stroke-linejoin="round"/>
</svg>
