<svg width="40" height="41" viewBox="0 0 40 41" fill="none" xmlns="http://www.w3.org/2000/svg">
<path d="M20 0.5C8.95437 0.5 0 9.45437 0 20.5C0 31.5462 8.95437 40.5 20 40.5C31.0462 40.5 40 31.5462 40 20.5C40 9.45437 31.0462 0.5 20 0.5ZM20 38.0394C10.3506 38.0394 2.5 30.1494 2.5 20.4999C2.5 10.8505 10.3506 2.99992 20 2.99992C29.6494 2.99992 37.5 10.8506 37.5 20.4999C37.5 30.1493 29.6494 38.0394 20 38.0394ZM27.9819 13.1819L16.2475 24.99L10.9631 19.7056C10.475 19.2175 9.68371 19.2175 9.19496 19.7056C8.70684 20.1938 8.70684 20.985 9.19496 21.4731L15.3818 27.6606C15.87 28.1481 16.6612 28.1481 17.15 27.6606C17.2062 27.6044 17.2544 27.5431 17.2981 27.4794L29.7506 14.95C30.2381 14.4618 30.2381 13.6706 29.7506 13.1819C29.2619 12.6938 28.4706 12.6938 27.9819 13.1819Z" fill="#D5FF5F"/>
</svg>
