<svg width="40" height="40" viewBox="0 0 40 40" fill="none" xmlns="http://www.w3.org/2000/svg">
<path d="M10.833 29.1666V24.1666M19.1663 29.1666V14.1666M27.4997 29.1666V22.5M35.833 9.16663C35.833 10.4927 35.3062 11.7645 34.3685 12.7022C33.4309 13.6398 32.1591 14.1666 30.833 14.1666C29.5069 14.1666 28.2352 13.6398 27.2975 12.7022C26.3598 11.7645 25.833 10.4927 25.833 9.16663C25.833 7.84054 26.3598 6.56877 27.2975 5.63109C28.2352 4.69341 29.5069 4.16663 30.833 4.16663C32.1591 4.16663 33.4309 4.69341 34.3685 5.63109C35.3062 6.56877 35.833 7.84054 35.833 9.16663Z" stroke="white" stroke-linecap="round" stroke-linejoin="round"/>
<path d="M35.8265 18.3333C35.8265 18.3333 35.8332 18.9 35.8332 20C35.8332 27.4633 35.8332 31.1966 33.5148 33.515C31.1965 35.8333 27.4648 35.8333 19.9998 35.8333C12.5365 35.8333 8.80317 35.8333 6.48484 33.515C4.1665 31.1966 4.1665 27.465 4.1665 20C4.1665 12.5366 4.1665 8.80496 6.48484 6.48496C8.80317 4.16663 12.5348 4.16663 19.9998 4.16663H21.6665" stroke="white" stroke-linecap="round" stroke-linejoin="round"/>
</svg>
