<svg width="50" height="50" viewBox="0 0 50 50" fill="none" xmlns="http://www.w3.org/2000/svg">
<path d="M13.5391 36.459V30.209M23.9557 36.459V17.709M34.3724 36.459V28.1257M44.7891 11.459C44.7891 13.1166 44.1306 14.7063 42.9585 15.8784C41.7864 17.0505 40.1967 17.709 38.5391 17.709C36.8815 17.709 35.2917 17.0505 34.1196 15.8784C32.9475 14.7063 32.2891 13.1166 32.2891 11.459C32.2891 9.80138 32.9475 8.21167 34.1196 7.03957C35.2917 5.86746 36.8815 5.20898 38.5391 5.20898C40.1967 5.20898 41.7864 5.86746 42.9585 7.03957C44.1306 8.21167 44.7891 9.80138 44.7891 11.459Z" stroke="#D5FF5F" stroke-width="2" stroke-linecap="round" stroke-linejoin="round"/>
<path d="M44.782 22.9173C44.782 22.9173 44.7904 23.6257 44.7904 25.0007C44.7904 34.3298 44.7904 38.9965 41.8924 41.8944C38.9945 44.7923 34.3299 44.7923 24.9987 44.7923C15.6695 44.7923 11.0029 44.7923 8.10495 41.8944C5.20703 38.9965 5.20703 34.3319 5.20703 25.0007C5.20703 15.6715 5.20703 11.0069 8.10495 8.1069C11.0029 5.20898 15.6674 5.20898 24.9987 5.20898H27.082" stroke="white" stroke-width="2" stroke-linecap="round" stroke-linejoin="round"/>
</svg>
