<svg width="31" height="30" viewBox="0 0 31 30" fill="none" xmlns="http://www.w3.org/2000/svg">
<path d="M9.55748 23.1175L10.4625 23.6462C11.9886 24.5365 13.7244 25.0038 15.4912 25C17.469 25 19.4024 24.4135 21.0469 23.3147C22.6914 22.2159 23.9732 20.6541 24.73 18.8268C25.4869 16.9996 25.6849 14.9889 25.2991 13.0491C24.9132 11.1093 23.9608 9.32746 22.5623 7.92893C21.1638 6.53041 19.3819 5.578 17.4421 5.19215C15.5023 4.8063 13.4917 5.00433 11.6644 5.7612C9.83713 6.51808 8.27535 7.79981 7.17653 9.4443C6.07772 11.0888 5.49123 13.0222 5.49123 15C5.48758 16.7673 5.95532 18.5037 6.84623 20.03L7.37373 20.935L6.55748 23.9363L9.55748 23.1175ZM2.99623 27.5L4.68623 21.29C3.57243 19.3812 2.98736 17.21 2.99123 15C2.99123 8.09625 8.58748 2.5 15.4912 2.5C22.395 2.5 27.9912 8.09625 27.9912 15C27.9912 21.9037 22.395 27.5 15.4912 27.5C13.2822 27.5038 11.112 26.9192 9.20373 25.8063L2.99623 27.5ZM10.98 9.135C11.1483 9.12333 11.3162 9.12167 11.4837 9.13C11.5512 9.135 11.6187 9.14167 11.6862 9.15C11.885 9.1725 12.1037 9.29375 12.1775 9.46125C12.55 10.3071 12.9116 11.1571 13.2625 12.0113C13.34 12.2013 13.2937 12.445 13.1462 12.6825C13.0712 12.8038 12.9537 12.9737 12.8175 13.1475C12.6762 13.3287 12.3725 13.6613 12.3725 13.6613C12.3725 13.6613 12.2487 13.8088 12.2962 13.9925C12.3137 14.0625 12.3712 14.1638 12.4237 14.2488L12.4975 14.3675C12.8175 14.9013 13.2475 15.4425 13.7725 15.9525C13.9225 16.0975 14.0687 16.2463 14.2262 16.385C14.8112 16.9012 15.4737 17.3225 16.1887 17.635L16.195 17.6375C16.3012 17.6837 16.355 17.7088 16.51 17.775C16.5875 17.8075 16.6671 17.835 16.7487 17.8575C16.7787 17.8658 16.8091 17.8704 16.84 17.8713C16.9113 17.874 16.9821 17.8592 17.0464 17.8283C17.1107 17.7973 17.1664 17.7512 17.2087 17.6937C18.1125 16.5988 18.1962 16.5275 18.2025 16.5275V16.53C18.2653 16.4712 18.3399 16.4266 18.4215 16.3992C18.503 16.3718 18.5894 16.3623 18.675 16.3713C18.7516 16.3746 18.8254 16.3912 18.8962 16.4213C19.56 16.725 20.6462 17.1987 20.6462 17.1987L21.3737 17.525C21.4962 17.5838 21.6075 17.7225 21.6112 17.8562C21.6162 17.94 21.6237 18.075 21.595 18.3225C21.555 18.6462 21.4575 19.035 21.36 19.2388C21.2924 19.3773 21.2039 19.5047 21.0975 19.6162C20.9712 19.7486 20.8332 19.8691 20.685 19.9762C20.5816 20.0529 20.5296 20.0904 20.5287 20.0887C20.3733 20.1874 20.2135 20.2792 20.05 20.3638C19.728 20.5343 19.3726 20.6324 19.0087 20.6512C18.7775 20.6637 18.5462 20.6812 18.3137 20.6688C18.3037 20.6688 17.6037 20.56 17.6037 20.56C15.8266 20.0925 14.183 19.2168 12.8037 18.0025C12.5212 17.7538 12.2587 17.4862 11.9912 17.22C10.8812 16.1138 10.04 14.92 9.52873 13.7925C9.26936 13.239 9.12884 12.6374 9.11623 12.0263C9.11153 11.2672 9.36005 10.5282 9.82248 9.92625C9.91373 9.80875 9.99998 9.68625 10.1487 9.545C10.3062 9.395 10.4075 9.315 10.5162 9.26C10.6613 9.18875 10.8188 9.1463 10.98 9.135Z" fill="white"/>
</svg>
