<svg width="1001" height="668" viewBox="0 0 1001 668" fill="none" xmlns="http://www.w3.org/2000/svg">
<mask id="mask0_1_2" style="mask-type:luminance" maskUnits="userSpaceOnUse" x="0" y="0" width="1001" height="668">
<path d="M0.5 0.5H1000.5V667.167H0.5V0.5Z" fill="white"/>
</mask>
<g mask="url(#mask0_1_2)">
<path d="M980.647 318.263C971.303 212.918 903.958 123.316 801.757 84.7417C774.887 74.5991 745.806 67.8071 716.029 67.7231C594.333 67.3778 440.705 134.164 364.194 143.4C287.682 152.634 209.173 74.3271 96.9926 169.547C-15.1874 264.767 -23.15 512.17 168.502 581.439C360.153 650.71 485.049 544.382 569.61 579.678C654.171 614.971 812.773 620.804 915.199 554.476C975.934 515.146 988.755 409.691 980.647 318.263Z" fill="#017CFF"/>
<mask id="mask1_1_2" style="mask-type:luminance" maskUnits="userSpaceOnUse" x="17" y="67" width="966" height="539">
<path d="M17.5505 67.7213H982.836V605.536H17.5505V67.7213Z" fill="white"/>
</mask>
<g mask="url(#mask1_1_2)">
<g opacity="0.800003">
<path d="M980.647 318.263C971.303 212.918 903.958 123.316 801.757 84.7417C774.887 74.5991 745.806 67.8071 716.029 67.7231C594.333 67.3778 440.705 134.164 364.194 143.4C287.682 152.634 209.173 74.3271 96.9926 169.547C-15.1874 264.767 -23.15 512.17 168.502 581.439C360.153 650.71 485.049 544.382 569.61 579.678C654.171 614.971 812.773 620.804 915.199 554.476C975.934 515.146 988.755 409.691 980.647 318.263Z" fill="white"/>
</g>
</g>
</g>
<path d="M891.866 606.953H930.377" stroke="#1C1A1A" stroke-width="1.33333" stroke-miterlimit="10"/>
<path d="M74.2639 606.953H883.967" stroke="#1C1A1A" stroke-width="1.33333" stroke-miterlimit="10"/>
<mask id="mask2_1_2" style="mask-type:luminance" maskUnits="userSpaceOnUse" x="0" y="0" width="1001" height="668">
<path d="M0.5 0.5H1000.5V667.167H0.5V0.5Z" fill="white"/>
</mask>
<g mask="url(#mask2_1_2)">
<path d="M82.633 540.797C84.885 541.78 90.3916 541.657 90.3956 541.657C90.453 541.655 89.2116 538.051 89.1076 537.832C87.8996 535.305 84.0783 531.131 80.969 531.551C78.729 531.853 77.4836 534.096 77.989 536.205C78.505 538.359 80.7156 539.959 82.633 540.797Z" fill="#1C1A1A"/>
<path d="M84.5334 556.748C86.8694 557.089 91.784 555.665 92.1747 555.549C92.9507 558.3 93.9707 561.06 95.156 563.797C95.832 565.362 96.5614 566.917 97.312 568.468C96.864 567.812 96.4587 567.226 96.3934 567.152C94.56 565.032 89.772 562.016 86.8854 563.242C84.804 564.126 84.1947 566.616 85.2387 568.517C86.3054 570.458 88.86 571.418 90.9307 571.72C93.032 572.026 97.2467 570.894 98.3574 570.581C98.652 571.173 98.94 571.768 99.236 572.357C100.66 575.192 102.092 578.013 103.412 580.825C103.879 581.814 104.3 582.806 104.727 583.798C104.328 583.216 103.987 582.726 103.927 582.658C102.093 580.54 97.3067 577.524 94.4187 578.75C92.3387 579.633 91.728 582.124 92.7734 584.025C93.84 585.965 96.3947 586.926 98.4654 587.226C100.471 587.52 104.369 586.51 105.692 586.144C106.097 587.172 106.507 588.201 106.853 589.217C107.075 589.914 107.336 590.57 107.519 591.285C107.715 591.988 107.909 592.684 108.101 593.373C108.423 594.713 108.763 596.094 109.043 597.41C109.245 598.324 109.423 599.198 109.601 600.078C109.149 599.088 108.224 597.165 108.128 597.013C106.637 594.641 102.363 590.936 99.3214 591.71C97.1307 592.268 96.1507 594.637 96.896 596.674C97.656 598.754 100.035 600.09 102.036 600.702C104.24 601.376 109.117 600.76 109.727 600.678C110.019 602.137 110.289 603.557 110.524 604.901C110.649 605.613 110.757 606.281 110.868 606.953H112.808C112.665 606.18 112.515 605.388 112.351 604.56C112.06 603.078 111.72 601.501 111.355 599.886C111.721 599.74 113.801 598.898 115.645 597.869C117.252 599.608 121.367 601.642 121.899 601.901C121.339 603.278 120.781 604.612 120.233 605.862C120.069 606.241 119.911 606.593 119.751 606.953H121.793C121.844 606.832 121.895 606.713 121.947 606.586C122.521 605.19 123.108 603.686 123.695 602.138C124.285 602.262 129.113 603.242 131.364 602.734C133.405 602.273 135.877 601.117 136.791 599.1C137.685 597.125 136.885 594.688 134.741 593.969C131.768 592.969 127.228 596.346 125.564 598.602C125.467 598.734 124.563 600.297 124.009 601.292C124.247 600.658 124.483 600.045 124.719 599.388C125.193 598.094 125.628 596.789 126.103 595.386C126.308 594.702 126.515 594.009 126.724 593.31C126.945 592.621 127.092 591.865 127.283 591.137C127.687 589.438 128.013 587.698 128.305 585.938C129.439 586.349 133.487 587.758 135.584 587.61C137.672 587.464 140.289 586.697 141.499 584.841C142.681 583.024 142.259 580.494 140.251 579.457C137.461 578.02 132.463 580.67 130.477 582.648C130.353 582.77 129.088 584.349 128.409 585.229C128.576 584.169 128.747 583.112 128.88 582.036C129.267 578.924 129.56 575.764 129.868 572.61C129.961 571.645 130.067 570.684 130.168 569.721C130.569 569.874 135.344 571.652 137.695 571.486C139.781 571.34 142.4 570.573 143.608 568.717C144.792 566.9 144.369 564.37 142.361 563.333C139.572 561.896 134.573 564.548 132.588 566.524C132.437 566.672 130.62 568.945 130.187 569.548C130.411 567.428 130.653 565.317 130.977 563.246C131.42 560.389 132.012 557.61 132.785 554.961C132.972 555.032 137.948 556.909 140.353 556.741C142.441 556.594 145.06 555.828 146.268 553.972C147.451 552.154 147.029 549.624 145.02 548.589C142.231 547.15 137.233 549.801 135.247 551.777C135.091 551.933 133.137 554.381 132.813 554.849C132.861 554.692 132.892 554.524 132.94 554.366C133.801 551.549 134.989 548.926 136.221 546.526C136.935 545.13 137.696 543.834 138.464 542.593C139.355 543.037 143.448 545.025 145.629 545.112C147.72 545.196 150.408 544.72 151.812 543.009C153.188 541.332 153.047 538.773 151.164 537.521C148.549 535.785 143.289 537.872 141.099 539.618C140.98 539.713 139.876 540.813 139.084 541.625C139.437 541.069 139.795 540.489 140.144 539.964C141.457 537.988 142.781 536.258 143.965 534.736C144.645 533.877 145.279 533.112 145.879 532.402C146.98 532.385 151.42 532.249 153.361 531.337C155.255 530.448 157.421 528.789 157.879 526.621C158.327 524.5 157.021 522.293 154.775 522.052C151.655 521.716 147.948 525.99 146.808 528.55C146.709 528.772 145.567 532.406 145.624 532.406C145.624 532.406 145.677 532.406 145.691 532.405C145.1 533.076 144.475 533.801 143.808 534.609C142.588 536.108 141.223 537.812 139.863 539.768C138.497 541.72 137.069 543.877 135.771 546.285C134.465 548.698 133.216 551.302 132.276 554.153C132.265 554.185 132.257 554.22 132.248 554.253C132.264 553.333 132.224 550.762 132.197 550.565C131.837 547.786 129.508 542.629 126.423 542.058C124.2 541.649 122.317 543.389 122.141 545.552C121.96 547.76 123.56 549.968 125.121 551.362C126.881 552.936 131.767 554.457 132.156 554.577C131.285 557.3 130.613 560.165 130.092 563.101C129.792 564.778 129.543 566.48 129.315 568.186C129.303 567.39 129.287 566.68 129.273 566.581C128.913 563.802 126.585 558.646 123.499 558.076C121.276 557.664 119.393 559.406 119.217 561.568C119.036 563.776 120.637 565.985 122.197 567.38C123.781 568.793 127.92 570.174 129.02 570.526C128.94 571.181 128.851 571.836 128.773 572.493C128.396 575.641 128.035 578.785 127.585 581.857C127.428 582.941 127.232 584.001 127.041 585.062C127.031 584.357 127.015 583.762 127.003 583.672C126.643 580.893 124.313 575.736 121.229 575.165C119.005 574.756 117.123 576.497 116.947 578.658C116.765 580.865 118.367 583.076 119.927 584.469C121.437 585.82 125.248 587.129 126.553 587.553C126.324 588.634 126.096 589.718 125.825 590.756C125.624 591.46 125.48 592.152 125.24 592.848C125.015 593.542 124.793 594.23 124.573 594.91C124.103 596.206 123.624 597.546 123.133 598.797C122.797 599.672 122.461 600.498 122.127 601.332C122.296 600.256 122.584 598.141 122.588 597.962C122.631 596.102 121.969 593.076 120.655 590.948C120.663 590.673 120.647 590.4 120.603 590.128C120.259 587.986 118.248 586.396 116.063 586.977C113.031 587.784 111.108 593.108 110.964 595.904C110.956 596.069 111.064 597.87 111.151 599.005C110.997 598.346 110.857 597.705 110.692 597.028C110.375 595.686 110.017 594.358 109.64 592.926C109.432 592.241 109.223 591.55 109.011 590.852C108.816 590.156 108.523 589.442 108.279 588.73C107.679 587.092 106.992 585.458 106.263 583.83C107.437 583.549 111.589 582.49 113.257 581.21C114.917 579.937 116.677 577.852 116.663 575.638C116.647 573.469 114.9 571.592 112.652 571.836C109.533 572.174 106.825 577.144 106.259 579.888C106.225 580.058 106.04 582.073 105.959 583.182C105.513 582.206 105.073 581.229 104.589 580.257C103.197 577.449 101.699 574.652 100.215 571.853C99.76 570.996 99.3174 570.137 98.872 569.277C99.2907 569.181 104.255 568.03 106.121 566.597C107.783 565.324 109.543 563.24 109.528 561.025C109.512 558.856 107.764 556.978 105.517 557.222C102.397 557.561 99.6907 562.53 99.124 565.276C99.0827 565.482 98.82 568.381 98.7894 569.121C97.808 567.229 96.8454 565.336 95.9747 563.43C94.7667 560.804 93.728 558.16 92.912 555.522C93.1067 555.478 98.292 554.298 100.205 552.83C101.867 551.557 103.627 549.473 103.611 547.258C103.596 545.09 101.848 543.214 99.6 543.457C96.4814 543.796 93.7747 548.765 93.208 551.509C93.164 551.724 92.884 554.844 92.8734 555.412C92.8254 555.256 92.7574 555.1 92.712 554.942C91.876 552.114 91.42 549.274 91.124 546.592C90.9494 545.033 90.8694 543.534 90.824 542.073C91.812 541.953 96.324 541.353 98.1907 540.221C99.9814 539.137 101.96 537.26 102.188 535.056C102.411 532.898 100.88 530.841 98.62 530.837C95.4814 530.832 92.2467 535.474 91.3814 538.138C91.3347 538.284 91.02 539.81 90.8067 540.925C90.7974 540.265 90.7734 539.585 90.776 538.953C90.7814 536.581 90.9307 534.408 91.0787 532.485C91.172 531.392 91.2787 530.406 91.388 529.485C92.296 528.86 95.924 526.298 97.04 524.468C98.1294 522.681 99.02 520.102 98.2067 518.042C97.4107 516.025 95.104 514.904 93.096 515.942C90.3094 517.384 89.576 522.994 90.036 525.757C90.0774 525.997 91.1294 529.66 91.1774 529.628C91.1774 529.628 91.2214 529.597 91.232 529.59C91.1094 530.474 90.988 531.425 90.8774 532.465C90.6854 534.389 90.488 536.564 90.432 538.945C90.3707 541.326 90.3694 543.914 90.616 546.64C90.8587 549.372 91.2534 552.233 92.0414 555.129C92.0494 555.162 92.0627 555.194 92.072 555.226C91.5787 554.452 90.1254 552.33 89.996 552.18C88.1627 550.06 83.376 547.045 80.488 548.272C78.4067 549.154 77.7974 551.645 78.8414 553.546C79.9094 555.488 82.4627 556.446 84.5334 556.748Z" fill="#1C1A1A"/>
<path d="M138.337 542.008C138.385 542.037 139.338 538.348 139.372 538.108C139.758 535.333 138.873 529.744 136.048 528.379C134.013 527.396 131.737 528.579 130.997 530.617C130.238 532.699 131.198 535.252 132.337 537.008C133.67 539.071 138.333 542.005 138.337 542.008Z" fill="#1C1A1A"/>
<path d="M814.758 550.802C816.669 551.637 821.342 551.532 821.346 551.532C821.395 551.53 820.341 548.472 820.253 548.286C819.229 546.141 815.985 542.598 813.345 542.954C811.445 543.212 810.387 545.114 810.815 546.904C811.254 548.733 813.129 550.09 814.758 550.802Z" fill="#1C1A1A"/>
<path d="M816.371 564.341C818.353 564.631 822.525 563.421 822.855 563.323C823.514 565.657 824.381 568.001 825.387 570.323C825.959 571.652 826.579 572.972 827.217 574.288C826.837 573.731 826.493 573.236 826.437 573.171C824.881 571.372 820.817 568.813 818.366 569.853C816.599 570.603 816.083 572.717 816.97 574.331C817.874 575.979 820.043 576.793 821.799 577.048C823.583 577.309 827.161 576.349 828.105 576.083C828.354 576.585 828.598 577.089 828.85 577.591C830.058 579.995 831.274 582.389 832.395 584.776C832.789 585.616 833.147 586.459 833.51 587.3C833.171 586.805 832.882 586.392 832.831 586.332C831.275 584.535 827.213 581.975 824.761 583.016C822.995 583.764 822.478 585.879 823.365 587.492C824.27 589.14 826.438 589.955 828.195 590.211C829.898 590.459 833.207 589.601 834.33 589.291C834.674 590.164 835.019 591.036 835.315 591.899C835.503 592.491 835.725 593.048 835.879 593.655C836.046 594.252 836.211 594.841 836.374 595.427C836.647 596.564 836.935 597.737 837.174 598.853C837.345 599.629 837.495 600.371 837.647 601.119C837.265 600.276 836.478 598.647 836.397 598.516C835.131 596.503 831.503 593.359 828.922 594.015C827.063 594.488 826.231 596.5 826.863 598.228C827.51 599.993 829.529 601.128 831.227 601.647C833.097 602.219 837.237 601.697 837.754 601.628C838.002 602.865 838.233 604.071 838.43 605.212C838.537 605.815 838.629 606.383 838.723 606.953H840.369C840.247 606.297 840.121 605.624 839.981 604.923C839.734 603.664 839.446 602.327 839.135 600.955C839.447 600.831 841.213 600.116 842.778 599.243C844.139 600.719 847.633 602.445 848.085 602.665C847.61 603.835 847.135 604.967 846.673 606.028C846.531 606.349 846.398 606.647 846.261 606.953H847.995C848.039 606.849 848.082 606.749 848.125 606.643C848.614 605.457 849.111 604.181 849.61 602.867C850.11 602.972 854.209 603.804 856.119 603.372C857.85 602.98 859.95 602 860.726 600.288C861.485 598.612 860.805 596.543 858.986 595.932C856.461 595.085 852.609 597.951 851.197 599.865C851.114 599.979 850.346 601.304 849.877 602.147C850.077 601.609 850.278 601.089 850.478 600.533C850.882 599.433 851.25 598.327 851.653 597.136C851.827 596.555 852.003 595.967 852.179 595.373C852.369 594.789 852.494 594.147 852.654 593.529C852.998 592.088 853.275 590.609 853.522 589.116C854.485 589.467 857.919 590.661 859.701 590.536C861.471 590.412 863.694 589.76 864.721 588.185C865.725 586.644 865.366 584.496 863.661 583.616C861.294 582.396 857.051 584.647 855.366 586.323C855.261 586.427 854.186 587.767 853.611 588.515C853.751 587.615 853.898 586.719 854.01 585.804C854.339 583.163 854.587 580.48 854.849 577.805C854.929 576.985 855.017 576.169 855.103 575.353C855.445 575.481 859.498 576.989 861.491 576.851C863.263 576.725 865.486 576.075 866.51 574.499C867.515 572.957 867.158 570.811 865.453 569.931C863.085 568.709 858.843 570.96 857.157 572.639C857.03 572.764 855.487 574.695 855.119 575.204C855.309 573.405 855.514 571.615 855.789 569.857C856.166 567.432 856.669 565.073 857.325 562.824C857.483 562.884 861.706 564.479 863.749 564.335C865.519 564.209 867.742 563.56 868.769 561.984C869.773 560.441 869.414 558.295 867.71 557.416C865.343 556.195 861.101 558.445 859.414 560.123C859.282 560.255 857.623 562.331 857.349 562.729C857.389 562.595 857.414 562.453 857.455 562.32C858.186 559.927 859.195 557.703 860.241 555.665C860.847 554.48 861.493 553.381 862.145 552.325C862.899 552.703 866.375 554.391 868.227 554.465C870.002 554.536 872.282 554.133 873.474 552.68C874.642 551.257 874.522 549.084 872.923 548.023C870.705 546.549 866.241 548.32 864.382 549.803C864.281 549.883 863.343 550.815 862.671 551.505C862.971 551.033 863.274 550.54 863.571 550.095C864.685 548.417 865.809 546.949 866.814 545.657C867.393 544.928 867.929 544.28 868.438 543.677C869.373 543.661 873.141 543.547 874.789 542.773C876.397 542.019 878.234 540.611 878.622 538.771C879.005 536.971 877.895 535.096 875.989 534.892C873.341 534.605 870.194 538.235 869.227 540.407C869.143 540.595 868.174 543.681 868.222 543.681C868.222 543.681 868.267 543.68 868.279 543.68C867.777 544.249 867.246 544.865 866.679 545.549C865.645 546.821 864.486 548.268 863.331 549.928C862.174 551.585 860.961 553.417 859.858 555.461C858.751 557.508 857.69 559.719 856.893 562.139C856.883 562.165 856.878 562.196 856.869 562.223C856.882 561.443 856.847 559.26 856.826 559.092C856.519 556.735 854.545 552.359 851.925 551.873C850.038 551.525 848.441 553.003 848.29 554.837C848.137 556.711 849.495 558.587 850.821 559.769C852.314 561.104 856.461 562.396 856.79 562.499C856.051 564.809 855.481 567.241 855.039 569.732C854.786 571.157 854.573 572.6 854.379 574.049C854.369 573.375 854.355 572.771 854.343 572.688C854.038 570.328 852.062 565.952 849.443 565.468C847.557 565.119 845.958 566.597 845.809 568.431C845.655 570.305 847.013 572.181 848.338 573.364C849.682 574.564 853.195 575.737 854.129 576.036C854.061 576.592 853.986 577.147 853.919 577.704C853.601 580.376 853.293 583.044 852.911 585.652C852.778 586.572 852.613 587.473 852.45 588.373C852.441 587.775 852.427 587.269 852.417 587.193C852.111 584.835 850.134 580.457 847.517 579.973C845.629 579.625 844.031 581.103 843.882 582.937C843.729 584.811 845.086 586.687 846.411 587.869C847.693 589.016 850.927 590.127 852.035 590.485C851.841 591.404 851.647 592.324 851.418 593.204C851.247 593.803 851.125 594.391 850.921 594.981C850.73 595.571 850.542 596.153 850.355 596.732C849.954 597.831 849.55 598.969 849.131 600.032C848.847 600.772 848.563 601.475 848.278 602.181C848.422 601.268 848.666 599.475 848.67 599.321C848.706 597.743 848.145 595.175 847.029 593.369C847.035 593.136 847.022 592.904 846.985 592.672C846.693 590.855 844.986 589.504 843.131 589.999C840.558 590.684 838.926 595.201 838.805 597.576C838.797 597.715 838.889 599.244 838.962 600.207C838.833 599.647 838.714 599.103 838.573 598.529C838.303 597.391 838.001 596.263 837.679 595.047C837.505 594.467 837.326 593.88 837.146 593.287C836.982 592.696 836.733 592.091 836.525 591.487C836.015 590.095 835.433 588.709 834.814 587.327C835.81 587.089 839.335 586.191 840.75 585.103C842.159 584.023 843.654 582.253 843.641 580.373C843.627 578.533 842.145 576.94 840.237 577.147C837.589 577.435 835.291 581.652 834.811 583.98C834.782 584.127 834.623 585.836 834.557 586.777C834.177 585.949 833.803 585.12 833.394 584.295C832.211 581.912 830.939 579.536 829.681 577.16C829.294 576.433 828.919 575.704 828.541 574.976C828.897 574.895 833.109 573.917 834.694 572.701C836.103 571.62 837.598 569.851 837.585 567.971C837.57 566.131 836.089 564.536 834.181 564.745C831.533 565.032 829.235 569.249 828.755 571.579C828.719 571.755 828.498 574.213 828.471 574.843C827.637 573.237 826.822 571.631 826.081 570.013C825.057 567.783 824.175 565.537 823.482 563.301C823.647 563.263 828.049 562.261 829.673 561.017C831.082 559.935 832.577 558.167 832.563 556.287C832.55 554.445 831.066 552.853 829.159 553.06C826.511 553.348 824.214 557.565 823.733 559.895C823.695 560.077 823.458 562.725 823.45 563.207C823.409 563.075 823.351 562.941 823.313 562.808C822.603 560.409 822.217 557.996 821.965 555.72C821.817 554.397 821.749 553.125 821.71 551.885C822.549 551.784 826.378 551.273 827.962 550.313C829.482 549.393 831.162 547.8 831.355 545.929C831.545 544.099 830.245 542.353 828.327 542.349C825.663 542.344 822.917 546.284 822.183 548.545C822.143 548.669 821.877 549.965 821.695 550.911C821.686 550.352 821.667 549.773 821.67 549.237C821.674 547.224 821.799 545.379 821.926 543.748C822.006 542.82 822.095 541.983 822.187 541.201C822.958 540.671 826.038 538.496 826.986 536.943C827.91 535.425 828.667 533.237 827.977 531.489C827.301 529.777 825.343 528.825 823.638 529.707C821.273 530.929 820.65 535.692 821.042 538.037C821.075 538.24 821.969 541.349 822.01 541.321C822.01 541.321 822.047 541.297 822.057 541.291C821.953 542.04 821.849 542.848 821.754 543.731C821.593 545.364 821.425 547.209 821.378 549.232C821.325 551.252 821.325 553.448 821.533 555.76C821.738 558.08 822.073 560.509 822.742 562.967C822.75 562.995 822.762 563.023 822.77 563.051C822.35 562.392 821.118 560.591 821.007 560.464C819.451 558.665 815.389 556.105 812.937 557.147C811.171 557.896 810.654 560.011 811.541 561.624C812.447 563.271 814.614 564.085 816.371 564.341Z" fill="#1C1A1A"/>
<path d="M862.037 551.83C862.078 551.856 862.888 548.723 862.916 548.52C863.242 546.166 862.493 541.42 860.094 540.263C858.368 539.428 856.436 540.432 855.806 542.162C855.164 543.928 855.978 546.095 856.945 547.586C858.077 549.338 862.034 551.828 862.037 551.83Z" fill="#1C1A1A"/>
<path d="M921.626 574.387C920.518 574.871 917.808 574.81 917.805 574.81C917.777 574.808 918.388 573.035 918.438 572.927C919.034 571.684 920.916 569.63 922.445 569.835C923.548 569.984 924.161 571.087 923.913 572.127C923.658 573.187 922.57 573.974 921.626 574.387Z" fill="#1C1A1A"/>
<path d="M920.692 582.24C919.542 582.406 917.122 581.706 916.93 581.649C916.548 583.002 916.046 584.362 915.462 585.709C915.129 586.48 914.772 587.245 914.4 588.008C914.621 587.685 914.821 587.397 914.853 587.361C915.756 586.317 918.112 584.832 919.534 585.436C920.558 585.872 920.858 587.098 920.344 588.033C919.82 588.989 918.561 589.461 917.542 589.609C916.508 589.761 914.433 589.204 913.886 589.048C913.741 589.34 913.6 589.633 913.453 589.924C912.753 591.318 912.049 592.708 911.397 594.092C911.168 594.578 910.961 595.066 910.75 595.554C910.946 595.268 911.114 595.028 911.145 594.993C912.048 593.95 914.404 592.466 915.825 593.07C916.849 593.504 917.149 594.73 916.634 595.666C916.109 596.621 914.852 597.094 913.833 597.242C912.845 597.386 910.926 596.89 910.276 596.71C910.076 597.216 909.876 597.722 909.705 598.221C909.596 598.565 909.466 598.889 909.377 599.241C909.28 599.586 909.184 599.929 909.09 600.268C908.932 600.928 908.764 601.608 908.625 602.256C908.526 602.705 908.44 603.136 908.35 603.569C908.573 603.081 909.029 602.136 909.077 602.06C909.81 600.892 911.916 599.068 913.412 599.449C914.49 599.724 914.973 600.89 914.606 601.893C914.23 602.917 913.06 603.574 912.074 603.877C910.99 604.208 908.589 603.905 908.289 603.865C908.145 604.582 908.012 605.281 907.897 605.942C907.834 606.293 907.781 606.622 907.728 606.953H906.773C906.842 606.573 906.917 606.182 906.997 605.774C907.141 605.045 907.309 604.269 907.489 603.474C907.308 603.402 906.282 602.989 905.376 602.481C904.585 603.337 902.56 604.338 902.297 604.466C902.573 605.145 902.848 605.801 903.117 606.417C903.198 606.602 903.276 606.776 903.356 606.953H902.349C902.325 606.893 902.3 606.834 902.274 606.772C901.992 606.086 901.702 605.345 901.413 604.584C901.122 604.644 898.746 605.126 897.638 604.877C896.633 604.65 895.417 604.081 894.966 603.088C894.526 602.114 894.921 600.916 895.976 600.561C897.44 600.069 899.673 601.732 900.493 602.842C900.541 602.908 900.986 603.676 901.258 604.166C901.142 603.854 901.025 603.552 900.909 603.229C900.676 602.593 900.461 601.949 900.228 601.26C900.128 600.922 900.025 600.581 899.922 600.237C899.813 599.898 899.741 599.526 899.648 599.168C899.448 598.33 899.286 597.474 899.144 596.608C898.586 596.812 896.594 597.504 895.561 597.432C894.533 597.36 893.245 596.982 892.65 596.068C892.066 595.173 892.276 593.929 893.264 593.418C894.637 592.712 897.097 594.016 898.074 594.989C898.136 595.048 898.76 595.825 899.093 596.26C899.01 595.737 898.926 595.217 898.861 594.686C898.67 593.156 898.526 591.6 898.374 590.048C898.329 589.573 898.276 589.1 898.226 588.625C898.029 588.701 895.678 589.576 894.522 589.493C893.496 589.422 892.206 589.045 891.61 588.13C891.028 587.236 891.236 585.99 892.225 585.481C893.598 584.773 896.058 586.078 897.036 587.05C897.109 587.124 898.004 588.244 898.218 588.54C898.109 587.496 897.989 586.457 897.829 585.437C897.61 584.032 897.32 582.664 896.94 581.36C896.846 581.394 894.397 582.32 893.213 582.236C892.185 582.162 890.896 581.785 890.301 580.873C889.72 579.978 889.926 578.732 890.916 578.222C892.288 577.514 894.749 578.82 895.726 579.792C895.804 579.869 896.766 581.073 896.925 581.305C896.901 581.226 896.886 581.144 896.862 581.066C896.44 579.68 895.854 578.388 895.246 577.208C894.896 576.52 894.521 575.882 894.144 575.27C893.705 575.49 891.689 576.468 890.616 576.51C889.586 576.552 888.264 576.32 887.572 575.476C886.894 574.652 886.965 573.39 887.89 572.774C889.178 571.921 891.768 572.946 892.845 573.808C892.905 573.853 893.448 574.394 893.838 574.794C893.664 574.521 893.489 574.236 893.316 573.977C892.669 573.004 892.018 572.153 891.436 571.404C891.1 570.981 890.788 570.604 890.494 570.256C889.95 570.245 887.766 570.178 886.81 569.73C885.878 569.292 884.812 568.476 884.586 567.409C884.365 566.365 885.008 565.277 886.114 565.158C887.65 564.993 889.474 567.098 890.036 568.358C890.084 568.468 890.648 570.257 890.618 570.257H890.586C890.877 570.586 891.184 570.942 891.512 571.34C892.113 572.078 892.785 572.918 893.454 573.88C894.126 574.841 894.83 575.902 895.469 577.089C896.11 578.276 896.726 579.558 897.189 580.961C897.194 580.978 897.198 580.994 897.204 581.01C897.196 580.558 897.216 579.292 897.228 579.196C897.405 577.828 898.552 575.289 900.07 575.008C901.164 574.806 902.092 575.662 902.178 576.726C902.268 577.814 901.48 578.901 900.712 579.588C899.845 580.362 897.441 581.11 897.248 581.17C897.677 582.51 898.008 583.921 898.265 585.366C898.412 586.193 898.534 587.029 898.648 587.87C898.653 587.478 898.661 587.129 898.666 587.08C898.844 585.712 899.992 583.173 901.509 582.892C902.605 582.69 903.53 583.548 903.617 584.612C903.708 585.698 902.918 586.785 902.152 587.472C901.372 588.168 899.333 588.849 898.792 589.021C898.832 589.344 898.876 589.666 898.913 589.989C899.1 591.54 899.277 593.088 899.497 594.6C899.576 595.133 899.672 595.656 899.766 596.177C899.772 595.829 899.778 595.537 899.785 595.492C899.962 594.125 901.108 591.586 902.626 591.306C903.721 591.102 904.649 591.961 904.736 593.025C904.825 594.11 904.037 595.2 903.269 595.885C902.525 596.549 900.649 597.194 900.006 597.402C900.118 597.934 900.23 598.469 900.365 598.98C900.464 599.326 900.534 599.666 900.653 600.01C900.764 600.352 900.873 600.69 900.981 601.025C901.213 601.662 901.448 602.324 901.69 602.938C901.856 603.369 902.021 603.776 902.185 604.186C902.102 603.656 901.96 602.616 901.958 602.528C901.938 601.61 902.262 600.121 902.91 599.074C902.906 598.938 902.914 598.805 902.936 598.67C903.105 597.616 904.096 596.833 905.17 597.12C906.664 597.517 907.609 600.137 907.68 601.514C907.684 601.596 907.632 602.482 907.589 603.042C907.664 602.716 907.732 602.401 907.814 602.068C907.97 601.408 908.146 600.753 908.332 600.048C908.434 599.712 908.538 599.372 908.641 599.028C908.737 598.684 908.882 598.333 909.001 597.984C909.297 597.176 909.636 596.373 909.996 595.57C909.417 595.433 907.373 594.912 906.552 594.281C905.734 593.654 904.868 592.628 904.876 591.538C904.884 590.47 905.742 589.545 906.849 589.666C908.385 589.833 909.718 592.278 909.997 593.63C910.013 593.713 910.105 594.706 910.144 595.252C910.364 594.77 910.58 594.29 910.818 593.813C911.504 592.43 912.241 591.052 912.972 589.674C913.196 589.253 913.413 588.829 913.633 588.408C913.428 588.36 910.984 587.793 910.064 587.088C909.246 586.461 908.38 585.434 908.388 584.344C908.394 583.276 909.256 582.353 910.362 582.473C911.897 582.64 913.229 585.086 913.508 586.436C913.529 586.538 913.658 587.965 913.673 588.329C914.157 587.398 914.63 586.466 915.06 585.529C915.654 584.236 916.164 582.934 916.566 581.636C916.47 581.613 913.918 581.034 912.977 580.312C912.16 579.684 911.292 578.657 911.3 577.568C911.308 576.5 912.168 575.576 913.274 575.697C914.81 575.864 916.142 578.31 916.421 579.66C916.442 579.766 916.58 581.302 916.585 581.581C916.609 581.504 916.642 581.428 916.665 581.35C917.077 579.958 917.301 578.56 917.446 577.238C917.533 576.472 917.572 575.734 917.594 575.016C917.108 574.956 914.886 574.66 913.968 574.104C913.086 573.57 912.112 572.646 912 571.561C911.89 570.498 912.645 569.486 913.757 569.485C915.301 569.482 916.894 571.768 917.321 573.078C917.342 573.15 917.497 573.901 917.604 574.449C917.608 574.125 917.618 573.79 917.617 573.48C917.616 572.312 917.542 571.242 917.469 570.296C917.424 569.757 917.372 569.272 917.317 568.818C916.87 568.51 915.084 567.25 914.534 566.349C913.998 565.469 913.56 564.2 913.96 563.185C914.352 562.193 915.488 561.641 916.476 562.152C917.848 562.861 918.209 565.624 917.982 566.984C917.962 567.101 917.444 568.904 917.421 568.888C917.421 568.888 917.398 568.874 917.393 568.87C917.454 569.305 917.513 569.773 917.568 570.285C917.664 571.232 917.761 572.304 917.788 573.476C917.818 574.648 917.818 575.921 917.697 577.264C917.577 578.608 917.384 580.017 916.996 581.441C916.992 581.458 916.985 581.474 916.98 581.49C917.222 581.108 917.938 580.064 918.001 579.99C918.905 578.946 921.261 577.462 922.682 578.066C923.708 578.501 924.006 579.726 923.493 580.662C922.968 581.618 921.71 582.092 920.692 582.24Z" fill="#1C1A1A"/>
<path d="M894.206 574.983C894.182 574.998 893.713 573.181 893.695 573.063C893.507 571.697 893.942 568.946 895.333 568.274C896.334 567.79 897.455 568.373 897.819 569.375C898.191 570.399 897.721 571.658 897.159 572.522C896.503 573.538 894.206 574.983 894.206 574.983Z" fill="#1C1A1A"/>
</g>
<mask id="mask3_1_2" style="mask-type:luminance" maskUnits="userSpaceOnUse" x="0" y="0" width="1001" height="668">
<path d="M0.5 0.5H1000.5V667.167H0.5V0.5Z" fill="white"/>
</mask>
<g mask="url(#mask3_1_2)">
<path d="M125.46 170.838C121.048 173.418 119.384 178.411 118.585 180.807C117.481 184.117 113.62 178.599 105.895 181.359C98.1692 184.117 97.0652 190.187 95.4105 191.842C93.7545 193.498 82.7185 197.913 82.7185 197.913H193.456" stroke="#1C1A1A" stroke-width="1.33333" stroke-miterlimit="10" stroke-linecap="round" stroke-linejoin="round"/>
<path d="M198.973 197.912H212.389C212.389 197.912 214.596 185.773 209.63 179.703C204.665 173.633 193.629 182.463 190.318 173.633C190.318 173.633 180.386 159.287 168.246 158.184C156.108 157.079 151.141 166.46 147.278 171.427C143.416 176.392 141.209 169.219 131.829 169.219" stroke="#1C1A1A" stroke-width="1.33333" stroke-miterlimit="10" stroke-linecap="round" stroke-linejoin="round"/>
<path d="M145.976 188.057C143.727 190.152 143.416 192.947 143.416 192.947" stroke="#1C1A1A" stroke-width="1.33333" stroke-miterlimit="10" stroke-linecap="round" stroke-linejoin="round"/>
<path d="M188.11 178.6C188.11 178.6 180.386 170.874 171.557 171.426C162.728 171.978 166.04 182.462 162.177 185.773C158.314 189.084 153.9 184.669 148.934 186.324" stroke="#1C1A1A" stroke-width="1.33333" stroke-miterlimit="10" stroke-linecap="round" stroke-linejoin="round"/>
<path d="M425.318 48.4883C421.679 50.615 420.306 54.735 419.647 56.7096C418.736 59.4403 415.551 54.8896 409.18 57.1643C402.808 59.4403 401.899 64.447 400.534 65.8123C399.168 67.1776 390.067 70.8176 390.067 70.8176H481.398" stroke="#1C1A1A" stroke-width="1.33333" stroke-miterlimit="10" stroke-linecap="round" stroke-linejoin="round"/>
<path d="M485.948 70.8179H497.013C497.013 70.8179 498.835 60.8059 494.737 55.7992C490.643 50.7939 481.54 58.0752 478.809 50.7939C478.809 50.7939 470.617 38.9605 460.607 38.0512C450.593 37.1405 446.499 44.8779 443.312 48.9739C440.127 53.0685 438.307 47.1525 430.569 47.1525" stroke="#1C1A1A" stroke-width="1.33333" stroke-miterlimit="10" stroke-linecap="round" stroke-linejoin="round"/>
<path d="M442.239 62.6902C440.383 64.4182 440.127 66.7222 440.127 66.7222" stroke="#1C1A1A" stroke-width="1.33333" stroke-miterlimit="10" stroke-linecap="round" stroke-linejoin="round"/>
<path d="M476.99 54.8895C476.99 54.8895 470.618 48.5188 463.336 48.9735C456.055 49.4282 458.786 58.0748 455.6 60.8055C452.414 63.5362 448.774 59.8948 444.678 61.2615" stroke="#1C1A1A" stroke-width="1.33333" stroke-miterlimit="10" stroke-linecap="round" stroke-linejoin="round"/>
<path d="M832.089 172.547C828.45 174.675 827.077 178.794 826.418 180.77C825.507 183.499 822.323 178.948 815.951 181.224C809.579 183.499 808.67 188.506 807.305 189.871C805.939 191.236 796.838 194.878 796.838 194.878H888.169" stroke="#1C1A1A" stroke-width="1.33333" stroke-miterlimit="10" stroke-linecap="round" stroke-linejoin="round"/>
<path d="M892.72 194.877H903.786C903.786 194.877 905.606 184.865 901.51 179.858C897.414 174.853 888.311 182.134 885.582 174.853C885.582 174.853 877.39 163.02 867.378 162.11C857.364 161.2 853.27 168.937 850.083 173.033C846.899 177.128 845.078 171.212 837.342 171.212" stroke="#1C1A1A" stroke-width="1.33333" stroke-miterlimit="10" stroke-linecap="round" stroke-linejoin="round"/>
<path d="M849.01 186.749C847.153 188.477 846.898 190.781 846.898 190.781" stroke="#1C1A1A" stroke-width="1.33333" stroke-miterlimit="10" stroke-linecap="round" stroke-linejoin="round"/>
<path d="M883.76 178.949C883.76 178.949 877.39 172.578 870.108 173.033C862.826 173.487 865.558 182.134 862.371 184.865C859.184 187.595 855.544 183.955 851.45 185.321" stroke="#1C1A1A" stroke-width="1.33333" stroke-miterlimit="10" stroke-linecap="round" stroke-linejoin="round"/>
</g>
<path d="M710.009 270.121L750.597 252.239L696.403 129.221L710.009 270.121ZM798.964 362.026L769.188 294.438L688.664 329.911L669.601 286.641L659.896 77.4072L718.817 51.4499L798.063 231.329L823.593 220.081L842.185 262.279L816.652 273.527L846.428 341.117L798.964 362.026Z" fill="#1C1A1A"/>
<path d="M710.009 270.121L750.597 252.239L696.403 129.221L710.009 270.121ZM798.964 362.026L769.188 294.438L688.664 329.911L669.601 286.641L659.896 77.4072L718.817 51.4499L798.063 231.329L823.593 220.081L842.185 262.279L816.652 273.527L846.428 341.117L798.964 362.026Z" stroke="#1C1A1A" stroke-width="1.33333" stroke-miterlimit="10"/>
<path d="M703.543 273.059L744.131 255.178L689.936 132.159L703.543 273.059ZM792.498 364.965L762.722 297.377L682.199 332.85L663.135 289.579L653.431 80.3459L712.351 54.3886L791.596 234.267L817.128 223.019L835.719 265.218L810.186 276.466L839.962 344.055L792.498 364.965Z" fill="#017CFF"/>
<path d="M703.543 273.059L744.131 255.178L689.936 132.159L703.543 273.059ZM792.498 364.965L762.722 297.377L682.199 332.85L663.135 289.579L653.431 80.3459L712.351 54.3886L791.596 234.267L817.128 223.019L835.719 265.218L810.186 276.466L839.962 344.055L792.498 364.965Z" stroke="#1C1A1A" stroke-width="1.33333" stroke-miterlimit="10"/>
<mask id="mask4_1_2" style="mask-type:luminance" maskUnits="userSpaceOnUse" x="0" y="0" width="1001" height="668">
<path d="M0.5 0.5H1000.5V667.167H0.5V0.5Z" fill="white"/>
</mask>
<g mask="url(#mask4_1_2)">
<path d="M536.435 368.63C542.767 367.464 546.939 364.448 548.951 359.57C550.963 354.698 551.882 349.164 551.712 342.969C551.539 336.78 550.984 331.121 550.04 325.992L524.768 188.793C523.731 183.16 522.232 177.34 520.28 171.341C518.323 165.344 515.531 160.364 511.89 156.397C508.251 152.436 503.143 151.053 496.58 152.262C490.012 153.473 485.676 156.593 483.572 161.613C481.463 166.638 480.567 172.298 480.88 178.598C481.19 184.9 481.87 190.87 482.907 196.504L508.179 333.702C509.123 338.83 510.618 344.318 512.664 350.161C514.71 356.012 517.659 360.832 521.512 364.625C525.36 368.422 530.334 369.754 536.435 368.63ZM546.062 420.897C528.94 424.05 514.046 422.821 501.374 417.208C488.702 411.596 478.312 402.582 470.206 390.166C462.099 377.753 456.419 362.708 453.162 345.029L427.466 205.524C424.115 187.334 423.871 170.889 426.743 156.186C429.611 141.49 435.967 129.256 445.808 119.496C455.648 109.736 469.363 103.237 486.952 99.9971C504.306 96.7997 519.26 98.0197 531.818 103.653C544.368 109.289 554.607 118.465 562.528 131.174C570.446 143.89 576.082 159.342 579.432 177.532L605.13 317.037C608.386 334.714 608.439 350.798 605.288 365.285C602.136 379.773 595.64 391.897 585.799 401.657C575.959 411.416 562.711 417.829 546.062 420.897Z" fill="#1C1A1A"/>
<path d="M536.435 368.63C542.767 367.464 546.939 364.448 548.951 359.57C550.963 354.698 551.882 349.164 551.712 342.969C551.539 336.78 550.984 331.121 550.04 325.992L524.768 188.793C523.731 183.16 522.232 177.34 520.28 171.341C518.323 165.344 515.531 160.364 511.89 156.397C508.251 152.436 503.143 151.053 496.58 152.262C490.012 153.473 485.676 156.593 483.572 161.613C481.463 166.638 480.567 172.298 480.88 178.598C481.19 184.9 481.87 190.87 482.907 196.504L508.179 333.702C509.123 338.83 510.618 344.318 512.664 350.161C514.71 356.012 517.659 360.832 521.512 364.625C525.36 368.422 530.334 369.754 536.435 368.63ZM546.062 420.897C528.94 424.05 514.046 422.821 501.374 417.208C488.702 411.596 478.312 402.582 470.206 390.166C462.099 377.753 456.419 362.708 453.162 345.029L427.466 205.524C424.115 187.334 423.871 170.889 426.743 156.186C429.611 141.49 435.967 129.256 445.808 119.496C455.648 109.736 469.363 103.237 486.952 99.9971C504.306 96.7997 519.26 98.0197 531.818 103.653C544.368 109.289 554.607 118.465 562.528 131.174C570.446 143.89 576.082 159.342 579.432 177.532L605.13 317.037C608.386 334.714 608.439 350.798 605.288 365.285C602.136 379.773 595.64 391.897 585.799 401.657C575.959 411.416 562.711 417.829 546.062 420.897Z" stroke="#1C1A1A" stroke-width="1.33333" stroke-miterlimit="10"/>
<path d="M528.794 370.393C535.126 369.228 539.298 366.211 541.31 361.333C543.322 356.463 544.24 350.928 544.071 344.732C543.898 338.543 543.344 332.884 542.399 327.755L517.127 190.556C516.09 184.923 514.591 179.103 512.639 173.104C510.682 167.107 507.89 162.127 504.248 158.16C500.61 154.199 495.502 152.817 488.939 154.027C482.371 155.236 478.035 158.357 475.931 163.376C473.822 168.401 472.926 174.061 473.239 180.361C473.548 186.663 474.228 192.633 475.266 198.267L500.538 335.467C501.483 340.593 502.976 346.081 505.023 351.924C507.068 357.775 510.018 362.596 513.871 366.388C517.719 370.187 522.692 371.519 528.794 370.393ZM538.42 422.66C521.299 425.813 506.404 424.584 493.732 418.972C481.06 413.359 470.671 404.345 462.564 391.929C454.459 379.517 448.778 364.471 445.52 346.792L419.824 207.287C416.474 189.099 416.23 172.653 419.102 157.949C421.97 143.253 428.326 131.019 438.167 121.259C448.007 111.5 461.723 105 479.311 101.76C496.664 98.564 511.619 99.7827 524.176 105.417C536.727 111.052 546.966 120.229 554.887 132.939C562.804 145.655 568.44 161.107 571.792 179.295L597.488 318.8C600.744 336.477 600.796 352.561 597.646 367.048C594.496 381.536 588 393.66 578.159 403.42C568.318 413.179 555.07 419.592 538.42 422.66Z" fill="#017CFF"/>
<path d="M528.794 370.393C535.126 369.228 539.298 366.211 541.31 361.333C543.322 356.463 544.24 350.928 544.071 344.732C543.898 338.543 543.344 332.884 542.399 327.755L517.127 190.556C516.09 184.923 514.591 179.103 512.639 173.104C510.682 167.107 507.89 162.127 504.248 158.16C500.61 154.199 495.502 152.817 488.939 154.027C482.371 155.236 478.035 158.357 475.931 163.376C473.822 168.401 472.926 174.061 473.239 180.361C473.548 186.663 474.228 192.633 475.266 198.267L500.538 335.467C501.483 340.593 502.976 346.081 505.023 351.924C507.068 357.775 510.018 362.596 513.871 366.388C517.719 370.187 522.692 371.519 528.794 370.393ZM538.42 422.66C521.299 425.813 506.404 424.584 493.732 418.972C481.06 413.359 470.671 404.345 462.564 391.929C454.459 379.517 448.778 364.471 445.52 346.792L419.824 207.287C416.474 189.099 416.23 172.653 419.102 157.949C421.97 143.253 428.326 131.019 438.167 121.259C448.007 111.5 461.723 105 479.311 101.76C496.664 98.564 511.619 99.7827 524.176 105.417C536.727 111.052 546.966 120.229 554.887 132.939C562.804 145.655 568.44 161.107 571.792 179.295L597.488 318.8C600.744 336.477 600.796 352.561 597.646 367.048C594.496 381.536 588 393.66 578.159 403.42C568.318 413.179 555.07 419.592 538.42 422.66Z" stroke="#1C1A1A" stroke-width="1.33333" stroke-miterlimit="10"/>
</g>
<path d="M224.445 259.686L267.613 269.875L298.493 139.043L224.445 259.686ZM240.055 386.635L257.021 314.754L171.381 294.54L182.243 248.52L300.581 75.6938L363.244 90.4845L318.092 281.79L345.245 288.198L334.653 333.076L307.499 326.667L290.533 398.55L240.055 386.635Z" fill="#1C1A1A"/>
<path d="M224.445 259.686L267.613 269.875L298.493 139.043L224.445 259.686ZM240.055 386.635L257.021 314.754L171.381 294.54L182.243 248.52L300.581 75.6938L363.244 90.4845L318.092 281.79L345.245 288.198L334.653 333.076L307.499 326.667L290.533 398.55L240.055 386.635Z" stroke="#1C1A1A" stroke-width="1.33333" stroke-miterlimit="10"/>
<path d="M217.546 258.163L260.714 268.352L291.594 137.519L217.546 258.163ZM233.156 385.112L250.122 313.23L164.482 293.018L175.343 246.998L293.683 74.1709L356.346 88.9616L311.192 280.266L338.347 286.675L327.754 331.552L300.6 325.144L283.634 397.026L233.156 385.112Z" fill="#017CFF"/>
<path d="M217.546 258.163L260.714 268.352L291.594 137.519L217.546 258.163ZM233.156 385.112L250.122 313.23L164.482 293.018L175.343 246.998L293.683 74.1709L356.346 88.9616L311.192 280.266L338.347 286.675L327.754 331.552L300.6 325.144L283.634 397.026L233.156 385.112Z" stroke="#1C1A1A" stroke-width="1.33333" stroke-miterlimit="10"/>
<mask id="mask5_1_2" style="mask-type:luminance" maskUnits="userSpaceOnUse" x="0" y="0" width="1001" height="668">
<path d="M0.5 0.5H1000.5V667.167H0.5V0.5Z" fill="white"/>
</mask>
<g mask="url(#mask5_1_2)">
<path d="M713.287 399.172C713.287 399.172 708.543 430.892 710.321 441.564C712.1 452.236 735.816 499.668 735.816 499.668V506.191L717.733 515.084L723.069 527.239L730.481 525.46L723.367 559.256L738.781 562.516L758.644 519.235C758.644 519.235 793.032 508.561 793.624 505.893C794.217 503.225 787.992 462.02 787.992 462.02C787.992 462.02 780.284 424.667 775.245 412.215C770.204 399.764 763.98 388.499 763.98 388.499L713.287 399.172Z" fill="#1C1A1A"/>
<path d="M713.287 399.172C713.287 399.172 708.543 430.892 710.321 441.564C712.1 452.236 735.816 499.668 735.816 499.668V506.191L717.733 515.084L723.069 527.239L730.481 525.46L723.367 559.256L738.781 562.516L758.644 519.235C758.644 519.235 793.032 508.561 793.624 505.893C794.217 503.225 787.992 462.02 787.992 462.02C787.992 462.02 780.284 424.667 775.245 412.215C770.204 399.764 763.98 388.499 763.98 388.499L713.287 399.172Z" stroke="#1C1A1A" stroke-width="1.33333" stroke-miterlimit="10"/>
<path d="M731.073 444.529L742.932 448.086L761.312 495.518L738.781 505.893" stroke="white" stroke-width="1.33333" stroke-miterlimit="10"/>
<path d="M755.382 520.716L734.927 524.865" stroke="white" stroke-width="1.33333" stroke-miterlimit="10"/>
<path d="M696.273 321.279L679.713 334.199L675.786 326.189L664.739 332.397C664.739 332.397 664.326 367.399 667.29 368.805C670.253 370.212 706.583 348.877 706.583 348.877C706.583 348.877 709.01 387.395 708.405 393.157C707.798 398.919 711.741 401.649 714.469 401.347C717.198 401.043 768.757 394.371 769.97 392.855C771.185 391.337 772.398 387.395 771.791 384.969C771.185 382.543 759.963 340.385 759.963 340.385C759.963 340.385 790.594 345.239 791.807 342.509C793.021 339.779 802.119 313.696 802.119 313.696L786.651 310.056L780.889 318.852C780.889 318.852 747.831 305.204 737.215 305.204C726.601 305.204 699.609 318.852 696.273 321.279Z" fill="white"/>
<path d="M696.273 321.279L679.713 334.199L675.786 326.189L664.739 332.397C664.739 332.397 664.326 367.399 667.29 368.805C670.253 370.212 706.583 348.877 706.583 348.877C706.583 348.877 709.01 387.395 708.405 393.157C707.798 398.919 711.741 401.649 714.469 401.347C717.198 401.043 768.757 394.371 769.97 392.855C771.185 391.337 772.398 387.395 771.791 384.969C771.185 382.543 759.963 340.385 759.963 340.385C759.963 340.385 790.594 345.239 791.807 342.509C793.021 339.779 802.119 313.696 802.119 313.696L786.651 310.056L780.889 318.852C780.889 318.852 747.831 305.204 737.215 305.204C726.601 305.204 699.609 318.852 696.273 321.279Z" stroke="#1C1A1A" stroke-width="1.33333" stroke-miterlimit="10"/>
<path d="M780.888 318.852L788.699 322.016" stroke="#1C1A1A" stroke-width="1.33333" stroke-miterlimit="10"/>
<path d="M741.073 337.781L759.962 340.385L739.28 343.484" stroke="#1C1A1A" stroke-width="1.33333" stroke-miterlimit="10"/>
<path d="M670.149 345.071L667.64 347.925" stroke="#1C1A1A" stroke-width="1.33333" stroke-miterlimit="10"/>
<path d="M679.713 334.199L672.691 342.18" stroke="#1C1A1A" stroke-width="1.33333" stroke-miterlimit="10"/>
<path d="M751.733 355.719C745.147 365.044 731.564 383.409 722.821 389.276" stroke="#1C1A1A" stroke-width="1.33333" stroke-miterlimit="10"/>
<path d="M755.577 350.167C755.577 350.167 754.884 351.199 753.68 352.937" stroke="#1C1A1A" stroke-width="1.33333" stroke-miterlimit="10"/>
<path d="M722.969 384.836C720.999 386.883 719.073 388.705 717.444 389.928" stroke="#1C1A1A" stroke-width="1.33333" stroke-miterlimit="10"/>
<path d="M735.207 370.536C735.207 370.536 730.091 377.135 724.761 382.931" stroke="#1C1A1A" stroke-width="1.33333" stroke-miterlimit="10"/>
<path d="M664.739 332.398L663.268 299.204C663.268 299.204 657.316 287.812 657.184 286.912C657.053 286.011 659.423 274.939 660.06 273.007C660.699 271.075 664.049 273.038 665.775 276.464C667.5 279.891 666.656 284.611 666.656 284.611C666.656 284.611 670.577 290.476 671.271 293.132C671.965 295.79 670.689 299.654 670.689 299.654L675.785 326.188L664.739 332.398Z" fill="white"/>
<path d="M664.739 332.398L663.268 299.204C663.268 299.204 657.316 287.812 657.184 286.912C657.053 286.011 659.423 274.939 660.06 273.007C660.699 271.075 664.049 273.038 665.775 276.464C667.5 279.891 666.656 284.611 666.656 284.611C666.656 284.611 670.577 290.476 671.271 293.132C671.965 295.79 670.689 299.654 670.689 299.654L675.785 326.188L664.739 332.398Z" stroke="#1C1A1A" stroke-width="1.33333" stroke-miterlimit="10"/>
<path d="M662.886 272.811C662.886 272.811 660.95 273.236 661.355 275.032C661.759 276.828 663.658 283.972 663.383 286.009" stroke="#1C1A1A" stroke-width="1.33333" stroke-miterlimit="10"/>
<path d="M786.651 308.63C786.651 308.63 809.669 269.515 811.787 268.384C813.905 267.255 830.003 267.679 830.003 267.679C830.003 267.679 836.217 259.066 837.063 260.054L837.91 261.042C837.91 261.042 840.17 259.771 840.877 260.478L841.582 261.183C841.582 261.183 843.135 259.912 843.982 260.336C844.83 260.76 844.83 262.03 844.83 262.03C844.83 262.03 846.525 261.042 846.101 262.878C845.678 264.714 840.453 273.751 838.334 275.022C836.217 276.292 814.611 276.292 814.611 276.292L802.891 311.031L786.651 308.63Z" fill="white"/>
<path d="M786.651 308.63C786.651 308.63 809.669 269.515 811.787 268.384C813.905 267.255 830.003 267.679 830.003 267.679C830.003 267.679 836.217 259.066 837.063 260.054L837.91 261.042C837.91 261.042 840.17 259.771 840.877 260.478L841.582 261.183C841.582 261.183 843.135 259.912 843.982 260.336C844.83 260.76 844.83 262.03 844.83 262.03C844.83 262.03 846.525 261.042 846.101 262.878C845.678 264.714 840.453 273.751 838.334 275.022C836.217 276.292 814.611 276.292 814.611 276.292L802.891 311.031L786.651 308.63Z" stroke="#1C1A1A" stroke-width="1.33333" stroke-miterlimit="10"/>
<path d="M837.911 261.042C837.911 261.042 832.545 271.068 831.415 272.056" stroke="#1C1A1A" stroke-width="1.33333" stroke-miterlimit="10"/>
<path d="M841.582 261.183L834.945 273.327" stroke="#1C1A1A" stroke-width="1.33333" stroke-miterlimit="10"/>
<path d="M844.83 262.03L838.475 272.762" stroke="#1C1A1A" stroke-width="1.33333" stroke-miterlimit="10"/>
<path d="M660.83 330.822L664.076 340.464L680.768 328.834L676.754 320.225L660.83 330.822Z" fill="white"/>
<path d="M660.83 330.822L664.076 340.464L680.768 328.834L676.754 320.225L660.83 330.822Z" stroke="#1C1A1A" stroke-width="1.33333" stroke-miterlimit="10"/>
<path d="M760.871 270.023C760.871 270.023 760.871 276.088 759.355 280.941C757.839 285.795 762.085 290.04 760.871 291.556C759.659 293.073 755.717 295.196 755.717 295.196C755.717 295.196 753.897 303.384 750.863 304.597C747.831 305.811 739.339 302.171 739.339 302.171C739.339 302.171 731.757 292.467 736.911 283.973C742.067 275.483 760.871 270.023 760.871 270.023Z" fill="white"/>
<path d="M760.871 270.023C760.871 270.023 760.871 276.088 759.355 280.941C757.839 285.795 762.085 290.04 760.871 291.556C759.659 293.073 755.717 295.196 755.717 295.196C755.717 295.196 753.897 303.384 750.863 304.597C747.831 305.811 739.339 302.171 739.339 302.171C739.339 302.171 731.757 292.467 736.911 283.973C742.067 275.483 760.871 270.023 760.871 270.023Z" stroke="#1C1A1A" stroke-width="1.33333" stroke-miterlimit="10"/>
<path d="M755.409 285.061C755.048 286.188 754.382 286.981 753.922 286.835C753.461 286.687 753.38 285.655 753.74 284.528C754.1 283.401 754.765 282.608 755.225 282.755C755.686 282.901 755.769 283.935 755.409 285.061Z" fill="#1C1A1A"/>
<path d="M752.871 279.339C752.871 279.339 754.639 276.819 757.274 278.337" stroke="#1C1A1A" stroke-width="1.33333" stroke-miterlimit="10"/>
<path d="M748.442 291.803C748.442 291.803 749.415 295.307 753.698 295.696" stroke="#1C1A1A" stroke-width="1.33333" stroke-miterlimit="10"/>
<path d="M767.241 255.768C767.241 255.768 770.577 263.655 766.635 268.81C762.692 273.966 752.684 274.268 746.617 282.155C740.552 290.04 742.979 300.352 744.495 303.688C746.011 307.024 743.585 319.762 739.339 321.582C735.093 323.402 728.117 324.615 729.936 328.86C731.757 333.107 733.88 340.386 732.06 344.024C730.24 347.664 718.715 354.034 709.616 350.696C700.519 347.36 700.823 340.688 703.248 336.139C705.673 331.591 700.823 333.712 695.665 326.435C690.509 319.156 684.141 306.418 692.329 300.048C700.519 293.68 706.887 291.556 707.493 285.491C708.101 279.426 704.981 265.018 712.867 258.952C720.752 252.887 725.213 254.323 725.213 254.323C725.213 254.323 732.667 246.063 740.856 246.063C749.044 246.063 752.38 251.219 752.38 251.219C752.38 251.219 762.692 243.031 767.241 255.768Z" fill="#1C1A1A"/>
<path d="M767.241 255.768C767.241 255.768 770.577 263.655 766.635 268.81C762.692 273.966 752.684 274.268 746.617 282.155C740.552 290.04 742.979 300.352 744.495 303.688C746.011 307.024 743.585 319.762 739.339 321.582C735.093 323.402 728.117 324.615 729.936 328.86C731.757 333.107 733.88 340.386 732.06 344.024C730.24 347.664 718.715 354.034 709.616 350.696C700.519 347.36 700.823 340.688 703.248 336.139C705.673 331.591 700.823 333.712 695.665 326.435C690.509 319.156 684.141 306.418 692.329 300.048C700.519 293.68 706.887 291.556 707.493 285.491C708.101 279.426 704.981 265.018 712.867 258.952C720.752 252.887 725.213 254.323 725.213 254.323C725.213 254.323 732.667 246.063 740.856 246.063C749.044 246.063 752.38 251.219 752.38 251.219C752.38 251.219 762.692 243.031 767.241 255.768Z" stroke="#1C1A1A" stroke-width="1.33333" stroke-miterlimit="10"/>
<path d="M785.438 305.204L782.708 312.179L802.422 319.155L805.151 308.236L785.438 305.204Z" fill="white"/>
<path d="M785.438 305.204L782.708 312.179L802.422 319.155L805.151 308.236L785.438 305.204Z" stroke="#1C1A1A" stroke-width="1.33333" stroke-miterlimit="10"/>
<path d="M717.733 515.083C717.733 515.083 678.76 528.753 679.229 531.573C679.7 534.391 688.864 559.063 692.623 563.058C696.381 567.053 698.027 569.402 698.732 566.113C699.436 562.823 698.496 558.83 698.496 557.183C698.496 555.539 700.376 536.742 701.081 535.802C701.787 534.862 723.069 527.238 723.069 527.238L717.733 515.083Z" fill="white"/>
<path d="M717.733 515.083C717.733 515.083 678.76 528.753 679.229 531.573C679.7 534.391 688.864 559.063 692.623 563.058C696.381 567.053 698.027 569.402 698.732 566.113C699.436 562.823 698.496 558.83 698.496 557.183C698.496 555.539 700.376 536.742 701.081 535.802C701.787 534.862 723.069 527.238 723.069 527.238L717.733 515.083Z" stroke="#1C1A1A" stroke-width="1.33333" stroke-miterlimit="10"/>
<path d="M694.737 537.682L690.364 525.47C683.988 528.146 679.061 530.56 679.229 531.573C679.7 534.392 688.864 559.064 692.623 563.058C696.381 567.052 698.027 569.402 698.732 566.113C699.436 562.822 698.496 558.828 698.496 557.184C698.496 555.54 700.376 536.742 701.081 535.802L694.737 537.682Z" fill="white"/>
<path d="M694.737 537.682L690.364 525.47C683.988 528.146 679.061 530.56 679.229 531.573C679.7 534.392 688.864 559.064 692.623 563.058C696.381 567.052 698.027 569.402 698.732 566.113C699.436 562.822 698.496 558.828 698.496 557.184C698.496 555.54 700.376 536.742 701.081 535.802L694.737 537.682Z" stroke="#1C1A1A" stroke-width="1.33333" stroke-miterlimit="10"/>
<path d="M723.366 559.255C723.366 559.255 712.228 597.617 712.594 599.713C712.961 601.809 723.562 605.107 727.638 606.263C731.713 607.419 742.046 607.006 744.801 605.891C747.557 604.777 749.298 602.547 747.129 601.742C744.96 600.937 738.98 599.429 738.98 599.429L730.254 587.97L738.782 562.515L723.366 559.255Z" fill="white"/>
<path d="M723.366 559.255C723.366 559.255 712.228 597.617 712.594 599.713C712.961 601.809 723.562 605.107 727.638 606.263C731.713 607.419 742.046 607.006 744.801 605.891C747.557 604.777 749.298 602.547 747.129 601.742C744.96 600.937 738.98 599.429 738.98 599.429L730.254 587.97L738.782 562.515L723.366 559.255Z" stroke="#1C1A1A" stroke-width="1.33333" stroke-miterlimit="10"/>
<path d="M747.129 601.742C744.96 600.937 738.98 599.429 738.98 599.429L730.255 587.97L728.233 593.277L714.959 589.041C713.523 595.091 712.472 599.011 712.595 599.713C712.961 601.809 723.563 605.106 727.639 606.263C731.712 607.419 742.045 607.005 744.801 605.89C747.556 604.775 749.299 602.547 747.129 601.742Z" fill="white"/>
<path d="M747.129 601.742C744.96 600.937 738.98 599.429 738.98 599.429L730.255 587.97L728.233 593.277L714.959 589.041C713.523 595.091 712.472 599.011 712.595 599.713C712.961 601.809 723.563 605.106 727.639 606.263C731.712 607.419 742.045 607.005 744.801 605.89C747.556 604.775 749.299 602.547 747.129 601.742Z" stroke="#1C1A1A" stroke-width="1.33333" stroke-miterlimit="10"/>
</g>
<mask id="mask6_1_2" style="mask-type:luminance" maskUnits="userSpaceOnUse" x="0" y="0" width="1001" height="668">
<path d="M0.5 0.5H1000.5V667.167H0.5V0.5Z" fill="white"/>
</mask>
<g mask="url(#mask6_1_2)">
<path d="M453.109 246.747C453.109 246.747 464.903 257.314 466.625 257.314C468.345 257.314 470.065 252.154 472.767 255.839C475.47 259.525 472.767 263.703 472.767 263.703C472.767 263.703 483.579 275.498 481.859 277.71C480.139 279.921 472.03 284.59 472.03 284.59L470.31 305.231L448.194 299.089L447.949 291.47L436.399 283.853C436.399 283.853 430.255 273.531 434.433 263.457C438.61 253.382 453.109 246.747 453.109 246.747Z" fill="white"/>
<path d="M453.109 246.747C453.109 246.747 464.903 257.314 466.625 257.314C468.345 257.314 470.065 252.154 472.767 255.839C475.47 259.525 472.767 263.703 472.767 263.703C472.767 263.703 483.579 275.498 481.859 277.71C480.139 279.921 472.03 284.59 472.03 284.59L470.31 305.231L448.194 299.089L447.949 291.47L436.399 283.853C436.399 283.853 430.255 273.531 434.433 263.457C438.61 253.382 453.109 246.747 453.109 246.747Z" stroke="#1C1A1A" stroke-width="1.33333" stroke-miterlimit="10"/>
<path d="M453.109 246.747C453.109 246.747 441.56 256.822 442.788 258.051C444.017 259.279 450.161 260.999 449.177 262.719C448.194 264.441 445.492 269.846 445.492 269.846C445.492 269.846 450.406 272.55 450.161 274.023C449.914 275.498 448.686 276.973 447.949 276.726C447.212 276.481 440.085 274.023 439.348 277.955C438.61 281.887 441.805 285.573 444.509 286.802C447.212 288.03 451.636 285.327 451.636 285.327C451.636 285.327 448.686 291.225 447.949 291.47C447.212 291.717 433.942 285.819 428.781 283.607C423.621 281.395 418.952 278.201 420.181 272.795C421.41 267.389 422.885 260.509 427.553 256.577C432.221 252.645 436.153 248.222 436.153 248.222C436.153 248.222 429.52 244.535 434.433 242.57C439.348 240.605 444.509 242.57 444.509 242.57C444.509 242.57 442.788 237.165 447.212 238.146C451.636 239.13 453.846 242.079 453.109 246.747Z" fill="#1C1A1A"/>
<path d="M453.109 246.747C453.109 246.747 441.56 256.822 442.788 258.051C444.017 259.279 450.161 260.999 449.177 262.719C448.194 264.441 445.492 269.846 445.492 269.846C445.492 269.846 450.406 272.55 450.161 274.023C449.914 275.498 448.686 276.973 447.949 276.726C447.212 276.481 440.085 274.023 439.348 277.955C438.61 281.887 441.805 285.573 444.509 286.802C447.212 288.03 451.636 285.327 451.636 285.327C451.636 285.327 448.686 291.225 447.949 291.47C447.212 291.717 433.942 285.819 428.781 283.607C423.621 281.395 418.952 278.201 420.181 272.795C421.41 267.389 422.885 260.509 427.553 256.577C432.221 252.645 436.153 248.222 436.153 248.222C436.153 248.222 429.52 244.535 434.433 242.57C439.348 240.605 444.509 242.57 444.509 242.57C444.509 242.57 442.788 237.165 447.212 238.146C451.636 239.13 453.846 242.079 453.109 246.747Z" stroke="#1C1A1A" stroke-width="1.33333" stroke-miterlimit="10"/>
<path d="M472.03 284.59L464.167 289.013L471.047 293.927L472.03 284.59Z" fill="#1C1A1A"/>
<path d="M472.03 284.59L464.167 289.013L471.047 293.927L472.03 284.59Z" stroke="#1C1A1A" stroke-width="1.33333" stroke-miterlimit="10"/>
<path d="M457.041 254.611C457.041 254.611 452.126 254.611 452.618 259.28" stroke="#1C1A1A" stroke-width="1.33333" stroke-miterlimit="10"/>
<path d="M462.581 260.609C463.479 261.715 463.651 263.063 462.965 263.618C462.28 264.174 460.997 263.727 460.1 262.619C459.203 261.513 459.031 260.165 459.716 259.61C460.401 259.054 461.684 259.501 462.581 260.609Z" fill="#1C1A1A"/>
<path d="M435.041 576.786C435.041 576.786 436.254 588.918 437.466 590.737C438.68 592.557 450.205 598.318 452.632 600.746C455.058 603.172 449.598 604.992 446.869 606.204C444.14 607.418 441.106 607.114 435.648 605.598C430.188 604.082 425.032 599.533 421.696 598.016C418.36 596.5 409.868 593.77 410.474 591.648C411.081 589.525 421.696 572.237 421.696 572.237L435.041 576.786Z" fill="white"/>
<path d="M435.041 576.786C435.041 576.786 436.254 588.918 437.466 590.737C438.68 592.557 450.205 598.318 452.632 600.746C455.058 603.172 449.598 604.992 446.869 606.204C444.14 607.418 441.106 607.114 435.648 605.598C430.188 604.082 425.032 599.533 421.696 598.016C418.36 596.5 409.868 593.77 410.474 591.648C411.081 589.525 421.696 572.237 421.696 572.237L435.041 576.786Z" stroke="#1C1A1A" stroke-width="1.33333" stroke-miterlimit="10"/>
<path d="M554.536 582.852C554.536 582.852 567.88 600.14 568.791 600.442C570.979 601.164 579.929 591.368 581.668 589.934C586.735 585.76 591.341 581.077 594.969 575.585C596.467 573.317 600.995 565.604 597.3 563.138C592.719 560.085 587.167 567.265 583.348 568.901C581.225 569.812 575.159 572.541 575.159 572.541L554.536 582.852Z" fill="white"/>
<path d="M554.536 582.852C554.536 582.852 567.88 600.14 568.791 600.442C570.979 601.164 579.929 591.368 581.668 589.934C586.735 585.76 591.341 581.077 594.969 575.585C596.467 573.317 600.995 565.604 597.3 563.138C592.719 560.085 587.167 567.265 583.348 568.901C581.225 569.812 575.159 572.541 575.159 572.541L554.536 582.852Z" stroke="#1C1A1A" stroke-width="1.33333" stroke-miterlimit="10"/>
<path d="M446.566 420.594C446.566 420.594 447.475 436.062 448.688 437.882C449.902 439.7 454.148 453.955 454.148 453.955L444.443 509.456L419.876 571.023L437.467 578.908L472.648 514.007C472.648 514.007 484.78 482.767 485.083 481.858C485.386 480.948 554.536 582.851 554.536 582.851L569.094 573.451L522.994 473.063L500.247 419.076L446.566 420.594Z" fill="#1C1A1A"/>
<path d="M446.566 420.594C446.566 420.594 447.475 436.062 448.688 437.882C449.902 439.7 454.148 453.955 454.148 453.955L444.443 509.456L419.876 571.023L437.467 578.908L472.648 514.007C472.648 514.007 484.78 482.767 485.083 481.858C485.386 480.948 554.536 582.851 554.536 582.851L569.094 573.451L522.994 473.063L500.247 419.076L446.566 420.594Z" stroke="#1C1A1A" stroke-width="1.33333" stroke-miterlimit="10"/>
<path d="M420.18 560.105L417.753 573.753L437.164 582.244L444.443 571.327L420.18 560.105Z" fill="white"/>
<path d="M420.18 560.105L417.753 573.753L437.164 582.244L444.443 571.327L420.18 560.105Z" stroke="#1C1A1A" stroke-width="1.33333" stroke-miterlimit="10"/>
<path d="M547.863 579.516L555.749 587.401L575.159 572.541L567.881 563.441L547.863 579.516Z" fill="white"/>
<path d="M547.863 579.516L555.749 587.401L575.159 572.541L567.881 563.441L547.863 579.516Z" stroke="#1C1A1A" stroke-width="1.33333" stroke-miterlimit="10"/>
<path d="M445 303.512C445 303.512 436.891 333.49 437.873 341.354C438.856 349.217 436.153 423.429 436.153 423.429C436.153 423.429 453.845 428.834 474.488 426.624C495.129 424.412 507.169 420.48 507.169 420.48C507.169 420.48 486.528 338.65 483.088 328.821C479.648 318.993 471.048 307.689 471.048 307.689L445 303.512Z" fill="white"/>
<path d="M445 303.512C445 303.512 436.891 333.49 437.873 341.354C438.856 349.217 436.153 423.429 436.153 423.429C436.153 423.429 453.845 428.834 474.488 426.624C495.129 424.412 507.169 420.48 507.169 420.48C507.169 420.48 486.528 338.65 483.088 328.821C479.648 318.993 471.048 307.689 471.048 307.689L445 303.512Z" stroke="#1C1A1A" stroke-width="1.33333" stroke-miterlimit="10"/>
<path d="M445.737 295.648L442.542 305.232L475.716 313.832L476.7 302.774L445.737 295.648Z" fill="white"/>
<path d="M445.737 295.648L442.542 305.232L475.716 313.832L476.7 302.774L445.737 295.648Z" stroke="#1C1A1A" stroke-width="1.33333" stroke-miterlimit="10"/>
<path d="M522.16 414.336L529.04 416.056C529.04 416.056 531.989 411.879 534.201 411.141C536.412 410.405 539.114 410.896 541.818 410.896C544.521 410.896 546.978 407.209 549.19 408.931C551.402 410.651 547.962 412.616 546.733 413.108C545.504 413.599 539.606 414.828 539.606 414.828C539.606 414.828 553.613 419.005 554.596 419.005C555.578 419.005 553.858 421.463 552.63 422.199C551.402 422.937 547.224 423.183 547.224 423.183C547.224 423.183 540.344 425.641 536.904 425.885C533.464 426.132 524.372 423.183 524.372 423.183L518.72 420.972L515.278 419.743L522.16 414.336Z" fill="white"/>
<path d="M522.16 414.336L529.04 416.056C529.04 416.056 531.989 411.879 534.201 411.141C536.412 410.405 539.114 410.896 541.818 410.896C544.521 410.896 546.978 407.209 549.19 408.931C551.402 410.651 547.962 412.616 546.733 413.108C545.504 413.599 539.606 414.828 539.606 414.828C539.606 414.828 553.613 419.005 554.596 419.005C555.578 419.005 553.858 421.463 552.63 422.199C551.402 422.937 547.224 423.183 547.224 423.183C547.224 423.183 540.344 425.641 536.904 425.885C533.464 426.132 524.372 423.183 524.372 423.183L518.72 420.972L515.278 419.743L522.16 414.336Z" stroke="#1C1A1A" stroke-width="1.33333" stroke-miterlimit="10"/>
<path d="M452.863 317.027C452.863 317.027 442.542 326.364 445.246 334.965C447.949 343.565 513.067 425.885 513.067 425.885L526.583 413.108L469.818 318.501" fill="white"/>
<path d="M452.863 317.027C452.863 317.027 442.542 326.364 445.246 334.965C447.949 343.565 513.067 425.885 513.067 425.885L526.583 413.108L469.818 318.501" stroke="#1C1A1A" stroke-width="1.33333" stroke-miterlimit="10"/>
<path d="M464.46 454.864L483.566 479.431" stroke="white" stroke-width="1.33333" stroke-miterlimit="10"/>
</g>
<mask id="mask7_1_2" style="mask-type:luminance" maskUnits="userSpaceOnUse" x="0" y="0" width="1001" height="668">
<path d="M0.5 0.5H1000.5V667.167H0.5V0.5Z" fill="white"/>
</mask>
<g mask="url(#mask7_1_2)">
<path d="M180.839 252.942C180.839 252.942 172.929 260.659 172.351 265.482C171.772 270.305 165.019 290.369 167.335 294.227C169.649 298.086 181.996 305.803 181.996 305.803C181.996 305.803 166.949 309.662 168.107 317.571C169.264 325.481 174.665 326.253 174.665 326.253C174.665 326.253 162.511 333.39 166.563 338.601C170.615 343.809 180.26 343.037 181.804 338.793C183.347 334.549 180.453 329.146 180.453 329.146C180.453 329.146 188.171 326.831 190.099 323.553C192.029 320.273 191.449 317.186 191.449 317.186C191.449 317.186 198.201 318.343 202.253 315.449C206.305 312.555 208.041 303.487 208.041 303.487C208.041 303.487 222.317 295.385 227.333 282.266C232.349 269.147 230.613 263.746 227.333 259.694C224.053 255.643 200.131 243.682 192.8 245.225C185.469 246.769 180.839 252.942 180.839 252.942Z" fill="#1C1A1A"/>
<path d="M180.839 252.942C180.839 252.942 172.929 260.659 172.351 265.482C171.772 270.305 165.019 290.369 167.335 294.227C169.649 298.086 181.996 305.803 181.996 305.803C181.996 305.803 166.949 309.662 168.107 317.571C169.264 325.481 174.665 326.253 174.665 326.253C174.665 326.253 162.511 333.39 166.563 338.601C170.615 343.809 180.26 343.037 181.804 338.793C183.347 334.549 180.453 329.146 180.453 329.146C180.453 329.146 188.171 326.831 190.099 323.553C192.029 320.273 191.449 317.186 191.449 317.186C191.449 317.186 198.201 318.343 202.253 315.449C206.305 312.555 208.041 303.487 208.041 303.487C208.041 303.487 222.317 295.385 227.333 282.266C232.349 269.147 230.613 263.746 227.333 259.694C224.053 255.643 200.131 243.682 192.8 245.225C185.469 246.769 180.839 252.942 180.839 252.942Z" stroke="#1C1A1A" stroke-width="1.33333" stroke-miterlimit="10"/>
<path d="M197.237 301.751L201.096 319.694L220.966 308.118L215.565 300.401C215.565 300.401 201.868 305.031 197.237 301.751Z" fill="white"/>
<path d="M197.237 301.751L201.096 319.694L220.966 308.118L215.565 300.401C215.565 300.401 201.868 305.031 197.237 301.751Z" stroke="#1C1A1A" stroke-width="1.33333" stroke-miterlimit="10"/>
<path d="M196.08 264.132L183.926 285.546C183.926 285.546 188.362 295.385 191.064 298.472C193.765 301.558 197.045 305.417 206.112 306.381C215.18 307.346 220.581 298.472 220.968 292.685C221.353 286.897 215.18 269.726 215.18 269.726L196.08 264.132Z" fill="white"/>
<path d="M196.08 264.132L183.926 285.546C183.926 285.546 188.362 295.385 191.064 298.472C193.765 301.558 197.045 305.417 206.112 306.381C215.18 307.346 220.581 298.472 220.968 292.685C221.353 286.897 215.18 269.726 215.18 269.726L196.08 264.132Z" stroke="#1C1A1A" stroke-width="1.33333" stroke-miterlimit="10"/>
<path d="M185.469 287.475C185.469 287.475 179.681 285.161 181.031 289.983C182.382 294.807 188.555 294.807 188.555 294.807L185.469 287.475Z" fill="white"/>
<path d="M185.469 287.475C185.469 287.475 179.681 285.161 181.031 289.983C182.382 294.807 188.555 294.807 188.555 294.807L185.469 287.475Z" stroke="#1C1A1A" stroke-width="1.33333" stroke-miterlimit="10"/>
<path d="M216.723 274.742C216.723 274.742 217.495 271.463 220.388 273.391C223.281 275.321 219.423 282.459 219.423 282.459L216.723 274.742Z" fill="white"/>
<path d="M216.723 274.742C216.723 274.742 217.495 271.463 220.388 273.391C223.281 275.321 219.423 282.459 219.423 282.459L216.723 274.742Z" stroke="#1C1A1A" stroke-width="1.33333" stroke-miterlimit="10"/>
<path d="M201.675 285.16L204.183 290.948L208.041 289.404" stroke="#1C1A1A" stroke-width="1.33333" stroke-miterlimit="10"/>
<path d="M201.289 295C201.289 295 209.199 298.472 212.286 289.984" stroke="#1C1A1A" stroke-width="1.33333" stroke-miterlimit="10"/>
<path d="M206.884 281.109C206.884 281.109 209.392 277.83 212.672 278.794" stroke="#1C1A1A" stroke-width="1.33333" stroke-miterlimit="10"/>
<path d="M202.832 273.778C202.832 273.778 205.919 269.919 210.55 271.27" stroke="#1C1A1A" stroke-width="1.33333" stroke-miterlimit="10"/>
<path d="M195.887 276.286C195.887 276.286 190.485 273.971 188.169 280.145" stroke="#1C1A1A" stroke-width="1.33333" stroke-miterlimit="10"/>
<path d="M197.099 284.758C197.592 285.762 197.448 286.843 196.779 287.173C196.11 287.501 195.167 286.953 194.675 285.949C194.182 284.945 194.324 283.863 194.994 283.535C195.664 283.206 196.606 283.754 197.099 284.758Z" fill="#1C1A1A"/>
<path d="M292.04 269.75C292.04 269.75 303.064 262.27 303.852 261.482C304.638 260.694 309.364 257.545 311.529 255.774C313.694 254.002 314.285 248.095 316.648 249.081C319.01 250.065 319.6 252.427 318.813 254.198C318.025 255.97 314.088 259.119 314.088 259.119C314.088 259.119 324.916 256.954 325.506 258.135C326.096 259.317 326.096 261.877 325.309 262.861C324.521 263.845 323.537 265.026 323.537 265.026C323.537 265.026 322.75 271.719 321.569 273.885C320.388 276.05 315.86 277.427 312.71 277.427C309.561 277.427 303.064 278.215 303.064 278.215L295.781 281.167L292.04 269.75Z" fill="white"/>
<path d="M292.04 269.75C292.04 269.75 303.064 262.27 303.852 261.482C304.638 260.694 309.364 257.545 311.529 255.774C313.694 254.002 314.285 248.095 316.648 249.081C319.01 250.065 319.6 252.427 318.813 254.198C318.025 255.97 314.088 259.119 314.088 259.119C314.088 259.119 324.916 256.954 325.506 258.135C326.096 259.317 326.096 261.877 325.309 262.861C324.521 263.845 323.537 265.026 323.537 265.026C323.537 265.026 322.75 271.719 321.569 273.885C320.388 276.05 315.86 277.427 312.71 277.427C309.561 277.427 303.064 278.215 303.064 278.215L295.781 281.167L292.04 269.75Z" stroke="#1C1A1A" stroke-width="1.33333" stroke-miterlimit="10"/>
<path d="M195.736 388.787L195.221 397.791L251.561 392.647L248.988 384.413L195.736 388.787Z" fill="white"/>
<path d="M195.736 388.787L195.221 397.791L251.561 392.647L248.988 384.413L195.736 388.787Z" stroke="#1C1A1A" stroke-width="1.33333" stroke-miterlimit="10"/>
<path d="M200.213 316.36C200.213 316.36 190.401 322.104 187.804 326.556C185.208 331.007 164.805 363.652 166.289 367.361C167.772 371.072 174.45 375.524 177.417 375.524C180.385 375.524 206.724 379.603 206.724 379.603L202.58 320.436L200.213 316.36Z" fill="white"/>
<path d="M200.213 316.36C200.213 316.36 190.401 322.104 187.804 326.556C185.208 331.007 164.805 363.652 166.289 367.361C167.772 371.072 174.45 375.524 177.417 375.524C180.385 375.524 206.724 379.603 206.724 379.603L202.58 320.436L200.213 316.36Z" stroke="#1C1A1A" stroke-width="1.33333" stroke-miterlimit="10"/>
<path d="M193.74 361.426C193.74 361.426 185.208 368.105 177.789 369.958" stroke="#1C1A1A" stroke-width="1.33333" stroke-miterlimit="10"/>
<path d="M192.095 363.047C192.095 363.047 189.204 369.168 185.463 371.55" stroke="#1C1A1A" stroke-width="1.33333" stroke-miterlimit="10"/>
<path d="M292.04 269.75C292.04 269.75 205.029 312.666 198.729 315.618C192.429 318.572 185.933 332.352 187.509 343.178C189.084 354.005 196.564 365.817 197.154 367.589C197.745 369.361 195.186 384.125 194.596 386.881C194.005 389.637 194.202 391.802 196.761 392.984C199.32 394.165 247.944 387.472 249.716 386.488C251.486 385.502 253.062 383.141 251.881 379.006C250.7 374.873 245.778 364.046 245.778 363.061C245.778 362.077 237.314 335.108 237.314 335.108C237.314 335.108 277.078 301.445 281.606 295.933C286.134 290.421 295.781 281.168 295.781 281.168L292.04 269.75Z" fill="white"/>
<path d="M292.04 269.75C292.04 269.75 205.029 312.666 198.729 315.618C192.429 318.572 185.933 332.352 187.509 343.178C189.084 354.005 196.564 365.817 197.154 367.589C197.745 369.361 195.186 384.125 194.596 386.881C194.005 389.637 194.202 391.802 196.761 392.984C199.32 394.165 247.944 387.472 249.716 386.488C251.486 385.502 253.062 383.141 251.881 379.006C250.7 374.873 245.778 364.046 245.778 363.061C245.778 362.077 237.314 335.108 237.314 335.108C237.314 335.108 277.078 301.445 281.606 295.933C286.134 290.421 295.781 281.168 295.781 281.168L292.04 269.75Z" stroke="#1C1A1A" stroke-width="1.33333" stroke-miterlimit="10"/>
<path d="M209.747 366.39C208.071 367.96 206.593 369.198 205.422 369.951" stroke="#1C1A1A" stroke-width="1.33333" stroke-miterlimit="10"/>
<path d="M213.253 352.179C224.094 345.157 237.314 335.108 237.314 335.108C237.314 335.108 223.135 352.829 212.902 363.287" stroke="#1C1A1A" stroke-width="1.33333" stroke-miterlimit="10"/>
<path d="M201.092 358.731C202.987 358.281 206.245 356.544 210.055 354.203" stroke="#1C1A1A" stroke-width="1.33333" stroke-miterlimit="10"/>
<path d="M220.975 361.88C220.975 361.88 214.675 368.574 212.116 370.346" stroke="#1C1A1A" stroke-width="1.33333" stroke-miterlimit="10"/>
<path d="M241.944 325.39C240.898 326.758 239.87 327.926 238.889 328.808" stroke="#1C1A1A" stroke-width="1.33333" stroke-miterlimit="10"/>
<path d="M256.999 297.507C256.999 297.507 250.925 311.721 244.635 321.517" stroke="#1C1A1A" stroke-width="1.33333" stroke-miterlimit="10"/>
<path d="M287.119 272.309L292.04 285.105" stroke="#1C1A1A" stroke-width="1.33333" stroke-miterlimit="10"/>
<path d="M220.69 527.192L210.142 568.097L203.454 578.386L199.08 593.05L208.084 597.424C208.084 597.424 212.972 592.536 215.802 595.366C218.632 598.196 218.889 603.084 218.889 603.084C218.889 603.084 232.524 607.2 235.354 606.942C238.184 606.685 242.557 607.457 243.072 606.17C243.586 604.885 243.844 595.109 242.557 593.822C241.662 592.928 232.31 589.936 226.35 584.818C223.745 582.582 221.774 575.792 221.462 575.556C220.433 574.785 242.557 530.022 242.557 530.022L220.69 527.192Z" fill="white"/>
<path d="M220.69 527.192L210.142 568.097L203.454 578.386L199.08 593.05L208.084 597.424C208.084 597.424 212.972 592.536 215.802 595.366C218.632 598.196 218.889 603.084 218.889 603.084C218.889 603.084 232.524 607.2 235.354 606.942C238.184 606.685 242.557 607.457 243.072 606.17C243.586 604.885 243.844 595.109 242.557 593.822C241.662 592.928 232.31 589.936 226.35 584.818C223.745 582.582 221.774 575.792 221.462 575.556C220.433 574.785 242.557 530.022 242.557 530.022L220.69 527.192Z" stroke="#1C1A1A" stroke-width="1.33333" stroke-miterlimit="10"/>
<path d="M243.072 606.171C243.586 604.884 243.844 595.108 242.557 593.821C241.662 592.927 232.31 589.935 226.349 584.817C223.744 582.583 221.774 575.792 221.461 575.556C221.357 575.477 221.501 574.929 221.825 574.04L209.384 569.263L203.454 578.387L199.08 593.049L208.084 597.423C208.084 597.423 212.972 592.535 215.802 595.365C218.632 598.196 218.889 603.084 218.889 603.084C218.889 603.084 232.524 607.199 235.353 606.941C238.184 606.685 242.557 607.457 243.072 606.171Z" fill="#1C1A1A"/>
<path d="M243.072 606.171C243.586 604.884 243.844 595.108 242.557 593.821C241.662 592.927 232.31 589.935 226.349 584.817C223.744 582.583 221.774 575.792 221.461 575.556C221.357 575.477 221.501 574.929 221.825 574.04L209.384 569.263L203.454 578.387L199.08 593.049L208.084 597.423C208.084 597.423 212.972 592.535 215.802 595.365C218.632 598.196 218.889 603.084 218.889 603.084C218.889 603.084 232.524 607.199 235.353 606.941C238.184 606.685 242.557 607.457 243.072 606.171Z" stroke="#1C1A1A" stroke-width="1.33333" stroke-miterlimit="10"/>
<path d="M259.793 514.586L284.979 577.436C284.979 577.436 283.359 586.928 284.979 589.474C286.6 592.021 290.304 601.282 290.304 601.282L303.733 598.041C303.733 598.041 302.575 593.41 306.28 593.642C309.985 593.874 312.763 595.494 312.763 595.494C312.763 595.494 323.645 589.706 326.887 587.853C330.128 586.002 331.748 583.454 331.517 582.529C331.285 581.602 328.044 574.425 324.34 575.118C320.635 575.814 313.689 578.825 310.216 578.825C306.743 578.825 299.103 576.277 297.481 573.5C295.861 570.721 285.005 524.105 285.005 524.105L281.917 501.724L270.856 463.906L259.793 514.586Z" fill="white"/>
<path d="M259.793 514.586L284.979 577.436C284.979 577.436 283.359 586.928 284.979 589.474C286.6 592.021 290.304 601.282 290.304 601.282L303.733 598.041C303.733 598.041 302.575 593.41 306.28 593.642C309.985 593.874 312.763 595.494 312.763 595.494C312.763 595.494 323.645 589.706 326.887 587.853C330.128 586.002 331.748 583.454 331.517 582.529C331.285 581.602 328.044 574.425 324.34 575.118C320.635 575.814 313.689 578.825 310.216 578.825C306.743 578.825 299.103 576.277 297.481 573.5C295.861 570.721 285.005 524.105 285.005 524.105L281.917 501.724L270.856 463.906L259.793 514.586Z" stroke="#1C1A1A" stroke-width="1.33333" stroke-miterlimit="10"/>
<path d="M331.517 582.529C331.285 581.602 328.044 574.425 324.34 575.118C320.634 575.814 313.689 578.825 310.216 578.825C306.742 578.825 299.102 576.278 297.481 573.5C297.322 573.225 297.07 572.514 296.75 571.477L284.624 576.549L284.978 577.436C284.978 577.436 283.358 586.928 284.978 589.474C286.6 592.021 290.304 601.282 290.304 601.282L303.733 598.041C303.733 598.041 302.574 593.41 306.28 593.642C309.985 593.874 312.762 595.494 312.762 595.494C312.762 595.494 323.645 589.706 326.886 587.853C330.128 586.001 331.748 583.454 331.517 582.529Z" fill="#1C1A1A"/>
<path d="M331.517 582.529C331.285 581.602 328.044 574.425 324.34 575.118C320.634 575.814 313.689 578.825 310.216 578.825C306.742 578.825 299.102 576.278 297.481 573.5C297.322 573.225 297.07 572.514 296.75 571.477L284.624 576.549L284.978 577.436C284.978 577.436 283.358 586.928 284.978 589.474C286.6 592.021 290.304 601.282 290.304 601.282L303.733 598.041C303.733 598.041 302.574 593.41 306.28 593.642C309.985 593.874 312.762 595.494 312.762 595.494C312.762 595.494 323.645 589.706 326.886 587.853C330.128 586.001 331.748 583.454 331.517 582.529Z" stroke="#1C1A1A" stroke-width="1.33333" stroke-miterlimit="10"/>
<path d="M195.222 397.79L178.243 531.565C178.243 531.565 200.367 534.394 225.835 533.624C251.304 532.852 257.992 531.822 257.992 531.822L271.112 470.852L285.004 524.104L291.436 522.046C291.436 522.046 284.234 478.826 280.116 469.565C276 460.305 251.562 392.646 251.562 392.646L195.222 397.79Z" fill="#1C1A1A"/>
<path d="M195.222 397.79L178.243 531.565C178.243 531.565 200.367 534.394 225.835 533.624C251.304 532.852 257.992 531.822 257.992 531.822L271.112 470.852L285.004 524.104L291.436 522.046C291.436 522.046 284.234 478.826 280.116 469.565C276 460.305 251.562 392.646 251.562 392.646L195.222 397.79Z" stroke="#1C1A1A" stroke-width="1.33333" stroke-miterlimit="10"/>
</g>
</svg>
