<svg width="29" height="30" viewBox="0 0 29 30" fill="none" xmlns="http://www.w3.org/2000/svg">
<g clip-path="url(#clip0_1009_496)">
<path d="M14.1766 0.0380859L0.0947266 4.99387L2.32005 23.4434L14.1915 29.9682L26.1243 23.355L28.3488 4.9061L14.1766 0.0380859Z" fill="#B3B3B3"/>
<path d="M26.944 5.97252L14.1436 1.60742V28.4095L24.8709 22.4725L26.944 5.97252Z" fill="#626262"/>
<path d="M1.6748 6.05064L3.58173 22.5508L14.1434 28.4089V1.60645L1.67492 6.05053L1.6748 6.05064Z" fill="#9D9E9E"/>
<path d="M17.6666 15.8748L14.1431 17.5225H10.4293L8.68357 21.8891L5.43652 21.9491L14.1431 2.58008L17.6666 15.8749V15.8748ZM17.326 15.0452L14.1665 8.79033L11.5748 14.9376H14.1429L17.326 15.0454V15.0452Z" fill="#F2F2F2"/>
<path d="M14.1436 2.58008L14.1669 8.79044L17.1075 14.9425H14.1502L14.1436 17.5186L18.2329 17.5225L20.1442 21.9498L23.2511 22.0074L14.1436 2.58008Z" fill="#B3B3B3"/>
</g>
<defs>
<clipPath id="clip0_1009_496">
<rect width="28.44" height="30" fill="white"/>
</clipPath>
</defs>
</svg>
