<svg width="27" height="30" viewBox="0 0 27 30" fill="none" xmlns="http://www.w3.org/2000/svg">
<g clip-path="url(#clip0_1009_566)">
<path d="M26.6191 8.82456C26.6189 8.32149 26.5113 7.87695 26.2937 7.49543C26.08 7.12025 25.7599 6.80581 25.3306 6.55719C21.7867 4.51374 18.2393 2.47655 14.6966 0.431028C13.7414 -0.120376 12.8154 -0.100273 11.8674 0.459046C10.4568 1.29094 3.39445 5.3371 1.28998 6.55604C0.423291 7.05776 0.00156234 7.8256 0.00135403 8.82363C0 12.9331 0.00135403 17.0425 0 21.1521C0.000208313 21.6441 0.103219 22.08 0.311219 22.4558C0.525052 22.8423 0.849602 23.1654 1.28883 23.4197C3.39341 24.6386 10.4567 28.6845 11.8669 29.5166C12.8154 30.0762 13.7414 30.0962 14.6969 29.5446C18.2397 27.4989 21.7873 25.4619 25.3317 23.4184C25.771 23.1643 26.0955 22.841 26.3093 22.4548C26.517 22.079 26.6203 21.6431 26.6205 21.1509C26.6205 21.1509 26.6205 12.9342 26.6191 8.82456Z" fill="#9D9E9E"/>
<path d="M13.3513 14.9473L0.311523 22.4553C0.525356 22.8418 0.849907 23.1649 1.28913 23.4191C3.39372 24.6381 10.457 28.6839 11.8672 29.516C12.8157 30.0756 13.7417 30.0956 14.6972 29.544C18.24 27.4984 21.7876 25.4613 25.332 23.4179C25.7713 23.1637 26.0958 22.8404 26.3097 22.4542L13.3513 14.9473Z" fill="#4F4F50"/>
<path d="M9.48828 17.1712C10.2471 18.4959 11.6735 19.3893 13.3098 19.3893C14.9562 19.3893 16.3907 18.4845 17.1456 17.1457L13.3505 14.9473L9.48828 17.1712Z" fill="#4F4F50"/>
<path d="M26.6187 8.82426C26.6185 8.32118 26.5109 7.87664 26.2934 7.49512L13.3506 14.9475L26.309 22.4545C26.5167 22.0787 26.6199 21.6428 26.6201 21.1506C26.6201 21.1506 26.6201 12.9338 26.6187 8.82426Z" fill="#727272"/>
<path d="M25.9065 15.4841H24.8939V16.4969H23.8811V15.4841H22.8686V14.4716H23.8811V13.459H24.8939V14.4716H25.9065V15.4841ZM22.2115 15.4841H21.199V16.4969H20.1864V15.4841H19.1738V14.4716H20.1864V13.459H21.199V14.4716H22.2115V15.4841Z" fill="white"/>
<path d="M17.1459 17.146C16.3909 18.4849 14.9564 19.3897 13.31 19.3897C11.6737 19.3897 10.2473 18.4962 9.4885 17.1716C9.10732 16.5069 8.90714 15.7538 8.90793 14.9876C8.90793 12.5565 10.8789 10.5857 13.31 10.5857C14.9358 10.5857 16.3547 11.468 17.1172 12.7791L20.9648 10.5635C19.4355 7.92353 16.5803 6.14746 13.31 6.14746C8.42756 6.14746 4.46973 10.1054 4.46973 14.9876C4.46973 16.5893 4.89583 18.0914 5.64055 19.387C7.16602 22.0409 10.0294 23.8279 13.31 23.8279C16.5966 23.8279 19.4645 22.0337 20.9878 19.372L17.1459 17.146Z" fill="white"/>
</g>
<defs>
<clipPath id="clip0_1009_566">
<rect width="26.664" height="30" fill="white"/>
</clipPath>
</defs>
</svg>
