<svg width="30" height="30" viewBox="0 0 30 30" fill="none" xmlns="http://www.w3.org/2000/svg">
<path d="M27.2535 12.8024C27.186 12.7487 26.5523 12.2712 25.2185 12.2712C24.8662 12.2724 24.5147 12.3025 24.1673 12.3612C23.9085 10.5899 22.4448 9.72742 22.3798 9.68867L22.021 9.48242L21.7848 9.82242C21.4896 10.2795 21.2741 10.7833 21.1473 11.3124C20.9085 12.3237 21.0535 13.2724 21.5673 14.0849C20.9473 14.4299 19.9523 14.5149 19.751 14.5224H3.28229C3.07562 14.5227 2.87747 14.6048 2.7311 14.7507C2.58473 14.8966 2.50203 15.0945 2.50104 15.3012C2.48196 16.7437 2.72639 18.1776 3.22229 19.5324C3.78979 21.0199 4.63354 22.1162 5.73104 22.7862C6.96104 23.5399 8.96104 23.9699 11.226 23.9699C12.2498 23.9737 13.271 23.8799 14.2773 23.6937C15.6759 23.4363 17.0219 22.9475 18.2598 22.2474C19.2796 21.657 20.1972 20.9056 20.9773 20.0224C22.2823 18.5449 23.0598 16.9012 23.6373 15.4387H23.8673C25.296 15.4387 26.1748 14.8674 26.6585 14.3874C26.981 14.0824 27.2323 13.7099 27.3948 13.2974L27.4998 12.9974L27.2535 12.8024Z" fill="#9D9E9E"/>
<path d="M4.80871 14.039H7.01496C7.06602 14.039 7.11498 14.0187 7.15108 13.9826C7.18718 13.9465 7.20746 13.8976 7.20746 13.8465V11.8815C7.20763 11.8562 7.20281 11.8312 7.19329 11.8078C7.18376 11.7843 7.16972 11.763 7.15196 11.745C7.1342 11.727 7.11308 11.7127 7.08978 11.7029C7.06649 11.6931 7.04149 11.6879 7.01621 11.6878H4.80871C4.75766 11.6878 4.70869 11.7081 4.67259 11.7442C4.63649 11.7803 4.61621 11.8292 4.61621 11.8803V13.8478C4.61621 13.9528 4.70246 14.039 4.80871 14.039ZM7.84996 14.039H10.0562C10.1073 14.039 10.1562 14.0187 10.1923 13.9826C10.2284 13.9465 10.2487 13.8976 10.2487 13.8465V11.8815C10.249 11.8562 10.2443 11.8311 10.2349 11.8076C10.2254 11.7841 10.2114 11.7627 10.1936 11.7447C10.1758 11.7266 10.1546 11.7123 10.1312 11.7026C10.1079 11.6928 10.0828 11.6878 10.0575 11.6878H7.84996C7.82447 11.6876 7.7992 11.6925 7.77562 11.7022C7.75204 11.7119 7.73061 11.7261 7.71259 11.7442C7.69456 11.7622 7.6803 11.7836 7.67062 11.8072C7.66094 11.8308 7.65604 11.856 7.65621 11.8815V13.8478C7.65746 13.9528 7.74371 14.039 7.84996 14.039ZM10.9375 14.039H13.1437C13.1948 14.039 13.2437 14.0187 13.2798 13.9826C13.3159 13.9465 13.3362 13.8976 13.3362 13.8465V11.8815C13.3364 11.8562 13.3316 11.8312 13.322 11.8078C13.3125 11.7843 13.2985 11.763 13.2807 11.745C13.263 11.727 13.2418 11.7127 13.2185 11.7029C13.1952 11.6931 13.1702 11.6879 13.145 11.6878H10.9375C10.8864 11.6878 10.8374 11.7081 10.8013 11.7442C10.7652 11.7803 10.745 11.8292 10.745 11.8803V13.8478C10.745 13.9528 10.8312 14.039 10.9375 14.039ZM13.9875 14.039H16.1937C16.2449 14.039 16.294 14.0188 16.3303 13.9827C16.3666 13.9467 16.3871 13.8977 16.3875 13.8465V11.8815C16.3876 11.856 16.3827 11.8308 16.3731 11.8072C16.3634 11.7836 16.3491 11.7622 16.3311 11.7442C16.3131 11.7261 16.2916 11.7119 16.2681 11.7022C16.2445 11.6925 16.2192 11.6876 16.1937 11.6878H13.9875C13.9364 11.6878 13.8874 11.7081 13.8513 11.7442C13.8152 11.7803 13.795 11.8292 13.795 11.8803V13.8478C13.795 13.9528 13.8812 14.039 13.9875 14.039ZM7.84996 11.2115H10.0562C10.1625 11.2115 10.2487 11.124 10.2487 11.0178V9.05277C10.2487 9.00172 10.2284 8.95276 10.1923 8.91666C10.1562 8.88055 10.1073 8.86027 10.0562 8.86027H7.84996C7.79879 8.86027 7.7497 8.88051 7.7134 8.91658C7.6771 8.95264 7.65654 9.0016 7.65621 9.05277V11.019C7.65746 11.124 7.74371 11.2115 7.84996 11.2115ZM10.9375 11.2115H13.1437C13.25 11.2115 13.3362 11.124 13.3362 11.0178V9.05277C13.3362 9.00172 13.3159 8.95276 13.2798 8.91666C13.2437 8.88055 13.1948 8.86027 13.1437 8.86027H10.9375C10.8864 8.86027 10.8374 8.88055 10.8013 8.91666C10.7652 8.95276 10.745 9.00172 10.745 9.05277V11.019C10.745 11.124 10.8312 11.2115 10.9375 11.2115ZM13.9875 11.2115H16.1937C16.3 11.2115 16.3875 11.124 16.3875 11.0178V9.05277C16.3871 9.0016 16.3666 8.95264 16.3303 8.91658C16.294 8.88051 16.2449 8.86027 16.1937 8.86027H13.9875C13.9364 8.86027 13.8874 8.88055 13.8513 8.91666C13.8152 8.95276 13.795 9.00172 13.795 9.05277V11.019C13.795 11.124 13.8812 11.2115 13.9875 11.2115ZM13.9875 8.38277H16.1937C16.2449 8.38277 16.294 8.36253 16.3303 8.32647C16.3666 8.2904 16.3871 8.24144 16.3875 8.19027V6.22277C16.3871 6.1716 16.3666 6.12264 16.3303 6.08658C16.294 6.05051 16.2449 6.03027 16.1937 6.03027H13.9875C13.9364 6.03027 13.8874 6.05055 13.8513 6.08666C13.8152 6.12276 13.795 6.17172 13.795 6.22277V8.18902C13.795 8.29652 13.8812 8.38277 13.9875 8.38277ZM17.0662 14.039H19.2725C19.3236 14.039 19.3727 14.0188 19.409 13.9827C19.4453 13.9467 19.4659 13.8977 19.4662 13.8465V11.8815C19.4664 11.856 19.4615 11.8308 19.4518 11.8072C19.4421 11.7836 19.4279 11.7622 19.4098 11.7442C19.3918 11.7261 19.3704 11.7119 19.3468 11.7022C19.3232 11.6925 19.298 11.6876 19.2725 11.6878H17.0662C17.0152 11.6878 16.9662 11.7081 16.9301 11.7442C16.894 11.7803 16.8737 11.8292 16.8737 11.8803V13.8478C16.8737 13.873 16.8787 13.898 16.8884 13.9213C16.8981 13.9445 16.9123 13.9657 16.9302 13.9835C16.9481 14.0012 16.9693 14.0153 16.9926 14.0248C17.016 14.0344 17.041 14.0392 17.0662 14.039Z" fill="#9D9E9E"/>
</svg>
