<svg width="30" height="30" viewBox="0 0 30 30" fill="none" xmlns="http://www.w3.org/2000/svg">
<g clip-path="url(#clip0_1009_550)">
<path d="M3.95907 9.45703V20.3933H5.23757V12.487C5.25073 11.9863 5.23035 11.4853 5.17657 10.9873H5.22457C5.3161 11.227 5.43276 11.4563 5.57257 11.6714L11.1942 20.3932H12.7653V9.45703H11.4881V17.1478C11.4765 17.6848 11.5024 18.2219 11.5654 18.7553H11.5362C11.4682 18.6233 11.3199 18.38 11.0921 18.024L5.62057 9.45716L3.95907 9.45703ZM15.6028 9.45703V20.3933H21.4153L21.4213 19.1934H16.9104V15.402H20.8578V14.2502H16.9104V10.6147H21.1459V9.45716L15.6028 9.45703ZM22.3996 9.45703V10.6145H25.5432V20.3933H26.8202V10.6145H30.0001V9.45703H22.3996ZM0.816822 18.8339C0.709301 18.8365 0.603395 18.8607 0.505378 18.9049C0.407362 18.9492 0.319227 19.0127 0.246197 19.0917C0.167481 19.1703 0.105187 19.2639 0.0629349 19.3668C0.0206825 19.4698 -0.000685818 19.5801 7.18705e-05 19.6914C-0.00139602 19.8028 0.0196349 19.9134 0.0619051 20.0164C0.104175 20.1195 0.166815 20.213 0.246072 20.2913C0.323214 20.3725 0.416353 20.4368 0.519605 20.4801C0.622856 20.5235 0.733977 20.5449 0.845947 20.5432C0.957764 20.5439 1.06856 20.5219 1.17166 20.4786C1.27476 20.4353 1.36803 20.3716 1.44582 20.2913C1.52644 20.2137 1.59036 20.1204 1.63367 20.0173C1.67698 19.9141 1.69877 19.8032 1.6977 19.6913C1.69805 19.5795 1.67593 19.4689 1.63266 19.3658C1.58939 19.2628 1.52585 19.1695 1.44582 19.0915C1.36874 19.0099 1.27575 18.9449 1.17258 18.9005C1.0694 18.8562 0.958241 18.8335 0.845947 18.8338C0.836198 18.8336 0.826571 18.8337 0.816822 18.8339Z" fill="#9D9E9E"/>
</g>
<defs>
<clipPath id="clip0_1009_550">
<rect width="30" height="30" fill="white"/>
</clipPath>
</defs>
</svg>
