<svg width="33" height="30" viewBox="0 0 33 30" fill="none" xmlns="http://www.w3.org/2000/svg">
<g clip-path="url(#clip0_1303_1219)">
<path d="M16.2781 30.005L22.2651 11.5791H10.291L16.2781 30.005Z" fill="#626262"/>
<path d="M16.279 30.005L10.2918 11.5791H1.90137L16.279 30.005Z" fill="#9D9E9E"/>
<path d="M1.90052 11.5791L0.0811857 17.1787C0.000292731 17.4276 0.000281572 17.6958 0.0811539 17.9447C0.162026 18.1937 0.31963 18.4106 0.531379 18.5645L16.2781 30.0051L1.90039 11.5792L1.90052 11.5791Z" fill="#C4C4C4"/>
<path d="M1.90137 11.5798H10.2918L6.6861 0.481963C6.50053 -0.0891034 5.69267 -0.0889763 5.50723 0.481963L1.90137 11.5798Z" fill="#626262"/>
<path d="M16.2784 30.005L22.2654 11.5791H30.656L16.2784 30.005Z" fill="#9D9E9E"/>
<path d="M30.6559 11.5791L32.4752 17.1787C32.5561 17.4276 32.5561 17.6958 32.4752 17.9447C32.3943 18.1937 32.2367 18.4106 32.0249 18.5645L16.2783 30.0051L30.6559 11.5792V11.5791Z" fill="#C4C4C4"/>
<path d="M30.6562 11.5798H22.2656L25.8715 0.481963C26.0571 -0.0891034 26.8649 -0.0889763 27.0504 0.481963L30.6562 11.5798Z" fill="#626262"/>
</g>
<defs>
<clipPath id="clip0_1303_1219">
<rect width="32.538" height="30" fill="white"/>
</clipPath>
</defs>
</svg>
