<svg width="30" height="30" viewBox="0 0 30 30" fill="none" xmlns="http://www.w3.org/2000/svg">
<g clip-path="url(#clip0_1009_537)">
<path fill-rule="evenodd" clip-rule="evenodd" d="M0 0H30V30H0V0Z" fill="white"/>
<path fill-rule="evenodd" clip-rule="evenodd" d="M12.5092 15.8332C12.5092 15.8332 11.7926 16.2502 13.0196 16.391C14.5066 16.5608 15.2661 16.5364 16.9042 16.2265C16.9042 16.2265 17.3355 16.4966 17.9375 16.7302C14.2643 18.3041 9.62442 16.6391 12.5092 15.8332ZM12.0601 13.7793C12.0601 13.7793 11.2563 14.3743 12.4844 14.5013C14.0728 14.6653 15.3267 14.6787 17.4976 14.261C17.4976 14.261 17.7974 14.5653 18.2691 14.7315C13.8286 16.0303 8.88312 14.8337 12.0601 13.7793Z" fill="#727272"/>
<path fill-rule="evenodd" clip-rule="evenodd" d="M15.8436 10.2945C16.7491 11.3368 15.6063 12.2742 15.6063 12.2742C15.6063 12.2742 17.9044 11.088 16.8489 9.60218C15.8634 8.21717 15.1074 7.52909 19.1993 5.15625C19.1993 5.15625 12.7761 6.75978 15.8436 10.2945Z" fill="#9D9E9E"/>
<path fill-rule="evenodd" clip-rule="evenodd" d="M20.7012 17.3522C20.7012 17.3522 21.2317 17.7896 20.117 18.1278C17.9974 18.7698 11.2933 18.9634 9.4311 18.1533C8.76217 17.862 10.0172 17.4581 10.4121 17.3728C10.8239 17.2838 11.0589 17.3 11.0589 17.3C10.3145 16.7758 6.24723 18.3295 8.99329 18.7752C16.4813 19.9894 22.6433 18.2286 20.7012 17.3522ZM12.8536 11.6506C12.8536 11.6506 9.44386 12.4607 11.6463 12.7552C12.5765 12.8795 14.4295 12.8509 16.157 12.706C17.5683 12.5876 18.9849 12.3342 18.9849 12.3342C18.9849 12.3342 18.4876 12.5476 18.1273 12.7932C14.6642 13.7041 7.97527 13.2798 9.90112 12.3487C11.5294 11.561 12.8536 11.6506 12.8536 11.6506ZM18.9707 15.0695C22.4908 13.2408 20.8633 11.483 19.727 11.7199C19.4491 11.7779 19.3245 11.8281 19.3245 11.8281C19.3245 11.8281 19.4281 11.6659 19.6252 11.5962C21.8727 10.8063 23.6009 13.9264 18.9005 15.162C18.9004 15.162 18.9545 15.1131 18.9707 15.0695Z" fill="#727272"/>
<path fill-rule="evenodd" clip-rule="evenodd" d="M16.8487 1.32324C16.8487 1.32324 18.7977 3.27353 14.9996 6.27157C11.9536 8.67741 14.3051 10.0487 14.9986 11.6162C13.2203 10.012 11.9159 8.59959 12.7909 7.28539C14.0756 5.35627 17.6351 4.42073 16.8487 1.32324Z" fill="#9D9E9E"/>
<path fill-rule="evenodd" clip-rule="evenodd" d="M13.2004 20.0265C16.5786 20.2425 21.7674 19.9065 21.8905 18.3076C21.8905 18.3076 21.6543 18.9137 19.0982 19.3944C16.2144 19.9373 12.657 19.8741 10.5479 19.5259C10.5479 19.5259 10.9801 19.8836 13.2004 20.0265Z" fill="#727272"/>
<path fill-rule="evenodd" clip-rule="evenodd" d="M21.7337 22.8932H21.631V22.8356H21.9081V22.8932H21.8054V23.1808H21.7337V22.8932ZM22.2868 22.9075H22.2856L22.1835 23.1807H22.1366L22.0351 22.9075H22.0339V23.1807H21.9657V22.8355H22.0658L22.1598 23.0796L22.2538 22.8355H22.353V23.1807H22.287L22.2868 22.9075ZM12.646 26.1343C12.3274 26.4104 11.9906 26.5658 11.6882 26.5658C11.2574 26.5658 11.0237 26.3069 11.0237 25.8928C11.0237 25.4444 11.2739 25.1163 12.2756 25.1163H12.6459L12.646 26.1343ZM13.5254 27.1264V24.0553C13.5254 23.2705 13.0778 22.7525 11.9987 22.7525C11.3692 22.7525 10.8173 22.908 10.3686 23.1061L10.4978 23.6501C10.8512 23.5203 11.3082 23.3999 11.7567 23.3999C12.3783 23.3999 12.6459 23.6501 12.6459 24.1679V24.5562H12.3352C10.8252 24.5562 10.1438 25.142 10.1438 26.0227C10.1438 26.7816 10.5929 27.2131 11.4381 27.2131C11.9814 27.2131 12.3873 26.9888 12.7663 26.6605L12.8353 27.1264H13.5254ZM16.4602 27.1264H15.3638L14.0435 22.8306H15.0013L15.8207 25.4704L16.0031 26.2635C16.4165 25.1163 16.7099 23.9517 16.8566 22.8306H17.788C17.5386 24.2451 17.0895 25.798 16.4602 27.1264ZM20.6682 26.1343C20.3487 26.4104 20.0119 26.5658 19.7101 26.5658C19.2793 26.5658 19.0458 26.3069 19.0458 25.8928C19.0458 25.4444 19.2962 25.1163 20.2973 25.1163H20.6682V26.1343ZM21.5478 27.1264V24.0553C21.5478 23.2705 21.0988 22.7525 20.0209 22.7525C19.3907 22.7525 18.839 22.908 18.3903 23.1061L18.5195 23.6501C18.8729 23.5203 19.3308 23.3999 19.7795 23.3999C20.4002 23.3999 20.668 23.6501 20.668 24.1679V24.5562H20.3574C18.8472 24.5562 18.1663 25.142 18.1663 26.0227C18.1663 26.7816 18.6144 27.2131 19.4598 27.2131C20.0036 27.2131 20.4089 26.9888 20.7888 26.6605L20.8581 27.1264H21.5478ZM9.17967 27.8563C8.92909 28.2225 8.52381 28.5125 8.08071 28.676L7.64648 28.1646C7.98406 27.9914 8.27324 27.7117 8.40786 27.4515C8.52381 27.2196 8.57221 26.9214 8.57221 26.2076V21.3027H9.50682V26.1399C9.50682 27.0946 9.43055 27.4804 9.17967 27.8563Z" fill="#9D9E9E"/>
</g>
<defs>
<clipPath id="clip0_1009_537">
<rect width="30" height="30" fill="white"/>
</clipPath>
</defs>
</svg>
