<svg width="30" height="30" viewBox="0 0 30 30" fill="none" xmlns="http://www.w3.org/2000/svg">
<path d="M1.875 1.875V28.125H28.125V1.875H1.875ZM15.9375 22.2656C15.9375 24.8209 14.4281 26.0666 12.2432 26.0666C10.2697 26.0666 9.12422 25.0447 8.54297 23.8113L10.5516 22.5955C10.9389 23.2828 11.233 23.8641 12.0785 23.8641C12.7816 23.8641 13.3594 23.5471 13.3594 22.3137V14.0625H15.9375V22.2656ZM21.7588 26.008C19.4684 26.008 17.9883 24.9744 17.2658 23.5471L19.2773 22.3828C19.8047 23.2465 20.4932 23.8219 21.709 23.8219C22.7309 23.8219 23.3244 23.3695 23.3244 22.6646C23.3244 21.8191 22.7133 21.5197 21.5854 21.024L20.9689 20.7592C19.1889 20.0021 18.0088 19.0506 18.0088 17.0414C18.0088 15.1916 19.418 13.8404 21.6205 13.8404C23.1891 13.8404 24.3158 14.3279 25.1273 15.7553L23.2031 16.9922C22.7801 16.2346 22.3242 15.9375 21.6176 15.9375C20.8951 15.9375 20.4369 16.3957 20.4369 16.9922C20.4369 17.7322 20.8951 18.0316 21.9521 18.4898L22.5686 18.7541C24.6656 19.6529 25.8463 20.5705 25.8463 22.6307C25.8469 24.8514 24.1025 26.008 21.7588 26.008Z" fill="#626262"/>
</svg>
