<svg width="31" height="30" viewBox="0 0 31 30" fill="none" xmlns="http://www.w3.org/2000/svg">
<g clip-path="url(#clip0_1303_1198)">
<path d="M15.3424 0.430303C15.0769 0.44368 14.8167 0.509518 14.5771 0.623956L4.1346 5.61351C3.86432 5.74259 3.62684 5.9304 3.43979 6.163C3.25274 6.3956 3.12093 6.667 3.05415 6.95706L0.477904 18.1649C0.418414 18.4231 0.411757 18.6905 0.458325 18.9514C0.504893 19.2122 0.60374 19.4611 0.749017 19.6834C0.784243 19.7377 0.822129 19.7903 0.862538 19.841L8.09045 28.8278C8.27754 29.0603 8.51505 29.2481 8.78533 29.3771C9.05561 29.5061 9.35173 29.573 9.65169 29.573L21.2428 29.5703C21.5426 29.5705 21.8387 29.5038 22.109 29.375C22.3792 29.2462 22.6168 29.0587 22.804 28.8264L30.0293 19.8383C30.2165 19.6056 30.3484 19.3341 30.4152 19.0439C30.482 18.7538 30.482 18.4524 30.4152 18.1622L27.835 6.95439C27.7682 6.66433 27.6364 6.39292 27.4493 6.16033C27.2623 5.92773 27.0248 5.73992 26.7545 5.61084L16.3107 0.623956C16.0093 0.480003 15.6764 0.413415 15.3424 0.430303Z" fill="#9D9E9E"/>
<path d="M15.4462 4.24414C15.1011 4.24418 14.8212 4.55509 14.8212 4.93862C14.8212 4.9445 14.8224 4.95013 14.8225 4.95598C14.822 5.00809 14.8195 5.07087 14.8212 5.11624C14.8294 5.33745 14.8777 5.50675 14.9067 5.71056C14.9593 6.14676 15.0033 6.50835 14.9761 6.84443C14.9497 6.97116 14.8563 7.08706 14.7731 7.16762L14.7584 7.43206C14.3833 7.46314 14.0057 7.52004 13.6286 7.60568C12.0057 7.97417 10.6083 8.81014 9.54451 9.93886C9.47548 9.89176 9.35472 9.80513 9.31881 9.77859C9.20721 9.79366 9.09443 9.8281 8.94753 9.74253C8.66782 9.55425 8.41306 9.29435 8.10481 8.98128C7.96356 8.83152 7.86128 8.68891 7.69346 8.54456C7.65535 8.51178 7.59719 8.46744 7.55457 8.43371C7.42337 8.32911 7.26863 8.27456 7.11918 8.26944C6.92704 8.26286 6.74207 8.33798 6.62103 8.4898C6.40584 8.7597 6.47473 9.17223 6.77461 9.41132C6.77766 9.41374 6.7809 9.41563 6.78396 9.418C6.82517 9.4514 6.87563 9.49421 6.91351 9.52217C7.09159 9.65365 7.25426 9.72096 7.4317 9.82534C7.80552 10.0562 8.11542 10.2476 8.36123 10.4784C8.45722 10.5807 8.47399 10.761 8.48677 10.839L8.6871 11.018C7.61468 12.6319 7.11835 14.6254 7.41167 16.6566L7.1499 16.7327C7.08091 16.8218 6.98342 16.962 6.88146 17.0038C6.55985 17.1051 6.19791 17.1423 5.76094 17.1881C5.55579 17.2052 5.37878 17.195 5.16129 17.2362C5.11342 17.2453 5.04672 17.2627 4.99435 17.2749C4.99253 17.2753 4.99083 17.2759 4.98901 17.2763C4.98615 17.2769 4.9824 17.2783 4.97966 17.2789C4.61126 17.368 4.3746 17.7066 4.45078 18.0402C4.52699 18.3739 4.88684 18.5768 5.25745 18.497C5.26012 18.4963 5.26401 18.4962 5.2668 18.4956C5.27098 18.4947 5.27466 18.4926 5.27882 18.4916C5.33048 18.4803 5.39522 18.4677 5.44042 18.4556C5.65424 18.3983 5.80911 18.3142 6.00134 18.2405C6.4149 18.0922 6.75743 17.9683 7.09114 17.92C7.23051 17.9091 7.37735 18.006 7.45039 18.0469L7.72284 18.0001C8.3498 19.9439 9.66371 21.5151 11.3274 22.5009L11.2139 22.7733C11.2548 22.8791 11.3 23.0223 11.2695 23.1267C11.1482 23.4413 10.9404 23.7734 10.7038 24.1436C10.5892 24.3146 10.4719 24.4474 10.3685 24.6431C10.3438 24.6899 10.3123 24.7619 10.2884 24.8114C10.1278 25.1551 10.2456 25.5509 10.5542 25.6995C10.8647 25.849 11.2501 25.6913 11.4169 25.3469C11.4172 25.3464 11.418 25.3461 11.4183 25.3456C11.4184 25.3452 11.4181 25.3446 11.4183 25.3442C11.442 25.2954 11.4757 25.2312 11.4957 25.1853C11.5843 24.9824 11.6137 24.8086 11.676 24.6124C11.8414 24.197 11.9323 23.7611 12.1599 23.4895C12.2223 23.4151 12.3239 23.3865 12.4293 23.3583L12.5708 23.1019C14.0213 23.6586 15.6448 23.808 17.2666 23.4398C17.6365 23.3558 17.9937 23.2471 18.339 23.1166C18.3788 23.1872 18.4527 23.3228 18.4726 23.357C18.5796 23.3918 18.6965 23.4098 18.7917 23.5506C18.9621 23.8416 19.0786 24.1859 19.2205 24.6017C19.2827 24.7979 19.3135 24.9718 19.4021 25.1746C19.4223 25.2209 19.4558 25.286 19.4795 25.3349C19.646 25.6804 20.0327 25.8386 20.3436 25.6888C20.6522 25.5402 20.7701 25.1444 20.6094 24.8007C20.5855 24.7512 20.5527 24.6792 20.5279 24.6324C20.4245 24.4367 20.3073 24.3053 20.1927 24.1343C19.9561 23.7641 19.7598 23.4565 19.6385 23.142C19.5877 22.9797 19.647 22.8788 19.6866 22.7733C19.6629 22.7462 19.6122 22.593 19.5824 22.5209C21.3114 21.5 22.5867 19.8703 23.1857 17.9881C23.2665 18.0008 23.4071 18.0257 23.4528 18.0349C23.5468 17.9729 23.6332 17.892 23.8027 17.9053C24.1364 17.9536 24.4789 18.0775 24.8925 18.2259C25.0847 18.2995 25.2396 18.385 25.4534 18.4422C25.4986 18.4543 25.5633 18.4656 25.615 18.4769C25.6191 18.4779 25.6228 18.48 25.627 18.4809C25.6298 18.4816 25.6337 18.4817 25.6364 18.4823C26.007 18.5621 26.3669 18.3592 26.443 18.0255C26.5191 17.6919 26.2826 17.3532 25.9142 17.2643C25.8606 17.2521 25.7846 17.2314 25.7325 17.2215C25.515 17.1803 25.338 17.1905 25.1329 17.1734C24.6959 17.1277 24.334 17.0904 24.0124 16.9891C23.8812 16.9383 23.7879 16.7822 23.7426 16.718L23.4902 16.6446C23.621 15.6978 23.5857 14.7124 23.3593 13.7264C23.1307 12.7313 22.7267 11.8212 22.188 11.0193C22.2528 10.9604 22.375 10.8522 22.4097 10.8203C22.4198 10.7082 22.4111 10.5906 22.5272 10.4664C22.773 10.2356 23.083 10.0442 23.4568 9.81332C23.6342 9.70893 23.7982 9.64164 23.9763 9.51015C24.0166 9.48042 24.0715 9.43333 24.1138 9.3993C24.4137 9.16013 24.4827 8.74763 24.2674 8.47778C24.0522 8.20794 23.635 8.18252 23.3352 8.42169C23.2926 8.45549 23.2346 8.49958 23.1963 8.53254C23.0285 8.67691 22.9249 8.8195 22.7837 8.96926C22.4754 9.28235 22.2206 9.54355 21.9409 9.73185C21.8197 9.80241 21.6422 9.778 21.5616 9.77325L21.3239 9.94287C19.9683 8.52141 18.1227 7.61261 16.1354 7.43607C16.1298 7.35278 16.1225 7.20224 16.1207 7.15694C16.0393 7.07909 15.941 7.01262 15.9163 6.84443C15.8892 6.50835 15.9346 6.14676 15.9871 5.71056C16.0162 5.50675 16.0644 5.33745 16.0726 5.11624C16.0745 5.06596 16.0715 4.99299 16.0713 4.93862C16.0712 4.55509 15.7914 4.24411 15.4462 4.24414ZM14.6636 9.09213L14.478 12.3709L14.4646 12.3775C14.4522 12.6709 14.2108 12.9051 13.9144 12.9051C13.793 12.9051 13.6809 12.8661 13.5898 12.7996L13.5845 12.8022L10.8961 10.8964C11.7223 10.084 12.7792 9.48353 13.9972 9.20698C14.2197 9.15647 14.4421 9.11899 14.6636 9.09213ZM16.2302 9.09213C17.6522 9.26702 18.9673 9.91092 19.975 10.8978L17.304 12.7916L17.2946 12.7876C17.0575 12.9607 16.7235 12.9177 16.5387 12.6861C16.463 12.5911 16.4233 12.4795 16.4185 12.3669L16.4158 12.3655L16.2302 9.09213ZM9.92113 12.1211L12.3758 14.3167L12.3732 14.3301C12.5947 14.5227 12.6274 14.857 12.4426 15.0887C12.3669 15.1836 12.2656 15.2473 12.1568 15.277L12.1541 15.2877L9.00763 16.1958C8.84748 14.7314 9.19262 13.3079 9.92113 12.1211ZM20.954 12.1225C21.3187 12.7136 21.5949 13.3739 21.7593 14.0897C21.9218 14.7969 21.9625 15.5029 21.8955 16.1851L18.733 15.2743L18.7303 15.261C18.4471 15.1836 18.2731 14.8955 18.339 14.6065C18.366 14.4882 18.4288 14.388 18.514 14.3141L18.5126 14.3074L20.954 12.1225ZM14.9427 14.4863H15.9484L16.5734 15.2676L16.3491 16.2426L15.4462 16.6766L14.5407 16.2412L14.3164 15.2663L14.9427 14.4863ZM18.1667 17.1601C18.2095 17.1579 18.252 17.1618 18.2936 17.1694L18.2989 17.1628L21.5536 17.713C21.0773 19.0512 20.1658 20.2106 18.948 20.9864L17.6846 17.9347L17.6886 17.9294C17.5725 17.6597 17.6887 17.3434 17.9557 17.2148C18.0241 17.1819 18.0955 17.1637 18.1667 17.1601ZM12.7004 17.1734C12.9488 17.1769 13.1715 17.3493 13.2293 17.6021C13.2563 17.7205 13.2431 17.8378 13.1985 17.9414L13.2079 17.9534L11.9578 20.9744C10.7891 20.2244 9.85818 19.1015 9.36021 17.7237L12.5869 17.1761L12.5922 17.1828C12.6283 17.1762 12.6649 17.1729 12.7004 17.1734ZM15.4262 18.497C15.5127 18.4938 15.6005 18.5115 15.684 18.5517C15.7934 18.6044 15.8779 18.6873 15.931 18.7868H15.9431L17.5337 21.6608C17.3272 21.73 17.115 21.7892 16.898 21.8385C15.6815 22.1147 14.4688 22.031 13.3708 21.6568L14.9574 18.7881H14.9601C15.0553 18.6101 15.2359 18.504 15.4262 18.497Z" fill="white" stroke="white" stroke-width="0.25"/>
</g>
<defs>
<clipPath id="clip0_1303_1198">
<rect width="30.8923" height="30" fill="white"/>
</clipPath>
</defs>
</svg>
