<svg width="30" height="30" viewBox="0 0 30 30" fill="none" xmlns="http://www.w3.org/2000/svg">
<path d="M13.7399 0.400274C14.4899 -0.0244137 15.4461 -0.0262887 16.1774 0.400274L27.3749 6.71246C28.0752 7.10621 28.5439 7.88715 28.5374 8.69434V21.3506C28.5421 22.1915 28.0274 22.9893 27.2886 23.3756L16.1511 29.6587C15.7702 29.8692 15.3398 29.9739 14.9048 29.9619C14.4697 29.9498 14.0458 29.8215 13.6771 29.5903L10.3349 27.659C10.1071 27.5231 9.85113 27.4153 9.68988 27.195C9.83238 27.0037 10.0855 26.9793 10.2918 26.895C10.7568 26.7468 11.1824 26.52 11.6099 26.28C11.7177 26.205 11.8499 26.2331 11.953 26.3006L14.803 27.9487C15.0064 28.0659 15.2127 27.9112 15.3871 27.8128L26.323 21.6412C26.458 21.5756 26.533 21.4331 26.5218 21.285V8.75059C26.5368 8.58184 26.4402 8.42809 26.2874 8.35965L15.178 2.10371C15.114 2.05943 15.038 2.03563 14.9602 2.03546C14.8823 2.0353 14.8063 2.05877 14.7421 2.10277L3.64863 8.37184C3.49863 8.44027 3.3955 8.59215 3.41425 8.7609V21.2953C3.40113 21.4434 3.47988 21.5831 3.61581 21.6468L6.58019 23.3203C7.13706 23.6203 7.8205 23.789 8.43363 23.5687C8.70193 23.4676 8.93292 23.2869 9.09562 23.0508C9.25832 22.8147 9.34497 22.5345 9.34394 22.2478L9.34675 9.7884C9.33363 9.60371 9.508 9.4509 9.68707 9.46965H11.1121C11.2996 9.46496 11.4468 9.66371 11.4214 9.84934L11.4186 22.3875C11.4196 23.5012 10.9621 24.7125 9.93175 25.259C8.66238 25.9153 7.093 25.7775 5.83863 25.1465L2.65113 23.384C1.90113 23.009 1.39769 22.199 1.40238 21.359V8.70277C1.40549 8.29142 1.51858 7.8884 1.72991 7.53547C1.94124 7.18254 2.24312 6.89256 2.60425 6.69559L13.7399 0.400274ZM16.9686 9.1734C18.5877 9.07965 20.3211 9.11152 21.778 9.90934C22.9058 10.5206 23.5311 11.8031 23.5518 13.0575C23.5199 13.2262 23.3436 13.32 23.1824 13.3078C22.7136 13.3068 22.243 13.3143 21.7724 13.305C21.5727 13.3125 21.4574 13.1287 21.4321 12.9525C21.2971 12.3525 20.9699 11.759 20.4055 11.4693C19.5393 11.0353 18.5343 11.0568 17.5893 11.0662C16.8993 11.1037 16.1577 11.1628 15.5736 11.5678C15.1236 11.8753 14.9886 12.5053 15.1489 12.9946C15.2989 13.3537 15.7143 13.469 16.0527 13.5759C18.0046 14.0859 20.0718 14.0446 21.9871 14.7075C22.7793 14.9812 23.5546 15.5137 23.8264 16.3434C24.1808 17.4553 24.0261 18.7846 23.2358 19.6771C22.5946 20.4121 21.6608 20.8021 20.728 21.029C19.4877 21.3056 18.2014 21.3121 16.9424 21.1884C15.7583 21.0534 14.5264 20.7421 13.6124 19.9359C12.8305 19.2571 12.4499 18.1996 12.4874 17.1796C12.4968 17.0071 12.6683 16.8871 12.8343 16.9012H14.2405C14.4299 16.8881 14.5686 17.0512 14.578 17.2293C14.6652 17.7918 14.8799 18.4012 15.3786 18.7293C16.3405 19.35 17.5471 19.3068 18.6477 19.3246C19.5599 19.2843 20.5836 19.2721 21.3289 18.6684C21.7227 18.3243 21.838 17.7496 21.7321 17.2546C21.6168 16.8365 21.1696 16.6425 20.7946 16.5046C18.868 15.8953 16.7774 16.1165 14.8696 15.4265C14.0952 15.1528 13.3461 14.6353 13.0489 13.8393C12.6336 12.7143 12.8239 11.3203 13.6986 10.4578C14.5424 9.59996 15.7799 9.26902 16.9518 9.1509L16.9686 9.1734Z" fill="#9D9E9E"/>
</svg>
