<svg width="43" height="30" viewBox="0 0 43 30" fill="none" xmlns="http://www.w3.org/2000/svg">
<path d="M4.1652 9.20651H10.0981C11.8394 9.22026 13.1008 9.71904 13.8833 10.7041C14.6646 11.6879 14.9234 13.0318 14.6584 14.7344C14.5497 15.5293 14.3178 16.3024 13.9708 17.0258C13.632 17.7758 13.1595 18.4508 12.5545 19.0521C11.8169 19.8147 11.0281 20.301 10.1868 20.506C9.33148 20.7134 8.45428 20.817 7.57416 20.8147H4.91775L4.07644 25H1L4.1652 9.20651ZM6.75536 11.7167L5.42528 18.3258C5.51403 18.3396 5.60279 18.3471 5.69154 18.3471H6.00156C7.4179 18.3621 8.59922 18.2221 9.54303 17.9283C10.4881 17.6208 11.1219 16.5482 11.4469 14.7131C11.7119 13.1705 11.4469 12.283 10.6494 12.0479C9.86805 11.8129 8.88674 11.7029 7.70542 11.7167C7.53621 11.7311 7.36647 11.7386 7.19664 11.7392H6.73161L6.75536 11.7167ZM18.1636 5H21.2188L20.355 9.20776H23.1001C24.6052 9.23651 25.7265 9.54529 26.4641 10.1328C27.2166 10.7204 27.4392 11.8354 27.1291 13.4805L25.6453 20.816H22.5463L23.9627 13.8106C24.1102 13.0768 24.0664 12.5555 23.8302 12.248C23.5939 11.9392 23.0851 11.7854 22.3026 11.7854L19.8462 11.7629L18.0311 20.816H14.9759L18.1636 5ZM30.4093 9.20651H36.341C38.0823 9.22026 39.3449 9.71904 40.1262 10.7041C40.9087 11.6879 41.1675 13.0318 40.9012 14.7344C40.7931 15.5292 40.5616 16.3023 40.2149 17.0258C39.8762 17.7758 39.4036 18.4508 38.7986 19.0521C38.0611 19.8147 37.271 20.301 36.4297 20.506C35.5744 20.7134 34.6972 20.817 33.817 20.8147H31.1619L30.3206 25H27.2441L30.4093 9.20651ZM32.9995 11.7167L31.6707 18.3258C31.7594 18.3396 31.8482 18.3471 31.9369 18.3471H32.247C33.6633 18.3621 34.8434 18.2221 35.7884 17.9283C36.7322 17.6208 37.3673 16.5482 37.6923 14.7131C37.9573 13.1705 37.6923 12.283 36.8947 12.0479C36.1134 11.8129 35.1321 11.7029 33.9508 11.7167C33.7816 11.7311 33.6119 11.7387 33.442 11.7392H32.977L32.9995 11.7167Z" fill="#9D9E9E"/>
</svg>
