<svg width="25" height="30" viewBox="0 0 25 30" fill="none" xmlns="http://www.w3.org/2000/svg">
<g clip-path="url(#clip0_1009_558)">
<path d="M11.949 0.690642C10.9517 0.695211 9.99932 0.780284 9.16143 0.928672C6.6928 1.36491 6.24459 2.27765 6.24459 3.96126V6.18468H12.0783V6.92575H4.05511C2.35975 6.92575 0.875007 7.94488 0.410698 9.88349C-0.124977 12.1056 -0.148693 13.4922 0.410698 15.8125C0.825399 17.5396 1.81581 18.7702 3.51117 18.7702H5.51701V16.1049C5.51701 14.1793 7.183 12.4809 9.16143 12.4809H14.9884C16.6104 12.4809 17.9052 11.1454 17.9052 9.51644V3.96104C17.9052 2.38013 16.5714 1.19238 14.9884 0.928454C13.986 0.76179 12.9464 0.685856 11.949 0.690642ZM8.79416 2.47869C9.39685 2.47869 9.88879 2.9789 9.88879 3.59377C9.88879 4.20647 9.39663 4.70211 8.79416 4.70211C8.18951 4.70211 7.69953 4.20669 7.69953 3.59377C7.69953 2.9789 8.18951 2.47869 8.79416 2.47869Z" fill="#626262"/>
<path d="M18.6333 6.92578V9.51625C18.6333 11.5247 16.9305 13.2151 14.9889 13.2151H9.16196C7.56581 13.2151 6.24512 14.581 6.24512 16.1795V21.7345C6.24512 23.3156 7.61977 24.2456 9.16196 24.699C11.0085 25.2421 12.7794 25.3402 14.9889 24.699C16.4575 24.2738 17.9057 23.4179 17.9057 21.7345V19.5113H12.0788V18.7702H20.8226C22.5181 18.7702 23.1498 17.5875 23.7394 15.8125C24.3486 13.9853 24.3227 12.2277 23.7394 9.88352C23.3203 8.19578 22.5201 6.92578 20.8226 6.92578H18.6333ZM15.3559 20.9934C15.9606 20.9934 16.4506 21.4889 16.4506 22.1018C16.4506 22.7167 15.9606 23.2169 15.3559 23.2169C14.7532 23.2169 14.2613 22.7167 14.2613 22.1018C14.2613 21.4891 14.7535 20.9934 15.3559 20.9934Z" fill="#9D9E9E"/>
<path opacity="0.444" d="M19.9619 28.4751C19.9619 29.3123 16.4617 29.9909 12.1439 29.9909C7.82633 29.9909 4.32617 29.3123 4.32617 28.4751C4.32617 27.6378 7.82633 26.959 12.1439 26.959C16.4617 26.959 19.9619 27.6378 19.9619 28.4751Z" fill="url(#paint0_radial_1009_558)"/>
</g>
<defs>
<radialGradient id="paint0_radial_1009_558" cx="0" cy="0" r="1" gradientUnits="userSpaceOnUse" gradientTransform="translate(12.1414 28.4402) rotate(-90) scale(1.51564 6.66337)">
<stop stop-color="#B8B8B8" stop-opacity="0.498"/>
<stop offset="1" stop-color="#7F7F7F" stop-opacity="0"/>
</radialGradient>
<clipPath id="clip0_1009_558">
<rect width="25" height="30" fill="white"/>
</clipPath>
</defs>
</svg>
