<svg width="27" height="30" viewBox="0 0 27 30" fill="none" xmlns="http://www.w3.org/2000/svg">
<g clip-path="url(#clip0_1009_488)">
<path d="M26.3014 15.0031C26.3014 13.259 24.1194 11.6061 20.7741 10.5811C21.5461 7.16805 21.203 4.4526 19.6912 3.58323C19.3427 3.37931 18.9353 3.28271 18.4903 3.28271V4.47944C18.7369 4.47944 18.9353 4.52774 19.1015 4.61897C19.8306 5.03755 20.1469 6.6314 19.9003 8.6814C19.8413 9.18585 19.7448 9.71713 19.6268 10.2591C18.5761 10.0016 17.4288 9.803 16.2226 9.6742C15.4988 8.6814 14.7483 7.77983 13.9924 6.99095C15.7401 5.36491 17.3806 4.47407 18.4957 4.47407V3.27734C17.0214 3.27734 15.0914 4.32918 13.14 6.15378C11.1885 4.33991 9.25855 3.29881 7.78426 3.29881V4.49554C8.894 4.49554 10.5398 5.38101 12.2876 6.99632C11.537 7.7852 10.7865 8.6814 10.0734 9.6742C8.86184 9.803 7.71457 10.0016 6.6638 10.2645C6.5405 9.72786 6.44936 9.20731 6.38502 8.70823C6.13305 6.65823 6.444 5.06439 7.16774 4.64043C7.32857 4.54384 7.53765 4.5009 7.78426 4.5009V3.30418C7.33393 3.30418 6.92649 3.40077 6.57266 3.6047C5.0662 4.47407 4.72846 7.18415 5.50581 10.5865C2.17123 11.6169 0 13.2644 0 15.0031C0 16.7472 2.18195 18.4001 5.52725 19.4251C4.75526 22.8382 5.09837 25.5536 6.61019 26.423C6.95866 26.6269 7.3661 26.7235 7.81643 26.7235C9.29072 26.7235 11.2207 25.6717 13.1721 23.8471C15.1236 25.661 17.0535 26.7021 18.5278 26.7021C18.9782 26.7021 19.3856 26.6055 19.7394 26.4015C21.2459 25.5322 21.5836 22.8221 20.8063 19.4197C24.1301 18.3947 26.3014 16.7419 26.3014 15.0031ZM19.3213 11.4237C19.1229 12.116 18.8763 12.8297 18.5975 13.5434C18.3777 13.1141 18.1472 12.6848 17.8952 12.2555C17.6486 11.8262 17.3859 11.4076 17.1232 10.9997C17.8845 11.1124 18.619 11.2519 19.3213 11.4237ZM16.8659 17.139C16.4477 17.8635 16.0189 18.5504 15.5739 19.189C14.7751 19.2588 13.9656 19.2963 13.1507 19.2963C12.3412 19.2963 11.5316 19.2588 10.7382 19.1944C10.2932 18.5557 9.85899 17.8742 9.44083 17.1551C9.03339 16.4521 8.66348 15.7383 8.32573 15.0192C8.65812 14.3001 9.03339 13.581 9.43547 12.878C9.85363 12.1535 10.2825 11.4666 10.7275 10.828C11.5263 10.7582 12.3358 10.7207 13.1507 10.7207C13.9602 10.7207 14.7697 10.7582 15.5632 10.8226C16.0081 11.4612 16.4424 12.1428 16.8605 12.8619C17.268 13.5649 17.6379 14.2786 17.9756 14.9978C17.6379 15.7169 17.268 16.436 16.8659 17.139ZM18.5975 16.4413C18.887 17.1605 19.1336 17.8796 19.3374 18.5772C18.6351 18.7489 17.8952 18.8938 17.1286 19.0065C17.3913 18.5933 17.654 18.1694 17.9006 17.7347C18.1472 17.3053 18.3777 16.8707 18.5975 16.4413ZM13.1614 22.1674C12.6628 21.6522 12.1642 21.078 11.671 20.4501C12.1535 20.4716 12.6467 20.4877 13.1453 20.4877C13.6493 20.4877 14.1478 20.4769 14.6357 20.4501C14.1532 21.078 13.6546 21.6522 13.1614 22.1674ZM9.17278 19.0065C8.41151 18.8938 7.67704 18.7543 6.97474 18.5826C7.1731 17.8903 7.41971 17.1766 7.69848 16.4628C7.91829 16.8921 8.14881 17.3214 8.40078 17.7508C8.65275 18.1801 8.91008 18.5987 9.17278 19.0065ZM13.1346 7.83886C13.6332 8.35404 14.1318 8.92826 14.625 9.55614C14.1425 9.53467 13.6493 9.51857 13.1507 9.51857C12.6467 9.51857 12.1482 9.5293 11.6603 9.55614C12.1428 8.92826 12.6414 8.35404 13.1346 7.83886ZM9.16742 10.9997C8.90473 11.4129 8.64203 11.8369 8.39542 12.2716C8.14881 12.7009 7.91829 13.1302 7.69848 13.5595C7.40899 12.8404 7.16238 12.1213 6.95866 11.4237C7.66096 11.2573 8.40078 11.1124 9.16742 10.9997ZM4.31566 17.7186C2.41784 16.9082 1.19016 15.8457 1.19016 15.0031C1.19016 14.1606 2.41784 13.0927 4.31566 12.2877C4.77671 12.0891 5.28065 11.912 5.80067 11.7457C6.10625 12.7975 6.50833 13.8923 7.00691 15.0139C6.51369 16.1301 6.11697 17.2195 5.81675 18.266C5.28601 18.0996 4.78207 17.9171 4.31566 17.7186ZM7.19991 25.3873C6.4708 24.9687 6.1545 23.3748 6.40111 21.3248C6.46008 20.8204 6.55658 20.2891 6.67452 19.7471C7.72529 20.0047 8.87256 20.2033 10.0788 20.332C10.8025 21.3248 11.5531 22.2264 12.309 23.0153C10.5613 24.6413 8.92081 25.5322 7.80571 25.5322C7.56446 25.5268 7.36074 25.4785 7.19991 25.3873ZM19.9163 21.298C20.1683 23.348 19.8574 24.9419 19.1336 25.3658C18.9728 25.4624 18.7637 25.5053 18.5171 25.5053C17.4074 25.5053 15.7615 24.6199 14.0138 23.0046C14.7644 22.2157 15.5149 21.3195 16.2279 20.3267C17.4395 20.1979 18.5868 19.9993 19.6376 19.7364C19.7609 20.2784 19.8574 20.7989 19.9163 21.298ZM21.9804 17.7186C21.5193 17.9171 21.0154 18.0942 20.4953 18.2606C20.1898 17.2088 19.7877 16.114 19.2891 14.9924C19.7823 13.8762 20.179 12.7868 20.4793 11.7403C21.01 11.9067 21.5139 12.0891 21.9857 12.2877C23.8835 13.098 25.1112 14.1606 25.1112 15.0031C25.1059 15.8457 23.8782 16.9136 21.9804 17.7186Z" fill="#9D9E9E"/>
<path d="M13.1453 17.4558C14.4984 17.4558 15.5953 16.3577 15.5953 15.0033C15.5953 13.6488 14.4984 12.5508 13.1453 12.5508C11.7922 12.5508 10.6953 13.6488 10.6953 15.0033C10.6953 16.3577 11.7922 17.4558 13.1453 17.4558Z" fill="#9D9E9E"/>
</g>
<defs>
<clipPath id="clip0_1009_488">
<rect width="26.3014" height="30" fill="white"/>
</clipPath>
</defs>
</svg>
