<svg width="31" height="30" viewBox="0 0 31 30" fill="none" xmlns="http://www.w3.org/2000/svg">
<path d="M23.2313 19.7366L6.11133 29.9025L28.2786 28.3981L29.9858 6.0459L23.2312 19.7365L23.2313 19.7366Z" fill="#626262"/>
<path d="M28.3148 28.3836L26.4095 15.2334L21.2197 22.0863L28.3148 28.3836Z" fill="#727272"/>
<path d="M28.3408 28.3828L14.3825 27.2871L6.18555 29.8737L28.3408 28.3828Z" fill="url(#paint0_linear_1009_583)"/>
<path d="M6.20491 29.8767L9.69197 18.4531L2.01855 20.0937L6.20479 29.8765L6.20491 29.8767Z" fill="url(#paint1_linear_1009_583)"/>
<path d="M21.2187 22.1232L18.0101 9.55566L8.82812 18.1627L21.2187 22.1234V22.1232Z" fill="url(#paint2_linear_1009_583)"/>
<path d="M29.2577 9.7325L20.5781 2.64355L18.1611 10.4574L29.2577 9.7325Z" fill="url(#paint3_linear_1009_583)"/>
<path d="M25.1986 0.116866L20.0938 2.93804L16.873 0.0791016L25.1986 0.116866Z" fill="#C4C4C4"/>
<path d="M0 23.9264L2.13847 20.0262L0.408588 15.3799L0 23.9264Z" fill="url(#paint4_linear_1009_583)"/>
<path d="M0.293945 15.2329L2.03442 20.1698L9.59712 18.4731L18.2312 10.4487L20.6679 2.70906L16.8312 0L10.3083 2.44118C8.25312 4.35271 4.26524 8.13482 4.12147 8.20588C3.97912 8.27859 1.48806 12.9869 0.293945 15.2329Z" fill="white"/>
<path d="M6.40479 6.3637C10.8589 1.94747 16.6009 -0.661708 18.8044 1.56159C21.0068 3.78488 18.6713 9.18782 14.2171 13.6026C9.76302 18.0174 4.0922 20.7703 1.89008 18.547C-0.313446 16.3252 1.95067 10.7785 6.40479 6.3637Z" fill="#727272"/>
<path d="M6.20508 29.872L9.66484 18.4121L21.1548 22.1034C17.0005 25.999 12.3799 29.2923 6.20508 29.872Z" fill="#727272"/>
<path d="M18.2461 10.4265L21.1959 22.1104C24.6662 18.4615 27.7808 14.5386 29.3062 9.68652L18.2462 10.4265H18.2461Z" fill="#626262"/>
<path d="M29.276 9.74552C30.4566 6.18293 30.729 1.07199 25.1624 0.123047L20.5947 2.64599L29.276 9.74552Z" fill="url(#paint5_linear_1009_583)"/>
<path d="M0 23.8747C0.163529 29.7546 4.40565 29.8422 6.21271 29.8937L2.03859 20.1455L0 23.8747Z" fill="#727272"/>
<path d="M18.2627 10.4439C20.9294 12.083 26.3039 15.3748 26.4128 15.4352C26.5822 15.5305 28.7299 11.8136 29.2173 9.71289L18.2627 10.4439Z" fill="#4F4F4F"/>
<path d="M9.66016 18.4121L14.2852 27.3354C17.02 25.8522 19.1617 24.0452 21.123 22.1095L9.66016 18.4121Z" fill="#595656"/>
<path d="M2.02053 20.1572L1.36523 27.9605C2.6017 29.6496 4.30288 29.7964 6.08712 29.6648C4.79618 26.4517 2.21723 20.0271 2.02053 20.1572Z" fill="#626262"/>
<path d="M20.5674 2.6648L29.7556 3.95421C29.2651 1.87633 27.7593 0.535387 25.1924 0.116211L20.5674 2.6648Z" fill="#626262"/>
<defs>
<linearGradient id="paint0_linear_1009_583" x1="1684.98" y1="594.596" x2="1673.54" y2="31.2114" gradientUnits="userSpaceOnUse">
<stop stop-color="#2E2E2E"/>
<stop offset="0.99" stop-color="#626262"/>
<stop offset="1" stop-color="#626262"/>
</linearGradient>
<linearGradient id="paint1_linear_1009_583" x1="385.781" y1="101.091" x2="649.878" y2="875.491" gradientUnits="userSpaceOnUse">
<stop stop-color="white"/>
<stop offset="0.23" stop-color="#E57252"/>
<stop offset="0.46" stop-color="#DE3B20"/>
<stop offset="0.99" stop-color="#A60003"/>
<stop offset="1" stop-color="#A60003"/>
</linearGradient>
<linearGradient id="paint2_linear_1009_583" x1="580.951" y1="215.013" x2="628.852" y2="1053.19" gradientUnits="userSpaceOnUse">
<stop stop-color="white"/>
<stop offset="0.23" stop-color="#E4714E"/>
<stop offset="0.56" stop-color="#BE1A0D"/>
<stop offset="0.99" stop-color="#A80D00"/>
<stop offset="1" stop-color="#A80D00"/>
</linearGradient>
<linearGradient id="paint3_linear_1009_583" x1="428.346" y1="124.493" x2="498.39" y2="733.237" gradientUnits="userSpaceOnUse">
<stop stop-color="white"/>
<stop offset="0.18" stop-color="#E46342"/>
<stop offset="0.4" stop-color="#C82410"/>
<stop offset="0.99" stop-color="#A80D00"/>
<stop offset="1" stop-color="#A80D00"/>
</linearGradient>
<linearGradient id="paint4_linear_1009_583" x1="59.0731" y1="196.01" x2="317.334" y2="357.894" gradientUnits="userSpaceOnUse">
<stop stop-color="white"/>
<stop offset="0.31" stop-color="#DE4024"/>
<stop offset="0.99" stop-color="#BF190B"/>
<stop offset="1" stop-color="#BF190B"/>
</linearGradient>
<linearGradient id="paint5_linear_1009_583" x1="891.506" y1="713.36" x2="573.359" y2="390.398" gradientUnits="userSpaceOnUse">
<stop stop-color="#272727"/>
<stop offset="0.99" stop-color="#727272"/>
<stop offset="1" stop-color="#727272"/>
</linearGradient>
</defs>
</svg>
