<svg width="30" height="30" viewBox="0 0 30 30" fill="none" xmlns="http://www.w3.org/2000/svg">
<g clip-path="url(#clip0_1009_577)">
<path d="M19.0312 14.9672L24.2671 5.9261L26.7971 14.9672L24.267 24.0061L19.0312 14.9672ZM16.4793 16.4354L21.7159 25.475L12.596 23.1386L6.00753 16.4354H16.4793ZM21.7148 4.45672L16.4793 13.4978H6.00753L12.596 6.79411L21.7148 4.45672ZM29.1893 11.8903L25.995 0.00683594L14.0726 3.1916L12.3077 6.29447L8.72652 6.26881L0 14.968L8.72652 23.6651H8.72687L12.3066 23.6386L14.074 26.7415L25.995 29.9257L29.1892 18.0445L27.3751 14.9673L29.1892 11.8905L29.1893 11.8903Z" fill="#727272"/>
</g>
<defs>
<clipPath id="clip0_1009_577">
<rect width="29.196" height="30" fill="white"/>
</clipPath>
</defs>
</svg>
