<svg width="30" height="30" viewBox="0 0 30 30" fill="none" xmlns="http://www.w3.org/2000/svg">
<g clip-path="url(#clip0_1303_1254)">
<path d="M0.000976562 15C0.000976562 20.9352 3.45145 26.0696 8.45546 28.4961L1.30044 8.89427C0.466917 10.761 0.000976562 12.8239 0.000976562 15ZM25.1272 14.2424C25.1272 12.3887 24.4596 11.1033 23.8896 10.1056C23.1301 8.86976 22.4184 7.82438 22.4184 6.58764C22.4184 5.20835 23.461 3.92578 24.9388 3.92578L25.131 3.93886C22.4625 1.49453 18.9071 0 15.0028 0C9.85153 0 5.30975 2.5981 2.6103 6.55303C3.73736 6.57456 7.43346 6.58774 7.43346 6.58774C8.2398 6.54273 8.33548 7.72787 7.52719 7.82541C7.52719 7.82541 6.71612 7.92006 5.81133 7.96795L11.2748 24.2141L14.5574 14.37L12.2189 7.96795C11.4117 7.91923 10.6465 7.82541 10.6465 7.82541C9.83732 7.77669 9.933 6.54273 10.7431 6.58774H18.6922C19.4977 6.54273 19.5943 7.72787 18.786 7.82541C18.786 7.82541 17.9749 7.92006 17.0701 7.96795L22.4914 24.0893L23.9889 19.0937C24.7457 17.1425 25.1272 15.527 25.1272 14.2424ZM15.2654 16.3126L10.7629 29.3906C12.1066 29.7863 13.5261 30 15.0019 30C16.7468 30 18.4232 29.6981 19.9825 29.1487L19.8766 28.9433L15.2654 16.3126ZM28.1623 7.80192C28.228 8.28197 28.2654 8.79395 28.2654 9.34713C28.2654 10.8679 27.9794 12.5781 27.1225 14.7187L22.5422 27.9635C27.0006 25.3654 29.9982 20.5338 29.9982 15C29.9991 12.3916 29.3334 9.93975 28.1623 7.80192Z" fill="#9D9E9E"/>
</g>
<defs>
<clipPath id="clip0_1303_1254">
<rect width="30" height="30" fill="white"/>
</clipPath>
</defs>
</svg>
