<svg width="90" height="48" viewBox="0 0 90 48" fill="none" xmlns="http://www.w3.org/2000/svg">
<path d="M30.78 4.7H34.092V21.5H31.572L24.372 11.228V21.5H21.06V4.7H23.58L30.78 14.948V4.7ZM44.8404 4.7C47.1444 4.7 49.0644 5.508 50.6004 7.124C52.1524 8.74 52.9284 10.732 52.9284 13.1C52.9284 15.468 52.1524 17.46 50.6004 19.076C49.0644 20.692 47.1444 21.5 44.8404 21.5H38.1684V4.7H44.8404ZM44.8404 18.332C46.2964 18.332 47.4804 17.852 48.3924 16.892C49.3044 15.916 49.7604 14.652 49.7604 13.1C49.7604 11.548 49.3044 10.292 48.3924 9.332C47.4804 8.356 46.2964 7.868 44.8404 7.868H41.4804V18.332H44.8404ZM66.4284 21.5L65.4204 18.476H58.7244L57.7164 21.5H54.1404L60.0204 4.7H64.1244L70.0284 21.5H66.4284ZM59.7804 15.38H64.3884L62.0844 8.516L59.7804 15.38Z" fill="white"/>
<path d="M2.58789 39.0713C2.19401 39.0713 1.86686 39.208 1.60645 39.4814C1.34928 39.7516 1.20768 40.0999 1.18164 40.5264H3.94043C3.93066 40.0967 3.80208 39.7467 3.55469 39.4766C3.30729 39.2064 2.98503 39.0713 2.58789 39.0713ZM3.9209 42.0449H4.75586C4.68099 42.4941 4.44661 42.8636 4.05273 43.1533C3.66211 43.443 3.19173 43.5879 2.6416 43.5879C1.91569 43.5879 1.3444 43.3535 0.927734 42.8848C0.511068 42.416 0.302734 41.7812 0.302734 40.9805C0.302734 40.1862 0.511068 39.5465 0.927734 39.0615C1.34766 38.5765 1.90592 38.334 2.60254 38.334C3.28613 38.334 3.8265 38.5635 4.22363 39.0225C4.62077 39.4814 4.81934 40.0967 4.81934 40.8682V41.1904H1.17676V41.2393C1.17676 41.7275 1.31022 42.1182 1.57715 42.4111C1.84408 42.7041 2.2054 42.8506 2.66113 42.8506C2.98014 42.8506 3.25195 42.7773 3.47656 42.6309C3.70117 42.4844 3.84928 42.2891 3.9209 42.0449ZM8.71094 43.6172C7.73763 43.6172 6.96452 43.29 6.3916 42.6357C5.82194 41.9782 5.53711 41.0911 5.53711 39.9746C5.53711 38.8678 5.8252 37.9857 6.40137 37.3281C6.97754 36.6673 7.7474 36.3369 8.71094 36.3369C9.47917 36.3369 10.1302 36.5518 10.6641 36.9814C11.2012 37.4079 11.5251 37.9727 11.6357 38.6758H10.7471C10.6331 38.2135 10.3906 37.8441 10.0195 37.5674C9.64844 37.2874 9.21224 37.1475 8.71094 37.1475C8.02409 37.1475 7.47396 37.4046 7.06055 37.9189C6.64714 38.4333 6.44043 39.1185 6.44043 39.9746C6.44043 40.8405 6.64551 41.529 7.05566 42.04C7.46582 42.5511 8.01921 42.8066 8.71582 42.8066C9.2334 42.8066 9.6696 42.6878 10.0244 42.4502C10.3792 42.2126 10.6201 41.8789 10.7471 41.4492H11.6357C11.473 42.1458 11.1393 42.6813 10.6348 43.0557C10.1302 43.43 9.48893 43.6172 8.71094 43.6172ZM14.6484 43.5879C13.9388 43.5879 13.3691 43.3519 12.9395 42.8799C12.5098 42.4046 12.2949 41.765 12.2949 40.9609C12.2949 40.1569 12.5098 39.5189 12.9395 39.0469C13.3691 38.5716 13.9388 38.334 14.6484 38.334C15.3548 38.334 15.9229 38.5716 16.3525 39.0469C16.7822 39.5189 16.9971 40.1569 16.9971 40.9609C16.9971 41.7617 16.7822 42.3997 16.3525 42.875C15.9229 43.3503 15.3548 43.5879 14.6484 43.5879ZM13.5596 42.3428C13.8298 42.6748 14.1927 42.8408 14.6484 42.8408C15.1042 42.8408 15.4655 42.6764 15.7324 42.3477C15.9993 42.0156 16.1328 41.5534 16.1328 40.9609C16.1328 40.3685 15.9993 39.9079 15.7324 39.5791C15.4655 39.2471 15.1042 39.0811 14.6484 39.0811C14.1927 39.0811 13.8298 39.2471 13.5596 39.5791C13.2926 39.9111 13.1592 40.3717 13.1592 40.9609C13.1592 41.5501 13.2926 42.0107 13.5596 42.3428ZM17.8564 43.5V38.4219H18.6572V39.2324H18.6768C18.8005 38.9557 18.9876 38.7376 19.2383 38.5781C19.4889 38.4154 19.7819 38.334 20.1172 38.334C20.4622 38.334 20.7585 38.4186 21.0059 38.5879C21.2533 38.7539 21.4323 38.9915 21.543 39.3008H21.5625C21.7025 38.998 21.9124 38.762 22.1924 38.5928C22.4756 38.4202 22.7962 38.334 23.1543 38.334C23.6556 38.334 24.056 38.4854 24.3555 38.7881C24.6582 39.0876 24.8096 39.4896 24.8096 39.9941V43.5H23.96V40.1895C23.96 39.8411 23.8672 39.571 23.6816 39.3789C23.4993 39.1836 23.2406 39.0859 22.9053 39.0859C22.57 39.0859 22.2949 39.1982 22.0801 39.4229C21.8652 39.6442 21.7578 39.9274 21.7578 40.2725V43.5H20.9082V40.0967C20.9082 39.7907 20.8138 39.5465 20.625 39.3643C20.4362 39.1787 20.1839 39.0859 19.8682 39.0859C19.5329 39.0859 19.2546 39.2031 19.0332 39.4375C18.8151 39.6719 18.7061 39.9648 18.7061 40.3164V43.5H17.8564ZM25.8936 43.5V38.4219H26.6943V39.2324H26.7139C26.8376 38.9557 27.0247 38.7376 27.2754 38.5781C27.526 38.4154 27.819 38.334 28.1543 38.334C28.4993 38.334 28.7956 38.4186 29.043 38.5879C29.2904 38.7539 29.4694 38.9915 29.5801 39.3008H29.5996C29.7396 38.998 29.9495 38.762 30.2295 38.5928C30.5127 38.4202 30.8333 38.334 31.1914 38.334C31.6927 38.334 32.0931 38.4854 32.3926 38.7881C32.6953 39.0876 32.8467 39.4896 32.8467 39.9941V43.5H31.9971V40.1895C31.9971 39.8411 31.9043 39.571 31.7188 39.3789C31.5365 39.1836 31.2777 39.0859 30.9424 39.0859C30.6071 39.0859 30.332 39.1982 30.1172 39.4229C29.9023 39.6442 29.7949 39.9274 29.7949 40.2725V43.5H28.9453V40.0967C28.9453 39.7907 28.8509 39.5465 28.6621 39.3643C28.4733 39.1787 28.221 39.0859 27.9053 39.0859C27.57 39.0859 27.2917 39.2031 27.0703 39.4375C26.8522 39.6719 26.7432 39.9648 26.7432 40.3164V43.5H25.8936ZM35.9668 39.0713C35.5729 39.0713 35.2458 39.208 34.9854 39.4814C34.7282 39.7516 34.5866 40.0999 34.5605 40.5264H37.3193C37.3096 40.0967 37.181 39.7467 36.9336 39.4766C36.6862 39.2064 36.3639 39.0713 35.9668 39.0713ZM37.2998 42.0449H38.1348C38.0599 42.4941 37.8255 42.8636 37.4316 43.1533C37.041 43.443 36.5706 43.5879 36.0205 43.5879C35.2946 43.5879 34.7233 43.3535 34.3066 42.8848C33.89 42.416 33.6816 41.7812 33.6816 40.9805C33.6816 40.1862 33.89 39.5465 34.3066 39.0615C34.7266 38.5765 35.2848 38.334 35.9814 38.334C36.665 38.334 37.2054 38.5635 37.6025 39.0225C37.9997 39.4814 38.1982 40.0967 38.1982 40.8682V41.1904H34.5557V41.2393C34.5557 41.7275 34.6891 42.1182 34.9561 42.4111C35.223 42.7041 35.5843 42.8506 36.04 42.8506C36.359 42.8506 36.6309 42.7773 36.8555 42.6309C37.0801 42.4844 37.2282 42.2891 37.2998 42.0449ZM39.0576 43.5V38.4219H39.8584V39.252H39.8779C39.9626 38.9688 40.1139 38.7458 40.332 38.583C40.5534 38.417 40.8122 38.334 41.1084 38.334C41.1768 38.334 41.2907 38.3454 41.4502 38.3682V39.1934C41.359 39.1608 41.2077 39.1445 40.9961 39.1445C40.6673 39.1445 40.4036 39.2536 40.2051 39.4717C40.0065 39.6898 39.9072 39.9779 39.9072 40.3359V43.5H39.0576ZM46.1182 40.0869H45.2881C45.223 39.7939 45.0781 39.5531 44.8535 39.3643C44.6322 39.1755 44.3441 39.0811 43.9893 39.0811C43.5465 39.0811 43.1901 39.252 42.9199 39.5938C42.6497 39.9323 42.5146 40.388 42.5146 40.9609C42.5146 41.5436 42.6497 42.0026 42.9199 42.3379C43.1934 42.6732 43.5531 42.8408 43.999 42.8408C44.3408 42.8408 44.6224 42.7562 44.8438 42.5869C45.0684 42.4144 45.2181 42.1735 45.293 41.8643H46.1279C46.0628 42.3721 45.8333 42.7871 45.4395 43.1094C45.0488 43.4284 44.5671 43.5879 43.9941 43.5879C43.2845 43.5879 42.7165 43.3535 42.29 42.8848C41.8636 42.4128 41.6504 41.7715 41.6504 40.9609C41.6504 40.1634 41.8636 39.527 42.29 39.0518C42.7165 38.5732 43.2812 38.334 43.9844 38.334C44.5898 38.334 45.0814 38.5049 45.459 38.8467C45.8398 39.1885 46.0596 39.6019 46.1182 40.0869ZM48.9453 39.0713C48.5514 39.0713 48.2243 39.208 47.9639 39.4814C47.7067 39.7516 47.5651 40.0999 47.5391 40.5264H50.2979C50.2881 40.0967 50.1595 39.7467 49.9121 39.4766C49.6647 39.2064 49.3424 39.0713 48.9453 39.0713ZM50.2783 42.0449H51.1133C51.0384 42.4941 50.804 42.8636 50.4102 43.1533C50.0195 43.443 49.5492 43.5879 48.999 43.5879C48.2731 43.5879 47.7018 43.3535 47.2852 42.8848C46.8685 42.416 46.6602 41.7812 46.6602 40.9805C46.6602 40.1862 46.8685 39.5465 47.2852 39.0615C47.7051 38.5765 48.2633 38.334 48.96 38.334C49.6436 38.334 50.1839 38.5635 50.5811 39.0225C50.9782 39.4814 51.1768 40.0967 51.1768 40.8682V41.1904H47.5342V41.2393C47.5342 41.7275 47.6676 42.1182 47.9346 42.4111C48.2015 42.7041 48.5628 42.8506 49.0186 42.8506C49.3376 42.8506 49.6094 42.7773 49.834 42.6309C50.0586 42.4844 50.2067 42.2891 50.2783 42.0449ZM57.4268 43.5V39.1201H54.9707V43.5H54.1309V38.4219H58.2715V43.5H57.4268ZM61.9336 38.334C62.5846 38.334 63.1087 38.5732 63.5059 39.0518C63.9062 39.5303 64.1064 40.1667 64.1064 40.9609C64.1064 41.752 63.9079 42.3883 63.5107 42.8701C63.1136 43.3486 62.5944 43.5879 61.9531 43.5879C61.5951 43.5879 61.2744 43.5065 60.9912 43.3438C60.708 43.181 60.4899 42.958 60.3369 42.6748H60.3174V45.1943H59.4678V38.4219H60.2734V39.2812H60.293C60.4525 38.9883 60.6755 38.7572 60.9619 38.5879C61.2484 38.4186 61.5723 38.334 61.9336 38.334ZM61.7676 42.8408C62.2201 42.8408 62.5781 42.6715 62.8418 42.333C63.1055 41.9945 63.2373 41.5371 63.2373 40.9609C63.2373 40.3848 63.1055 39.9274 62.8418 39.5889C62.5781 39.2503 62.2201 39.0811 61.7676 39.0811C61.3314 39.0811 60.9798 39.2536 60.7129 39.5986C60.446 39.9437 60.3125 40.3978 60.3125 40.9609C60.3125 41.5273 60.446 41.9831 60.7129 42.3281C60.9798 42.6699 61.3314 42.8408 61.7676 42.8408ZM67.1582 43.5879C66.4486 43.5879 65.8789 43.3519 65.4492 42.8799C65.0195 42.4046 64.8047 41.765 64.8047 40.9609C64.8047 40.1569 65.0195 39.5189 65.4492 39.0469C65.8789 38.5716 66.4486 38.334 67.1582 38.334C67.8646 38.334 68.4326 38.5716 68.8623 39.0469C69.292 39.5189 69.5068 40.1569 69.5068 40.9609C69.5068 41.7617 69.292 42.3997 68.8623 42.875C68.4326 43.3503 67.8646 43.5879 67.1582 43.5879ZM66.0693 42.3428C66.3395 42.6748 66.7025 42.8408 67.1582 42.8408C67.6139 42.8408 67.9753 42.6764 68.2422 42.3477C68.5091 42.0156 68.6426 41.5534 68.6426 40.9609C68.6426 40.3685 68.5091 39.9079 68.2422 39.5791C67.9753 39.2471 67.6139 39.0811 67.1582 39.0811C66.7025 39.0811 66.3395 39.2471 66.0693 39.5791C65.8024 39.9111 65.6689 40.3717 65.6689 40.9609C65.6689 41.5501 65.8024 42.0107 66.0693 42.3428ZM73.7207 42.8018V39.1201H71.8164L71.6602 41.2588C71.6113 41.9554 71.473 42.4567 71.2451 42.7627V42.8018H73.7207ZM70.6396 44.8428H69.8486V42.8018H70.2734C70.6152 42.5771 70.8154 42.0563 70.874 41.2393L71.0693 38.4219H74.5654V42.8018H75.3711V44.8428H74.5801V43.5H70.6396V44.8428ZM76.46 45.3994C76.307 45.3994 76.1849 45.3896 76.0938 45.3701V44.6572C76.1719 44.6735 76.2826 44.6816 76.4258 44.6816C76.6634 44.6816 76.8538 44.6182 76.9971 44.4912C77.1403 44.3675 77.2607 44.1576 77.3584 43.8613L77.4756 43.5049L75.6006 38.4219H76.5088L77.915 42.6504H77.9297L79.3359 38.4219H80.2295L78.2324 43.8564C78.0143 44.4489 77.7783 44.8542 77.5244 45.0723C77.2738 45.2904 76.9189 45.3994 76.46 45.3994ZM82.71 40.8242L85.1514 43.5H84.0576L81.8652 41.0586H81.8262V43.5H80.9863V38.4219H81.8262V40.668H81.8652L84.0332 38.4219H85.083L82.71 40.8242ZM89.4775 38.4219V39.1201H87.8369V43.5H86.9971V39.1201H85.3564V38.4219H89.4775Z" fill="white"/>
</svg>
