<svg width="98" height="48" viewBox="0 0 98 48" fill="none" xmlns="http://www.w3.org/2000/svg">
<path d="M5.564 21.5L0.86 4.7H4.34L7.556 17.156L11.06 4.7H13.892L17.42 17.156L20.636 4.7H24.116L19.412 21.5H15.644L12.476 10.412L9.332 21.5H5.564ZM30.3086 18.332H37.3886V21.5H26.9966V4.7H37.2686V7.868H30.3086V11.444H36.6686V14.564H30.3086V18.332ZM50.8351 12.788C52.3071 13.636 53.0431 14.916 53.0431 16.628C53.0431 18.052 52.5391 19.22 51.5311 20.132C50.5231 21.044 49.2831 21.5 47.8111 21.5H40.6831V4.7H47.3071C48.7471 4.7 49.9551 5.148 50.9311 6.044C51.9231 6.924 52.4191 8.052 52.4191 9.428C52.4191 10.82 51.8911 11.94 50.8351 12.788ZM47.3071 7.796H43.9951V11.492H47.3071C47.8191 11.492 48.2431 11.316 48.5791 10.964C48.9311 10.612 49.1071 10.172 49.1071 9.644C49.1071 9.116 48.9391 8.676 48.6031 8.324C48.2671 7.972 47.8351 7.796 47.3071 7.796ZM47.8111 18.404C48.3711 18.404 48.8351 18.22 49.2031 17.852C49.5711 17.468 49.7551 16.988 49.7551 16.412C49.7551 15.852 49.5711 15.388 49.2031 15.02C48.8351 14.636 48.3711 14.444 47.8111 14.444H43.9951V18.404H47.8111ZM70.0464 11.516C71.1824 11.852 72.1024 12.444 72.8064 13.292C73.5264 14.124 73.8864 15.132 73.8864 16.316C73.8864 18.044 73.3024 19.396 72.1344 20.372C70.9824 21.348 69.5664 21.836 67.8864 21.836C66.5744 21.836 65.3984 21.54 64.3584 20.948C63.3344 20.34 62.5904 19.452 62.1264 18.284L64.9584 16.652C65.3744 17.948 66.3504 18.596 67.8864 18.596C68.7344 18.596 69.3904 18.396 69.8544 17.996C70.3344 17.58 70.5744 17.02 70.5744 16.316C70.5744 15.628 70.3344 15.076 69.8544 14.66C69.3904 14.244 68.7344 14.036 67.8864 14.036H67.1664L65.8944 12.116L69.2064 7.796H62.6304V4.7H73.1904V7.436L70.0464 11.516ZM79.7998 21.212C79.3998 21.612 78.9198 21.812 78.3598 21.812C77.7998 21.812 77.3198 21.612 76.9198 21.212C76.5198 20.812 76.3198 20.332 76.3198 19.772C76.3198 19.212 76.5198 18.732 76.9198 18.332C77.3198 17.932 77.7998 17.732 78.3598 17.732C78.9198 17.732 79.3998 17.932 79.7998 18.332C80.1998 18.732 80.3998 19.212 80.3998 19.772C80.3998 20.332 80.1998 20.812 79.7998 21.212ZM89.3591 21.836C87.2631 21.836 85.6151 21.044 84.4151 19.46C83.2311 17.86 82.6391 15.74 82.6391 13.1C82.6391 10.46 83.2311 8.348 84.4151 6.764C85.6151 5.164 87.2631 4.364 89.3591 4.364C91.4711 4.364 93.1191 5.164 94.3031 6.764C95.4871 8.348 96.0791 10.46 96.0791 13.1C96.0791 15.74 95.4871 17.86 94.3031 19.46C93.1191 21.044 91.4711 21.836 89.3591 21.836ZM86.8151 17.204C87.3911 18.132 88.2391 18.596 89.3591 18.596C90.4791 18.596 91.3271 18.124 91.9031 17.18C92.4951 16.236 92.7911 14.876 92.7911 13.1C92.7911 11.308 92.4951 9.94 91.9031 8.996C91.3271 8.052 90.4791 7.58 89.3591 7.58C88.2391 7.58 87.3911 8.052 86.8151 8.996C86.2391 9.94 85.9511 11.308 85.9511 13.1C85.9511 14.892 86.2391 16.26 86.8151 17.204Z" fill="white"/>
<path d="M16.8447 43.5H14.1836V36.4541H16.8545C17.4567 36.4541 17.9434 36.6152 18.3145 36.9375C18.6888 37.2598 18.876 37.6846 18.876 38.2119C18.876 38.5798 18.7572 38.9134 18.5195 39.2129C18.2852 39.5091 17.9987 39.6882 17.6602 39.75V39.7891C18.1387 39.8509 18.5195 40.0381 18.8027 40.3506C19.0892 40.6631 19.2324 41.0537 19.2324 41.5225C19.2324 42.1442 19.0208 42.6292 18.5977 42.9775C18.1777 43.3258 17.5934 43.5 16.8447 43.5ZM15.0625 37.2305V39.4912H16.3809C16.9017 39.4912 17.2988 39.3903 17.5723 39.1885C17.849 38.9867 17.9873 38.6953 17.9873 38.3145C17.9873 37.9661 17.8717 37.6992 17.6406 37.5137C17.4095 37.3249 17.0807 37.2305 16.6543 37.2305H15.0625ZM15.0625 42.7236H16.7129C17.2435 42.7236 17.6455 42.6178 17.9189 42.4062C18.1924 42.1947 18.3291 41.8854 18.3291 41.4785C18.3291 40.6582 17.7627 40.248 16.6299 40.248H15.0625V42.7236ZM20.0723 38.4854C20.0723 37.8701 20.2936 37.359 20.7363 36.9521C21.179 36.542 21.7324 36.3369 22.3965 36.3369C23.0247 36.3369 23.557 36.5241 23.9932 36.8984C24.4294 37.2728 24.6475 37.7301 24.6475 38.2705C24.6475 38.6611 24.54 39.0371 24.3252 39.3984C24.1104 39.7598 23.7067 40.2464 23.1143 40.8584L21.332 42.6992V42.7188H24.7646V43.5H20.1162V42.8945L22.5967 40.2822C23.0687 39.7842 23.3812 39.4066 23.5342 39.1494C23.6904 38.8923 23.7686 38.6172 23.7686 38.3242C23.7686 37.9857 23.6318 37.6976 23.3584 37.46C23.0882 37.2223 22.7594 37.1035 22.3721 37.1035C21.9587 37.1035 21.6136 37.2354 21.3369 37.499C21.0602 37.7627 20.9219 38.0915 20.9219 38.4854V38.4902H20.0723V38.4854ZM28.793 43.6172C27.8197 43.6172 27.0465 43.29 26.4736 42.6357C25.904 41.9782 25.6191 41.0911 25.6191 39.9746C25.6191 38.8678 25.9072 37.9857 26.4834 37.3281C27.0596 36.6673 27.8294 36.3369 28.793 36.3369C29.5612 36.3369 30.2122 36.5518 30.7461 36.9814C31.2832 37.4079 31.6071 37.9727 31.7178 38.6758H30.8291C30.7152 38.2135 30.4727 37.8441 30.1016 37.5674C29.7305 37.2874 29.2943 37.1475 28.793 37.1475C28.1061 37.1475 27.556 37.4046 27.1426 37.9189C26.7292 38.4333 26.5225 39.1185 26.5225 39.9746C26.5225 40.8405 26.7275 41.529 27.1377 42.04C27.5479 42.5511 28.1012 42.8066 28.7979 42.8066C29.3154 42.8066 29.7516 42.6878 30.1064 42.4502C30.4613 42.2126 30.7021 41.8789 30.8291 41.4492H31.7178C31.555 42.1458 31.2214 42.6813 30.7168 43.0557C30.2122 43.43 29.571 43.6172 28.793 43.6172ZM38.0166 43.5V39.1201H35.5605V43.5H34.7207V38.4219H38.8613V43.5H38.0166ZM41.4102 41.2588C41.3874 41.5518 41.3548 41.8105 41.3125 42.0352C41.2734 42.2598 41.2165 42.4697 41.1416 42.665C41.0667 42.8604 40.974 43.0215 40.8633 43.1484C40.7559 43.2721 40.6208 43.3698 40.458 43.4414C40.2985 43.5098 40.113 43.5439 39.9014 43.5439C39.7842 43.5439 39.6833 43.526 39.5986 43.4902V42.7236C39.6768 42.7497 39.763 42.7627 39.8574 42.7627C40.0951 42.7627 40.2725 42.6341 40.3896 42.377C40.5068 42.1165 40.5817 41.7373 40.6143 41.2393L40.8096 38.4219H44.1348V43.5H43.2949V39.1201H41.5664L41.4102 41.2588ZM47.0156 42.8652C47.416 42.8652 47.7513 42.7415 48.0215 42.4941C48.2949 42.2435 48.4316 41.9359 48.4316 41.5713V41.1562L47.0742 41.2393C46.7324 41.262 46.4671 41.3451 46.2783 41.4883C46.0928 41.6315 46 41.8236 46 42.0645C46 42.3053 46.0928 42.499 46.2783 42.6455C46.4639 42.792 46.7096 42.8652 47.0156 42.8652ZM46.8252 43.5879C46.3206 43.5879 45.9121 43.4479 45.5996 43.168C45.2904 42.888 45.1357 42.5202 45.1357 42.0645C45.1357 41.6283 45.2952 41.2799 45.6143 41.0195C45.9365 40.7591 46.3906 40.6126 46.9766 40.5801L48.4316 40.4971V40.0723C48.4316 39.763 48.334 39.5205 48.1387 39.3447C47.9434 39.1689 47.6699 39.0811 47.3184 39.0811C46.9961 39.0811 46.734 39.1527 46.5322 39.2959C46.3304 39.4359 46.2018 39.6328 46.1465 39.8867H45.3262C45.3555 39.4342 45.5508 39.0632 45.9121 38.7734C46.2767 38.4805 46.752 38.334 47.3379 38.334C47.9336 38.334 48.4056 38.4837 48.7539 38.7832C49.1055 39.0827 49.2812 39.4847 49.2812 39.9893V43.5H48.4756V42.626H48.4561C48.3031 42.9157 48.0785 43.1484 47.7822 43.3242C47.486 43.5 47.167 43.5879 46.8252 43.5879ZM54.0713 38.4219V39.1201H52.4307V43.5H51.5908V39.1201H49.9502V38.4219H54.0713ZM57.1426 42.8408V39.0811C56.599 39.0941 56.1676 39.2682 55.8486 39.6035C55.5296 39.9388 55.3701 40.3913 55.3701 40.9609C55.3701 41.5306 55.5296 41.9831 55.8486 42.3184C56.1676 42.6504 56.599 42.8245 57.1426 42.8408ZM59.252 42.3184C59.571 41.9831 59.7305 41.5306 59.7305 40.9609C59.7305 40.3913 59.571 39.9404 59.252 39.6084C58.9362 39.2731 58.5065 39.0973 57.9629 39.0811V42.8408C58.5065 42.8278 58.9362 42.6536 59.252 42.3184ZM57.1426 43.5635C56.3483 43.5472 55.7119 43.3047 55.2334 42.8359C54.7549 42.3672 54.5156 41.7422 54.5156 40.9609C54.5156 40.1797 54.7549 39.5547 55.2334 39.0859C55.7119 38.6139 56.3483 38.3714 57.1426 38.3584V36.752H57.9629V38.3584C58.7539 38.3747 59.3887 38.6188 59.8672 39.0908C60.3457 39.5596 60.585 40.1829 60.585 40.9609C60.585 41.7422 60.3457 42.3688 59.8672 42.8408C59.3887 43.3096 58.7539 43.5505 57.9629 43.5635V45.1943H57.1426V43.5635ZM63.6465 43.5879C62.9368 43.5879 62.3672 43.3519 61.9375 42.8799C61.5078 42.4046 61.293 41.765 61.293 40.9609C61.293 40.1569 61.5078 39.5189 61.9375 39.0469C62.3672 38.5716 62.9368 38.334 63.6465 38.334C64.3529 38.334 64.9209 38.5716 65.3506 39.0469C65.7803 39.5189 65.9951 40.1569 65.9951 40.9609C65.9951 41.7617 65.7803 42.3997 65.3506 42.875C64.9209 43.3503 64.3529 43.5879 63.6465 43.5879ZM62.5576 42.3428C62.8278 42.6748 63.1908 42.8408 63.6465 42.8408C64.1022 42.8408 64.4635 42.6764 64.7305 42.3477C64.9974 42.0156 65.1309 41.5534 65.1309 40.9609C65.1309 40.3685 64.9974 39.9079 64.7305 39.5791C64.4635 39.2471 64.1022 39.0811 63.6465 39.0811C63.1908 39.0811 62.8278 39.2471 62.5576 39.5791C62.2907 39.9111 62.1572 40.3717 62.1572 40.9609C62.1572 41.5501 62.2907 42.0107 62.5576 42.3428ZM69.4082 38.334C70.0592 38.334 70.5833 38.5732 70.9805 39.0518C71.3809 39.5303 71.5811 40.1667 71.5811 40.9609C71.5811 41.752 71.3825 42.3883 70.9854 42.8701C70.5882 43.3486 70.069 43.5879 69.4277 43.5879C69.0697 43.5879 68.749 43.5065 68.4658 43.3438C68.1826 43.181 67.9645 42.958 67.8115 42.6748H67.792V45.1943H66.9424V38.4219H67.748V39.2812H67.7676C67.9271 38.9883 68.1501 38.7572 68.4365 38.5879C68.723 38.4186 69.0469 38.334 69.4082 38.334ZM69.2422 42.8408C69.6947 42.8408 70.0527 42.6715 70.3164 42.333C70.5801 41.9945 70.7119 41.5371 70.7119 40.9609C70.7119 40.3848 70.5801 39.9274 70.3164 39.5889C70.0527 39.2503 69.6947 39.0811 69.2422 39.0811C68.806 39.0811 68.4544 39.2536 68.1875 39.5986C67.9206 39.9437 67.7871 40.3978 67.7871 40.9609C67.7871 41.5273 67.9206 41.9831 68.1875 42.3281C68.4544 42.6699 68.806 42.8408 69.2422 42.8408ZM73.3633 43.5H72.5234V38.4219H73.5537L75.3604 42.377H75.3994L77.2158 38.4219H78.207V43.5H77.3623V39.8965H77.3281L75.6875 43.3535H75.0381L73.3975 39.8965H73.3633V43.5ZM81.0781 42.8652C81.4785 42.8652 81.8138 42.7415 82.084 42.4941C82.3574 42.2435 82.4941 41.9359 82.4941 41.5713V41.1562L81.1367 41.2393C80.7949 41.262 80.5296 41.3451 80.3408 41.4883C80.1553 41.6315 80.0625 41.8236 80.0625 42.0645C80.0625 42.3053 80.1553 42.499 80.3408 42.6455C80.5264 42.792 80.7721 42.8652 81.0781 42.8652ZM80.8877 43.5879C80.3831 43.5879 79.9746 43.4479 79.6621 43.168C79.3529 42.888 79.1982 42.5202 79.1982 42.0645C79.1982 41.6283 79.3577 41.2799 79.6768 41.0195C79.999 40.7591 80.4531 40.6126 81.0391 40.5801L82.4941 40.4971V40.0723C82.4941 39.763 82.3965 39.5205 82.2012 39.3447C82.0059 39.1689 81.7324 39.0811 81.3809 39.0811C81.0586 39.0811 80.7965 39.1527 80.5947 39.2959C80.3929 39.4359 80.2643 39.6328 80.209 39.8867H79.3887C79.418 39.4342 79.6133 39.0632 79.9746 38.7734C80.3392 38.4805 80.8145 38.334 81.4004 38.334C81.9961 38.334 82.4681 38.4837 82.8164 38.7832C83.168 39.0827 83.3438 39.4847 83.3438 39.9893V43.5H82.5381V42.626H82.5186C82.3656 42.9157 82.141 43.1484 81.8447 43.3242C81.5485 43.5 81.2295 43.5879 80.8877 43.5879Z" fill="white"/>
</svg>
