<svg width="99" height="40" viewBox="0 0 99 40" fill="none" xmlns="http://www.w3.org/2000/svg">
<g clip-path="url(#clip0_1107_706)">
<path d="M31.0313 14.4977L31.0154 1.49495C31.0154 1.04106 31.0975 0.620916 31.305 0.366828C31.5144 0.112741 31.8715 0.00012207 32.2351 0.00012207C33.0347 0.00012207 33.3229 0.447179 33.3229 1.4097L33.4018 4.14721C34.4911 2.80148 35.8799 2.13047 37.5676 2.13047C39.294 2.13047 40.6555 2.75676 41.6549 4.01035C42.6702 5.28172 43.1788 6.96179 43.1788 9.04877C43.1788 11.1923 42.662 12.8902 41.6275 14.1438C40.5912 15.396 39.1927 16.0237 37.4325 16.0237C35.8348 16.0237 34.4911 15.4685 33.4018 14.3609C33.4018 14.7797 33.3471 15.1063 33.2376 15.3413C33.0556 15.7418 32.7112 15.9415 32.2031 15.9415C31.8392 15.9415 31.5527 15.8142 31.3452 15.5602C31.1363 15.3056 31.0313 14.9517 31.0313 14.4978V14.4977ZM33.4018 9.07608C33.4018 10.6567 33.733 11.8907 34.3961 12.7807C35.0575 13.6707 35.9698 14.1164 37.1333 14.1164C38.2581 14.1164 39.1398 13.6803 39.7752 12.8081C40.411 11.9377 40.728 10.7211 40.728 9.15822C40.728 7.54244 40.4187 6.29847 39.8011 5.42627C39.1849 4.55401 38.2951 4.11974 37.1333 4.11974C35.9519 4.11974 35.0347 4.55401 34.3816 5.42627C33.7284 6.29847 33.4018 7.51508 33.4018 9.07608H33.4018ZM46.2567 14.4977V3.60156C46.2567 2.67463 46.6284 2.2125 47.3733 2.2125C48.1363 2.2125 48.5177 2.67463 48.5177 3.60156V4.69092C49.0258 3.7462 49.5394 3.09799 50.0558 2.74348C50.5739 2.38951 51.269 2.2125 52.1398 2.2125C52.5403 2.2125 52.8573 2.31243 53.094 2.51175C53.3289 2.71156 53.4479 2.98344 53.4479 3.32972C53.4479 3.80092 53.2563 4.12753 52.875 4.30959L52.1671 4.41904C50.9151 4.58142 49.9787 5.13664 49.3625 6.07997C49.071 6.53342 48.8717 7.04205 48.7622 7.60539C48.6719 8.20571 48.6272 9.09576 48.6272 10.2749V14.4977C48.6819 15.0789 48.495 15.4958 48.0685 15.7499C47.6425 16.004 47.2192 16.009 46.8023 15.7645C46.384 15.5182 46.202 15.0967 46.2568 14.4977H46.2567ZM54.3455 8.96847C54.3455 6.91475 54.928 5.27211 56.0898 4.03766C57.2515 2.76628 58.7868 2.13042 60.692 2.13042C62.6355 2.13042 64.1791 2.75672 65.323 4.0103C66.4847 5.2447 67.0654 6.93438 67.0654 9.07608C67.0654 11.2375 66.4847 12.9353 65.323 14.1711C64.1417 15.4055 62.5635 16.0236 60.5844 16.0236C58.6595 16.0236 57.1425 15.3877 56.035 14.1164C54.9088 12.8273 54.3455 11.1102 54.3455 8.96847ZM60.7194 14.1164C61.9358 14.1164 62.8901 13.6853 63.5802 12.8227C64.2689 11.9601 64.6151 10.7562 64.6151 9.21294C64.6151 7.57803 64.2785 6.32127 63.6075 5.44084C62.9352 4.55907 61.9824 4.11974 60.7467 4.11974C59.4756 4.11974 58.5003 4.55089 57.8199 5.41348C57.1375 6.27607 56.7981 7.50551 56.7981 9.10349C56.7981 10.7014 57.1375 11.9377 57.8199 12.8081C58.5003 13.6803 59.4674 14.1164 60.7194 14.1164ZM11.5486 22.7841V33.5165C11.5486 34.8052 11.4683 35.7499 11.3041 36.3484C11.1413 36.9665 10.8325 37.5299 10.3787 38.0385C9.41676 39.1101 7.91843 39.6442 5.88457 39.6442C4.01309 39.6442 2.56994 39.1279 1.55276 38.0933C0.972117 37.4574 0.682461 36.8119 0.682461 36.1587C0.682461 35.8498 0.795135 35.5857 1.02182 35.3686C1.24894 35.1514 1.53544 35.042 1.87973 35.042C2.17077 35.042 2.39789 35.1145 2.56165 35.2591C2.72446 35.4055 2.90604 35.6856 3.10577 36.1039C3.35979 36.6673 3.70601 37.071 4.14027 37.3159C4.57631 37.5619 5.16702 37.6845 5.91186 37.6845C7.20088 37.6845 8.15321 37.3205 8.77126 36.5947C9.00801 36.3037 9.16535 35.9639 9.24747 35.5729C9.32955 35.1819 9.36967 34.5607 9.36967 33.7062V32.7259C8.75349 33.3796 8.16323 33.8335 7.59995 34.0876C7.03663 34.3417 6.33828 34.4689 5.50317 34.4689C3.77811 34.4689 2.42977 33.9024 1.45781 32.7665C0.486281 31.632 0 30.0564 0 28.0415C0 26.043 0.508588 24.4368 1.52532 23.2202C2.5616 22.0035 3.94093 21.3937 5.66549 21.3937C7.28291 21.3937 8.51719 21.957 9.36967 23.0833C9.36967 22.5021 9.4518 22.0839 9.616 21.8297C9.77837 21.5752 10.0603 21.4484 10.4594 21.4484C11.1864 21.4484 11.5486 21.8941 11.5486 22.7841L11.5486 22.7841ZM5.85713 32.4815C7.16392 32.4815 8.12587 31.9359 8.74392 30.8466C9.16214 30.1208 9.36967 29.1309 9.36967 27.8773C9.36967 26.4244 9.08007 25.3346 8.49937 24.6088C7.82659 23.7913 6.9819 23.3826 5.96517 23.3826C4.8404 23.3826 3.97281 23.7736 3.36483 24.5541C2.75635 25.3346 2.45218 26.4436 2.45218 27.8773C2.45218 29.3658 2.74184 30.5072 3.3247 31.2955C3.9054 32.0856 4.7487 32.4815 5.85708 32.4815L5.85713 32.4815ZM15.3622 33.7611V22.8662C15.3622 21.9393 15.7353 21.4758 16.4788 21.4758C17.2415 21.4758 17.6228 21.9393 17.6228 22.8662V23.9555C18.1314 23.0109 18.6449 22.3608 19.1627 22.0068C19.6794 21.6529 20.3746 21.4758 21.2449 21.4758C21.6458 21.4758 21.9628 21.5753 22.1991 21.7751C22.4358 21.9762 22.553 22.2482 22.553 22.5926C22.553 23.0656 22.3619 23.3923 21.9806 23.5743L21.2722 23.6819C20.0206 23.8462 19.0856 24.3999 18.4676 25.3447C18.1766 25.7981 17.9768 26.3067 17.8691 26.8701C17.7775 27.4686 17.7323 28.3586 17.7323 29.5396V33.7611C17.7871 34.3417 17.6005 34.7605 17.174 35.0146C16.7476 35.2687 16.3243 35.2737 15.9078 35.0274C15.4896 34.7829 15.3076 34.3613 15.3623 33.7611H15.3622ZM32.3318 33.7337V33.5165C31.0956 34.6957 29.7442 35.2865 28.2737 35.2865C26.9828 35.2865 25.9356 34.9001 25.1278 34.1296C24.3182 33.3569 23.9146 32.3547 23.9146 31.1184C23.9146 29.7203 24.4778 28.6948 25.604 28.0416C26.0401 27.8226 26.4296 27.6684 26.7754 27.5781C27.1745 27.4686 28.182 27.2515 29.7976 26.9248C31.0684 26.6511 31.841 26.4162 32.1129 26.2169C32.2223 26.1074 32.2771 25.8706 32.2771 25.507C32.2771 24.7991 32.0403 24.2548 31.5692 23.8735C31.0957 23.4922 30.433 23.3006 29.5801 23.3006C28.7627 23.3006 28.1496 23.4374 27.7409 23.7093C27.3341 23.983 27.0025 24.4821 26.7479 25.2078C26.6016 25.6809 26.2298 25.9158 25.6313 25.9158C24.8496 25.9158 24.46 25.607 24.46 24.9902C24.46 24.1906 24.7962 23.4552 25.4671 22.7842C26.3748 21.8572 27.7651 21.3938 29.6347 21.3938C32.8851 21.3938 34.5102 22.8663 34.5102 25.8081V33.8705C34.5102 34.7605 34.1467 35.2044 33.4209 35.2044C32.6939 35.2044 32.3317 34.7154 32.3317 33.7337H32.3318ZM26.394 31.2553C26.394 31.8912 26.5983 32.3898 27.0056 32.7533C27.4143 33.1174 27.9822 33.2989 28.7079 33.2989C29.3984 33.2989 30.0256 33.1251 30.5876 32.7807C31.1504 32.4349 31.5768 31.9728 31.8683 31.3921C32.1771 30.6841 32.3318 29.5848 32.3318 28.0949C31.6959 28.3312 30.6519 28.5954 29.1987 28.885C28.1272 29.1035 27.392 29.3855 26.9929 29.7299C26.5938 30.0743 26.394 30.5825 26.394 31.2553L26.394 31.2553ZM38.3238 38.555V22.9192C38.3238 22.4653 38.4269 22.1113 38.6363 21.8572C38.8452 21.6026 39.1316 21.4758 39.4938 21.4758C39.7848 21.4758 40.0393 21.5675 40.2564 21.7491C40.4753 21.9297 40.6103 22.166 40.6651 22.4575C40.6842 22.5474 40.6924 22.7842 40.6924 23.1656C41.7096 21.9845 43.0451 21.3938 44.6958 21.3938C46.4756 21.3938 47.8836 22.0165 48.9181 23.2605C49.9526 24.5044 50.4708 26.2068 50.4708 28.3682C50.4708 30.4556 49.9626 32.1358 48.9454 33.4071C47.9288 34.6607 46.5577 35.2865 44.8326 35.2865C43.1445 35.2865 41.7643 34.6155 40.6924 33.2716V38.555C40.6924 39.5175 40.2933 40.0001 39.4937 40.0001C39.1315 40.0001 38.8451 39.8729 38.6362 39.6188C38.4268 39.3647 38.3238 39.0102 38.3238 38.555H38.3238ZM40.6924 28.3408C40.6924 29.884 41.019 31.0961 41.674 31.9779C42.3271 32.8583 43.2348 33.299 44.3966 33.299C45.5405 33.299 46.4304 32.8711 47.0663 32.018C47.7016 31.1655 48.0204 29.9662 48.0204 28.4229C48.0204 26.7702 47.7112 25.5039 47.0936 24.622C46.4756 23.7417 45.5857 23.3005 44.424 23.3005C43.2622 23.3005 42.3499 23.7462 41.6868 24.6362C41.024 25.5262 40.6924 26.7606 40.6924 28.3408ZM53.6294 33.7884L53.7019 20.3719C53.649 19.7716 53.8292 19.5093 54.2461 19.2647C54.6643 19.0184 55.0151 19.0184 55.4416 19.2647C55.8681 19.5092 56.0483 19.8103 55.9935 20.4102L55.9999 23.1929C57.1439 21.994 58.5054 21.3938 60.0854 21.3938C61.6832 21.3938 62.8723 21.9216 63.6546 22.9739C64.2352 23.7544 64.5249 24.8087 64.5249 26.1347V33.7611C64.5249 34.7231 64.1258 35.2044 63.3262 35.2044C62.964 35.2044 62.6775 35.0775 62.4687 34.823C62.2593 34.5689 62.1563 34.215 62.1563 33.7611V26.6785C62.1563 24.5541 61.3197 23.4921 59.6494 23.4921C59.0136 23.4921 58.4101 23.6545 57.8391 23.983C57.2662 24.3096 56.8174 24.7443 56.4908 25.2899C56.1095 25.9253 55.9179 26.9248 55.9179 28.286V33.7884C55.9179 34.7331 55.5366 35.2043 54.7739 35.2043C54.0113 35.2043 53.6295 34.7331 53.6295 33.7884L53.6294 33.7884ZM68.3384 33.7611V22.9192C68.3384 22.4653 68.4429 22.1113 68.6522 21.8572C68.8598 21.6026 69.1462 21.4758 69.5097 21.4758C70.3079 21.4758 70.7084 21.9571 70.7084 22.9192V33.7611C70.7084 34.7231 70.3079 35.2044 69.5097 35.2044C69.1462 35.2044 68.8597 35.0775 68.6522 34.823C68.4429 34.5689 68.3384 34.215 68.3384 33.7611ZM75.5565 33.5713C74.3756 32.2274 73.7849 30.4652 73.7849 28.286C73.7849 26.1972 74.3578 24.5267 75.5023 23.2731C76.6813 22.0214 78.2166 21.3938 80.104 21.3938C81.9755 21.3938 83.4638 22.0292 84.5708 23.3005C85.152 23.9912 85.4429 24.5993 85.4429 25.1257C85.4429 25.4345 85.3257 25.7082 85.089 25.9431C84.8522 26.1794 84.5708 26.2971 84.2442 26.2971C83.7179 26.2971 83.3188 25.9801 83.0455 25.3446C82.4841 24.0358 81.4943 23.3826 80.0767 23.3826C78.8971 23.3826 77.9625 23.8284 77.272 24.7183C76.5819 25.6069 76.2375 26.8249 76.2375 28.3682C76.2375 29.8745 76.5768 31.0733 77.2592 31.9633C77.9397 32.8533 78.8602 33.299 80.0237 33.299C81.6019 33.299 82.7189 32.5089 83.3735 30.9287C83.6458 30.2754 84.0271 29.9488 84.5179 29.9488C84.8623 29.9488 85.1437 30.0565 85.3608 30.2754C85.5798 30.4925 85.6874 30.7562 85.6874 31.0655C85.6874 31.7735 85.3804 32.4993 84.7624 33.2442C83.6357 34.6059 82.048 35.2865 79.9963 35.2865C78.0702 35.2865 76.5914 34.7154 75.5565 33.5714L75.5565 33.5713ZM92.6342 26.6511L94.3765 27.1694C95.7928 27.5877 96.8095 28.114 97.4275 28.7495C98.0456 29.3854 98.353 30.2011 98.353 31.2006C98.353 32.4719 97.8941 33.4714 96.9786 34.1971C96.0614 34.9229 94.8125 35.2865 93.2325 35.2865C91.1809 35.2865 89.6734 34.6428 88.711 33.3523C88.1477 32.6266 87.8681 31.9633 87.8681 31.3648C87.8681 31.0559 87.9852 30.7836 88.222 30.5473C88.4569 30.3105 88.7383 30.1933 89.0649 30.1933C89.3741 30.1933 89.6104 30.2754 89.7728 30.4378C89.937 30.602 90.082 30.8917 90.2088 31.31C90.6449 32.7086 91.6716 33.4071 93.2872 33.4071C94.0676 33.4071 94.713 33.2219 95.2211 32.8488C95.7297 32.4769 95.9842 32.0003 95.9842 31.4195C95.9842 30.8917 95.8296 30.4926 95.5208 30.2207C95.2115 29.9489 94.594 29.6669 93.6685 29.3758L91.9261 28.8317C90.7096 28.4503 89.8325 27.9722 89.2965 27.4011C88.7606 26.8282 88.4938 26.0978 88.4938 25.2078C88.4938 24.0459 88.9202 23.1204 89.7728 22.4302C90.6275 21.7395 91.7619 21.3938 93.1777 21.3938C95.0848 21.3938 96.5006 21.9845 97.4274 23.1655C97.936 23.8009 98.19 24.3903 98.19 24.9355C98.19 25.2077 98.0806 25.4441 97.8635 25.6439C97.6445 25.8433 97.3905 25.9431 97.1008 25.9431C96.7195 25.9431 96.4007 25.7082 96.1466 25.2352C95.8748 24.6362 95.6572 24.2548 95.4935 24.0906C94.9494 23.4921 94.1771 23.1928 93.1778 23.1928C92.4521 23.1928 91.8665 23.3507 91.4208 23.669C90.9765 23.9861 90.7544 24.3998 90.7544 24.9085C90.7544 25.3446 90.8899 25.6885 91.1631 25.9431C91.4354 26.1972 91.9262 26.4339 92.6341 26.6511L92.6342 26.6511ZM69.5225 37.1774C70.3143 37.1774 70.9565 37.81 70.9565 38.5887C70.9565 39.3678 70.3143 40.0001 69.5225 40.0001C68.7325 40.0001 68.0907 39.3678 68.0907 38.5887C68.0907 37.81 68.7325 37.1774 69.5225 37.1774Z" fill="#FEFEFE"/>
</g>
<defs>
<clipPath id="clip0_1107_706">
<rect width="98.3529" height="40" fill="white"/>
</clipPath>
</defs>
</svg>
