<svg width="168" height="47" viewBox="0 0 168 47" fill="none" xmlns="http://www.w3.org/2000/svg">
<path d="M13.988 10.776C14.596 11.4 14.9 12.368 14.9 13.68C14.9 16.56 13.46 18 10.58 18H0.5V3.6H10.58C13.444 3.6 14.884 5.032 14.9 7.896C14.9 9.224 14.596 10.184 13.988 10.776ZM10.58 9.36C11.54 9.36 12.02 8.88 12.02 7.92C12.02 6.96 11.54 6.48 10.58 6.48H3.38V9.36H10.58ZM10.58 15.12C11.54 15.12 12.02 14.64 12.02 13.68C12.02 12.72 11.54 12.24 10.58 12.24H3.38V15.12H10.58ZM31.7037 6.48H20.1837V9.36H28.8237V12.24H20.1837V15.12H31.7037V18H17.3037V3.6H31.7037V6.48ZM45.6275 18H34.1075V3.6H36.9875V15.12H45.6275V18ZM62.4284 13.68C62.4284 16.56 60.9884 18 58.1084 18H48.7484V15.12H58.1084C59.0684 15.12 59.5484 14.64 59.5484 13.68C59.5484 12.72 59.0684 12.24 58.1084 12.24H52.3484C49.4684 12.24 48.0284 10.8 48.0284 7.92C48.0284 5.04 49.4684 3.6 52.3484 3.6H61.7084V6.48H52.3484C51.3884 6.48 50.9084 6.96 50.9084 7.92C50.9084 8.88 51.3884 9.36 52.3484 9.36H58.1084C60.9884 9.36 62.4284 10.8 62.4284 13.68ZM79.2322 18H76.3522V12.24H67.7122V18H64.8322V3.6H67.7122V9.36H76.3522V3.6H79.2322V18ZM96.0359 13.92C96.0359 16.8 94.5959 18.24 91.7159 18.24H85.9559C83.0759 18.24 81.6359 16.8 81.6359 13.92V7.68C81.6359 4.8 83.0759 3.36 85.9559 3.36H91.7159C94.5959 3.36 96.0359 4.8 96.0359 7.68V13.92ZM93.1559 13.92V7.68C93.1559 6.72 92.6759 6.24 91.7159 6.24H85.9559C84.9959 6.24 84.5159 6.72 84.5159 7.68V13.92C84.5159 14.88 84.9959 15.36 85.9559 15.36H91.7159C92.6759 15.36 93.1559 14.88 93.1559 13.92ZM117.076 3.6L112.828 18H109.804L106.996 8.64L104.188 18H101.164L96.9163 3.6H99.9403L102.676 12.96L105.484 3.6H108.508L111.316 12.96L114.052 3.6H117.076ZM133.159 6.48H127.399V18H124.519V6.48H118.759V3.6H133.159V6.48ZM149.963 6.48H138.443V9.36H147.083V12.24H138.443V15.12H149.963V18H135.563V3.6H149.963V6.48ZM152.367 18L157.767 10.8L152.367 3.6H155.967L159.567 8.4L163.167 3.6H166.767L161.367 10.8L166.767 18H163.167L159.567 13.2L155.967 18H152.367Z" fill="white"/>
<path d="M4.81982 25.8359H4.06396C3.99365 25.5986 3.86035 25.4038 3.66406 25.2515C3.46777 25.0991 3.21729 25.0229 2.9126 25.0229C2.51416 25.0229 2.19482 25.1782 1.95459 25.4888C1.71436 25.7964 1.59424 26.2051 1.59424 26.7148C1.59424 27.2334 1.71436 27.645 1.95459 27.9497C2.19775 28.2544 2.52002 28.4067 2.92139 28.4067C3.22021 28.4067 3.46777 28.3364 3.66406 28.1958C3.86328 28.0552 3.99951 27.8574 4.07275 27.6025H4.82861C4.75244 28.042 4.5415 28.3979 4.1958 28.6704C3.8501 28.9429 3.42383 29.0791 2.91699 29.0791C2.27832 29.0791 1.76855 28.8667 1.3877 28.4419C1.00684 28.0142 0.816406 27.4385 0.816406 26.7148C0.816406 26.0029 1.00684 25.4316 1.3877 25.001C1.76855 24.5674 2.27539 24.3506 2.9082 24.3506C3.43262 24.3506 3.86328 24.4941 4.2002 24.7812C4.54004 25.0684 4.74658 25.4199 4.81982 25.8359ZM10.0361 30.2085H9.32422V29H5.62402V24.4297H6.37988V28.3716H8.55078V24.4297H9.30664V28.3716H10.0361V30.2085ZM12.5586 25.0142C12.2041 25.0142 11.9097 25.1372 11.6753 25.3833C11.4438 25.6265 11.3164 25.9399 11.293 26.3237H13.7759C13.7671 25.937 13.6514 25.6221 13.4287 25.3789C13.2061 25.1357 12.916 25.0142 12.5586 25.0142ZM13.7583 27.6904H14.5098C14.4424 28.0947 14.2314 28.4272 13.877 28.688C13.5254 28.9487 13.1021 29.0791 12.6069 29.0791C11.9536 29.0791 11.4395 28.8682 11.0645 28.4463C10.6895 28.0244 10.502 27.4531 10.502 26.7324C10.502 26.0176 10.6895 25.4419 11.0645 25.0054C11.4424 24.5688 11.9448 24.3506 12.5718 24.3506C13.187 24.3506 13.6733 24.5571 14.0308 24.9702C14.3882 25.3833 14.5669 25.937 14.5669 26.6313V26.9214H11.2886V26.9653C11.2886 27.4048 11.4087 27.7563 11.6489 28.02C11.8892 28.2837 12.2144 28.4155 12.6245 28.4155C12.9116 28.4155 13.1562 28.3496 13.3584 28.2178C13.5605 28.0859 13.6938 27.9102 13.7583 27.6904ZM18.4253 29V26.9434H16.1709V29H15.415V24.4297H16.1709V26.3149H18.4253V24.4297H19.1812V29H18.4253ZM21.0137 29H20.2578V24.4297H21.0137V27.8311H21.0488L23.334 24.4297H24.0898V29H23.334V25.5986H23.2988L21.0137 29ZM28.647 29H27.8911V27.0269H27.8252C27.5498 27.2642 27.1807 27.3828 26.7178 27.3828C26.1816 27.3828 25.7686 27.2349 25.4785 26.939C25.1914 26.6431 25.0479 26.2446 25.0479 25.7437V24.4297H25.8037V25.7349C25.8037 26.0396 25.8843 26.2798 26.0454 26.4556C26.2065 26.6284 26.438 26.7148 26.7397 26.7148C27.2407 26.7148 27.6245 26.5654 27.8911 26.2666V24.4297H28.647V29ZM31.5605 25.0142C31.2061 25.0142 30.9116 25.1372 30.6772 25.3833C30.4458 25.6265 30.3184 25.9399 30.2949 26.3237H32.7778C32.769 25.937 32.6533 25.6221 32.4307 25.3789C32.208 25.1357 31.918 25.0142 31.5605 25.0142ZM32.7603 27.6904H33.5117C33.4443 28.0947 33.2334 28.4272 32.8789 28.688C32.5273 28.9487 32.104 29.0791 31.6089 29.0791C30.9556 29.0791 30.4414 28.8682 30.0664 28.4463C29.6914 28.0244 29.5039 27.4531 29.5039 26.7324C29.5039 26.0176 29.6914 25.4419 30.0664 25.0054C30.4443 24.5688 30.9468 24.3506 31.5737 24.3506C32.189 24.3506 32.6753 24.5571 33.0327 24.9702C33.3901 25.3833 33.5688 25.937 33.5688 26.6313V26.9214H30.2905V26.9653C30.2905 27.4048 30.4106 27.7563 30.6509 28.02C30.8911 28.2837 31.2163 28.4155 31.6265 28.4155C31.9136 28.4155 32.1582 28.3496 32.3604 28.2178C32.5625 28.0859 32.6958 27.9102 32.7603 27.6904ZM38.2007 25.8359H37.4448C37.3745 25.5986 37.2412 25.4038 37.0449 25.2515C36.8486 25.0991 36.5981 25.0229 36.2935 25.0229C35.895 25.0229 35.5757 25.1782 35.3354 25.4888C35.0952 25.7964 34.9751 26.2051 34.9751 26.7148C34.9751 27.2334 35.0952 27.645 35.3354 27.9497C35.5786 28.2544 35.9009 28.4067 36.3022 28.4067C36.6011 28.4067 36.8486 28.3364 37.0449 28.1958C37.2441 28.0552 37.3804 27.8574 37.4536 27.6025H38.2095C38.1333 28.042 37.9224 28.3979 37.5767 28.6704C37.231 28.9429 36.8047 29.0791 36.2979 29.0791C35.6592 29.0791 35.1494 28.8667 34.7686 28.4419C34.3877 28.0142 34.1973 27.4385 34.1973 26.7148C34.1973 26.0029 34.3877 25.4316 34.7686 25.001C35.1494 24.5674 35.6562 24.3506 36.2891 24.3506C36.8135 24.3506 37.2441 24.4941 37.5811 24.7812C37.9209 25.0684 38.1274 25.4199 38.2007 25.8359ZM40.5562 26.5918L42.7534 29H41.769L39.7959 26.8027H39.7607V29H39.0049V24.4297H39.7607V26.4512H39.7959L41.7471 24.4297H42.6919L40.5562 26.5918ZM45.2012 29.0791C44.5625 29.0791 44.0498 28.8667 43.6631 28.4419C43.2764 28.0142 43.083 27.4385 43.083 26.7148C43.083 25.9912 43.2764 25.417 43.6631 24.9922C44.0498 24.5645 44.5625 24.3506 45.2012 24.3506C45.8369 24.3506 46.3481 24.5645 46.7349 24.9922C47.1216 25.417 47.3149 25.9912 47.3149 26.7148C47.3149 27.4355 47.1216 28.0098 46.7349 28.4375C46.3481 28.8652 45.8369 29.0791 45.2012 29.0791ZM44.2212 27.9585C44.4644 28.2573 44.791 28.4067 45.2012 28.4067C45.6113 28.4067 45.9365 28.2588 46.1768 27.9629C46.417 27.6641 46.5371 27.248 46.5371 26.7148C46.5371 26.1816 46.417 25.7671 46.1768 25.4712C45.9365 25.1724 45.6113 25.0229 45.2012 25.0229C44.791 25.0229 44.4644 25.1724 44.2212 25.4712C43.981 25.77 43.8608 26.1846 43.8608 26.7148C43.8608 27.2451 43.981 27.6597 44.2212 27.9585ZM50 25.0142C49.6455 25.0142 49.3511 25.1372 49.1167 25.3833C48.8853 25.6265 48.7578 25.9399 48.7344 26.3237H51.2173C51.2085 25.937 51.0928 25.6221 50.8701 25.3789C50.6475 25.1357 50.3574 25.0142 50 25.0142ZM51.1997 27.6904H51.9512C51.8838 28.0947 51.6729 28.4272 51.3184 28.688C50.9668 28.9487 50.5435 29.0791 50.0483 29.0791C49.395 29.0791 48.8809 28.8682 48.5059 28.4463C48.1309 28.0244 47.9434 27.4531 47.9434 26.7324C47.9434 26.0176 48.1309 25.4419 48.5059 25.0054C48.8838 24.5688 49.3862 24.3506 50.0132 24.3506C50.6284 24.3506 51.1147 24.5571 51.4722 24.9702C51.8296 25.3833 52.0083 25.937 52.0083 26.6313V26.9214H48.73V26.9653C48.73 27.4048 48.8501 27.7563 49.0903 28.02C49.3306 28.2837 49.6558 28.4155 50.0659 28.4155C50.353 28.4155 50.5977 28.3496 50.7998 28.2178C51.002 28.0859 51.1353 27.9102 51.1997 27.6904ZM55.458 29H54.7021V24.4297H55.458V27.8311H55.4932L57.7783 24.4297H58.5342V29H57.7783V25.5986H57.7432L55.458 29ZM63.0034 26.5918L65.2007 29H64.2163L62.2432 26.8027H62.208V29H61.4521V24.4297H62.208V26.4512H62.2432L64.1943 24.4297H65.1392L63.0034 26.5918ZM67.6484 29.0791C67.0098 29.0791 66.4971 28.8667 66.1104 28.4419C65.7236 28.0142 65.5303 27.4385 65.5303 26.7148C65.5303 25.9912 65.7236 25.417 66.1104 24.9922C66.4971 24.5645 67.0098 24.3506 67.6484 24.3506C68.2842 24.3506 68.7954 24.5645 69.1821 24.9922C69.5688 25.417 69.7622 25.9912 69.7622 26.7148C69.7622 27.4355 69.5688 28.0098 69.1821 28.4375C68.7954 28.8652 68.2842 29.0791 67.6484 29.0791ZM66.6685 27.9585C66.9116 28.2573 67.2383 28.4067 67.6484 28.4067C68.0586 28.4067 68.3838 28.2588 68.624 27.9629C68.8643 27.6641 68.9844 27.248 68.9844 26.7148C68.9844 26.1816 68.8643 25.7671 68.624 25.4712C68.3838 25.1724 68.0586 25.0229 67.6484 25.0229C67.2383 25.0229 66.9116 25.1724 66.6685 25.4712C66.4282 25.77 66.3081 26.1846 66.3081 26.7148C66.3081 27.2451 66.4282 27.6597 66.6685 27.9585ZM73.6206 29V26.9434H71.3662V29H70.6104V24.4297H71.3662V26.3149H73.6206V24.4297H74.3765V29H73.6206ZM79.8652 30.2085H79.1533V29H75.4531V24.4297H76.209V28.3716H78.3799V24.4297H79.1357V28.3716H79.8652V30.2085ZM82.3877 25.0142C82.0332 25.0142 81.7388 25.1372 81.5044 25.3833C81.2729 25.6265 81.1455 25.9399 81.1221 26.3237H83.605C83.5962 25.937 83.4805 25.6221 83.2578 25.3789C83.0352 25.1357 82.7451 25.0142 82.3877 25.0142ZM83.5874 27.6904H84.3389C84.2715 28.0947 84.0605 28.4272 83.7061 28.688C83.3545 28.9487 82.9312 29.0791 82.436 29.0791C81.7827 29.0791 81.2686 28.8682 80.8936 28.4463C80.5186 28.0244 80.3311 27.4531 80.3311 26.7324C80.3311 26.0176 80.5186 25.4419 80.8936 25.0054C81.2715 24.5688 81.7739 24.3506 82.4009 24.3506C83.0161 24.3506 83.5024 24.5571 83.8599 24.9702C84.2173 25.3833 84.396 25.937 84.396 26.6313V26.9214H81.1177V26.9653C81.1177 27.4048 81.2378 27.7563 81.478 28.02C81.7183 28.2837 82.0435 28.4155 82.4536 28.4155C82.7407 28.4155 82.9854 28.3496 83.1875 28.2178C83.3896 28.0859 83.5229 27.9102 83.5874 27.6904ZM87.4678 24.3506C88.0537 24.3506 88.5254 24.5659 88.8828 24.9966C89.2432 25.4272 89.4233 26 89.4233 26.7148C89.4233 27.4268 89.2446 27.9995 88.8872 28.4331C88.5298 28.8638 88.0625 29.0791 87.4854 29.0791C87.1631 29.0791 86.8745 29.0059 86.6196 28.8594C86.3647 28.7129 86.1685 28.5122 86.0308 28.2573H86.0132V30.5249H85.2485V24.4297H85.9736V25.2031H85.9912C86.1348 24.9395 86.3354 24.7314 86.5933 24.5791C86.8511 24.4268 87.1426 24.3506 87.4678 24.3506ZM87.3184 28.4067C87.7256 28.4067 88.0479 28.2544 88.2852 27.9497C88.5225 27.645 88.6411 27.2334 88.6411 26.7148C88.6411 26.1963 88.5225 25.7847 88.2852 25.48C88.0479 25.1753 87.7256 25.0229 87.3184 25.0229C86.9258 25.0229 86.6094 25.1782 86.3691 25.4888C86.1289 25.7993 86.0088 26.208 86.0088 26.7148C86.0088 27.2246 86.1289 27.6348 86.3691 27.9453C86.6094 28.2529 86.9258 28.4067 87.3184 28.4067ZM93.4399 24.4297V25.0581H91.9634V29H91.2075V25.0581H89.731V24.4297H93.4399ZM97.1577 29V26.9434H94.9033V29H94.1475V24.4297H94.9033V26.3149H97.1577V24.4297H97.9136V29H97.1577ZM100.889 29.0791C100.25 29.0791 99.7373 28.8667 99.3506 28.4419C98.9639 28.0142 98.7705 27.4385 98.7705 26.7148C98.7705 25.9912 98.9639 25.417 99.3506 24.9922C99.7373 24.5645 100.25 24.3506 100.889 24.3506C101.524 24.3506 102.036 24.5645 102.422 24.9922C102.809 25.417 103.002 25.9912 103.002 26.7148C103.002 27.4355 102.809 28.0098 102.422 28.4375C102.036 28.8652 101.524 29.0791 100.889 29.0791ZM99.9087 27.9585C100.152 28.2573 100.479 28.4067 100.889 28.4067C101.299 28.4067 101.624 28.2588 101.864 27.9629C102.104 27.6641 102.225 27.248 102.225 26.7148C102.225 26.1816 102.104 25.7671 101.864 25.4712C101.624 25.1724 101.299 25.0229 100.889 25.0229C100.479 25.0229 100.152 25.1724 99.9087 25.4712C99.6685 25.77 99.5483 26.1846 99.5483 26.7148C99.5483 27.2451 99.6685 27.6597 99.9087 27.9585ZM105.688 25.0142C105.333 25.0142 105.039 25.1372 104.804 25.3833C104.573 25.6265 104.445 25.9399 104.422 26.3237H106.905C106.896 25.937 106.78 25.6221 106.558 25.3789C106.335 25.1357 106.045 25.0142 105.688 25.0142ZM106.887 27.6904H107.639C107.571 28.0947 107.36 28.4272 107.006 28.688C106.654 28.9487 106.231 29.0791 105.736 29.0791C105.083 29.0791 104.568 28.8682 104.193 28.4463C103.818 28.0244 103.631 27.4531 103.631 26.7324C103.631 26.0176 103.818 25.4419 104.193 25.0054C104.571 24.5688 105.074 24.3506 105.701 24.3506C106.316 24.3506 106.802 24.5571 107.16 24.9702C107.517 25.3833 107.696 25.937 107.696 26.6313V26.9214H104.417V26.9653C104.417 27.4048 104.538 27.7563 104.778 28.02C105.018 28.2837 105.343 28.4155 105.753 28.4155C106.041 28.4155 106.285 28.3496 106.487 28.2178C106.689 28.0859 106.823 27.9102 106.887 27.6904ZM112.288 29.0791C111.649 29.0791 111.137 28.8667 110.75 28.4419C110.363 28.0142 110.17 27.4385 110.17 26.7148C110.17 25.9912 110.363 25.417 110.75 24.9922C111.137 24.5645 111.649 24.3506 112.288 24.3506C112.924 24.3506 113.435 24.5645 113.822 24.9922C114.208 25.417 114.402 25.9912 114.402 26.7148C114.402 27.4355 114.208 28.0098 113.822 28.4375C113.435 28.8652 112.924 29.0791 112.288 29.0791ZM111.308 27.9585C111.551 28.2573 111.878 28.4067 112.288 28.4067C112.698 28.4067 113.023 28.2588 113.264 27.9629C113.504 27.6641 113.624 27.248 113.624 26.7148C113.624 26.1816 113.504 25.7671 113.264 25.4712C113.023 25.1724 112.698 25.0229 112.288 25.0229C111.878 25.0229 111.551 25.1724 111.308 25.4712C111.068 25.77 110.948 26.1846 110.948 26.7148C110.948 27.2451 111.068 27.6597 111.308 27.9585ZM117.21 29.0791C116.507 29.0791 115.974 28.8462 115.61 28.3804C115.25 27.9146 115.07 27.229 115.07 26.3237C115.07 25.0552 115.256 24.1396 115.628 23.5771C116.003 23.0146 116.631 22.7173 117.513 22.6851L117.852 22.6719C118.385 22.6455 118.782 22.5635 119.042 22.4258V23.0938C118.969 23.1611 118.824 23.2197 118.607 23.2695C118.391 23.3193 118.15 23.3501 117.887 23.3618L117.548 23.375C117.229 23.3867 116.962 23.4307 116.749 23.5068C116.538 23.583 116.362 23.7046 116.221 23.8716C116.083 24.0386 115.977 24.2378 115.9 24.4692C115.824 24.6978 115.763 24.9907 115.716 25.3481H115.751C115.897 25.0815 116.107 24.8779 116.379 24.7373C116.655 24.5967 116.97 24.5264 117.324 24.5264C117.942 24.5264 118.433 24.7285 118.796 25.1328C119.163 25.5342 119.346 26.0762 119.346 26.7588C119.346 27.4766 119.155 28.0435 118.774 28.4595C118.394 28.8726 117.872 29.0791 117.21 29.0791ZM116.208 27.9761C116.445 28.2603 116.779 28.4023 117.21 28.4023C117.641 28.4023 117.973 28.2603 118.208 27.9761C118.445 27.689 118.563 27.2832 118.563 26.7588C118.563 26.2607 118.445 25.8755 118.208 25.603C117.973 25.3306 117.641 25.1943 117.21 25.1943C116.779 25.1943 116.445 25.3306 116.208 25.603C115.971 25.8755 115.852 26.2607 115.852 26.7588C115.852 27.2832 115.971 27.689 116.208 27.9761ZM122.097 29.0791C121.458 29.0791 120.945 28.8667 120.559 28.4419C120.172 28.0142 119.979 27.4385 119.979 26.7148C119.979 25.9912 120.172 25.417 120.559 24.9922C120.945 24.5645 121.458 24.3506 122.097 24.3506C122.732 24.3506 123.244 24.5645 123.63 24.9922C124.017 25.417 124.21 25.9912 124.21 26.7148C124.21 27.4355 124.017 28.0098 123.63 28.4375C123.244 28.8652 122.732 29.0791 122.097 29.0791ZM121.117 27.9585C121.36 28.2573 121.687 28.4067 122.097 28.4067C122.507 28.4067 122.832 28.2588 123.072 27.9629C123.312 27.6641 123.433 27.248 123.433 26.7148C123.433 26.1816 123.312 25.7671 123.072 25.4712C122.832 25.1724 122.507 25.0229 122.097 25.0229C121.687 25.0229 121.36 25.1724 121.117 25.4712C120.876 25.77 120.756 26.1846 120.756 26.7148C120.756 27.2451 120.876 27.6597 121.117 27.9585ZM127.282 24.3506C127.868 24.3506 128.34 24.5659 128.697 24.9966C129.058 25.4272 129.238 26 129.238 26.7148C129.238 27.4268 129.059 27.9995 128.702 28.4331C128.344 28.8638 127.877 29.0791 127.3 29.0791C126.978 29.0791 126.689 29.0059 126.434 28.8594C126.179 28.7129 125.983 28.5122 125.845 28.2573H125.828V30.5249H125.063V24.4297H125.788V25.2031H125.806C125.949 24.9395 126.15 24.7314 126.408 24.5791C126.666 24.4268 126.957 24.3506 127.282 24.3506ZM127.133 28.4067C127.54 28.4067 127.862 28.2544 128.1 27.9497C128.337 27.645 128.456 27.2334 128.456 26.7148C128.456 26.1963 128.337 25.7847 128.1 25.48C127.862 25.1753 127.54 25.0229 127.133 25.0229C126.74 25.0229 126.424 25.1782 126.184 25.4888C125.943 25.7993 125.823 26.208 125.823 26.7148C125.823 27.2246 125.943 27.6348 126.184 27.9453C126.424 28.2529 126.74 28.4067 127.133 28.4067ZM130.336 30.7095C130.199 30.7095 130.089 30.7007 130.007 30.6831V30.0415C130.077 30.0562 130.177 30.0635 130.306 30.0635C130.52 30.0635 130.691 30.0063 130.82 29.8921C130.949 29.7808 131.057 29.5918 131.145 29.3252L131.25 29.0044L129.563 24.4297H130.38L131.646 28.2354H131.659L132.925 24.4297H133.729L131.932 29.3208C131.735 29.854 131.523 30.2188 131.294 30.415C131.069 30.6113 130.75 30.7095 130.336 30.7095ZM137.267 28.3716V25.0581H135.553L135.412 26.9829C135.368 27.6099 135.244 28.061 135.039 28.3364V28.3716H137.267ZM134.494 30.2085H133.782V28.3716H134.164C134.472 28.1694 134.652 27.7007 134.705 26.9653L134.88 24.4297H138.027V28.3716H138.752V30.2085H138.04V29H134.494V30.2085ZM141.336 29.0791C140.697 29.0791 140.185 28.8667 139.798 28.4419C139.411 28.0142 139.218 27.4385 139.218 26.7148C139.218 25.9912 139.411 25.417 139.798 24.9922C140.185 24.5645 140.697 24.3506 141.336 24.3506C141.972 24.3506 142.483 24.5645 142.87 24.9922C143.256 25.417 143.45 25.9912 143.45 26.7148C143.45 27.4355 143.256 28.0098 142.87 28.4375C142.483 28.8652 141.972 29.0791 141.336 29.0791ZM140.356 27.9585C140.599 28.2573 140.926 28.4067 141.336 28.4067C141.746 28.4067 142.071 28.2588 142.312 27.9629C142.552 27.6641 142.672 27.248 142.672 26.7148C142.672 26.1816 142.552 25.7671 142.312 25.4712C142.071 25.1724 141.746 25.0229 141.336 25.0229C140.926 25.0229 140.599 25.1724 140.356 25.4712C140.116 25.77 139.996 26.1846 139.996 26.7148C139.996 27.2451 140.116 27.6597 140.356 27.9585ZM146.148 25.0493H145.054V26.3281H146.034C146.602 26.3281 146.886 26.1113 146.886 25.6777C146.886 25.4756 146.823 25.3203 146.697 25.2119C146.571 25.1035 146.388 25.0493 146.148 25.0493ZM146.095 26.9434H145.054V28.3804H146.231C146.507 28.3804 146.718 28.3203 146.864 28.2002C147.011 28.0771 147.084 27.8999 147.084 27.6685C147.084 27.1851 146.754 26.9434 146.095 26.9434ZM144.298 29V24.4297H146.253C146.681 24.4297 147.018 24.5337 147.264 24.7417C147.51 24.9497 147.633 25.2354 147.633 25.5986C147.633 25.8301 147.56 26.041 147.414 26.2314C147.27 26.4219 147.093 26.5391 146.882 26.583V26.6182C147.169 26.6592 147.399 26.7764 147.572 26.9697C147.748 27.1631 147.835 27.4019 147.835 27.686C147.835 28.0903 147.695 28.4111 147.414 28.6484C147.135 28.8828 146.753 29 146.267 29H144.298ZM150.222 28.4287C150.582 28.4287 150.884 28.3174 151.127 28.0947C151.373 27.8691 151.496 27.5923 151.496 27.2642V26.8906L150.274 26.9653C149.967 26.9858 149.728 27.0605 149.558 27.1895C149.391 27.3184 149.308 27.4912 149.308 27.708C149.308 27.9248 149.391 28.0991 149.558 28.231C149.725 28.3628 149.946 28.4287 150.222 28.4287ZM150.05 29.0791C149.596 29.0791 149.229 28.9531 148.947 28.7012C148.669 28.4492 148.53 28.1182 148.53 27.708C148.53 27.3154 148.673 27.002 148.96 26.7676C149.25 26.5332 149.659 26.4014 150.187 26.3721L151.496 26.2974V25.915C151.496 25.6367 151.408 25.4185 151.232 25.2603C151.057 25.1021 150.811 25.0229 150.494 25.0229C150.204 25.0229 149.968 25.0874 149.787 25.2163C149.605 25.3423 149.489 25.5195 149.439 25.748H148.701C148.728 25.3408 148.903 25.0068 149.229 24.7461C149.557 24.4824 149.984 24.3506 150.512 24.3506C151.048 24.3506 151.473 24.4854 151.786 24.7549C152.103 25.0244 152.261 25.3862 152.261 25.8403V29H151.536V28.2134H151.518C151.38 28.4741 151.178 28.6836 150.912 28.8418C150.645 29 150.358 29.0791 150.05 29.0791ZM156.326 29V26.9434H154.071V29H153.315V24.4297H154.071V26.3149H156.326V24.4297H157.082V29H156.326ZM158.914 29H158.158V24.4297H158.914V27.8311H158.949L161.234 24.4297H161.99V29H161.234V25.5986H161.199L158.914 29ZM164.899 25.0142C164.545 25.0142 164.25 25.1372 164.016 25.3833C163.785 25.6265 163.657 25.9399 163.634 26.3237H166.117C166.108 25.937 165.992 25.6221 165.77 25.3789C165.547 25.1357 165.257 25.0142 164.899 25.0142ZM166.099 27.6904H166.851C166.783 28.0947 166.572 28.4272 166.218 28.688C165.866 28.9487 165.443 29.0791 164.948 29.0791C164.294 29.0791 163.78 28.8682 163.405 28.4463C163.03 28.0244 162.843 27.4531 162.843 26.7324C162.843 26.0176 163.03 25.4419 163.405 25.0054C163.783 24.5688 164.286 24.3506 164.913 24.3506C165.528 24.3506 166.014 24.5571 166.372 24.9702C166.729 25.3833 166.908 25.937 166.908 26.6313V26.9214H163.629V26.9653C163.629 27.4048 163.75 27.7563 163.99 28.02C164.23 28.2837 164.555 28.4155 164.965 28.4155C165.252 28.4155 165.497 28.3496 165.699 28.2178C165.901 28.0859 166.035 27.9102 166.099 27.6904Z" fill="white"/>
</svg>
