<svg width="58" height="50" viewBox="0 0 58 50" fill="none" xmlns="http://www.w3.org/2000/svg">
<g clip-path="url(#clip0_1107_662)">
<path d="M57.0839 33.7892H0.173828V50H57.0839V33.7892Z" fill="#1C1B17"/>
<path d="M6.90989 38.208C7.24628 38.208 7.55378 38.2637 7.83241 38.3772C8.11281 38.489 8.35277 38.6465 8.5554 38.8478C8.75981 39.049 8.91712 39.2912 9.02866 39.5739C9.14197 39.8565 9.19752 40.1664 9.19752 40.5034C9.19752 40.8435 9.1402 41.1551 9.02688 41.4378C8.91179 41.7205 8.75492 41.9645 8.55185 42.1675C8.34743 42.3705 8.1057 42.5281 7.8253 42.6398C7.5449 42.7533 7.23561 42.809 6.89922 42.809H5.10129V45.3688H4.20898V38.2072H6.90944L6.90989 38.208ZM5.10173 42.0175H6.67837C6.93344 42.0175 7.16007 41.9836 7.36093 41.916C7.56045 41.8483 7.72931 41.7486 7.86618 41.6181C8.00305 41.4877 8.10792 41.3288 8.17902 41.1422C8.25012 40.9544 8.28522 40.7429 8.28522 40.5038C8.28522 40.0279 8.14658 39.6571 7.86796 39.3949C7.59067 39.1327 7.19384 39.0005 6.67837 39.0005H5.10173V42.0175Z" fill="#FEFEFE"/>
<path d="M16.7282 41.7428H18.4857C18.9488 41.7428 19.3038 41.6244 19.5505 41.3889C19.7989 41.1521 19.9224 40.8115 19.9224 40.3681C19.9224 40.1549 19.8886 39.9617 19.8211 39.7943C19.7535 39.6251 19.6553 39.4826 19.5287 39.3642C19.402 39.2476 19.2483 39.1577 19.0656 39.0949C18.8848 39.0321 18.6786 39.0001 18.4471 39.0001H16.7282V41.7428ZM16.7282 45.3693H15.8359V38.2076H18.5653C18.9101 38.2076 19.2207 38.2584 19.5016 38.3581C19.7838 38.4596 20.0219 38.6039 20.2215 38.7899C20.4192 38.9778 20.573 39.2031 20.6809 39.4653C20.7907 39.7279 20.8449 40.0204 20.8449 40.3405C20.8449 40.5894 20.8111 40.8231 20.7449 41.043C20.6792 41.2629 20.5845 41.461 20.461 41.6373C20.3374 41.8118 20.1872 41.9659 20.0099 42.0963C19.8326 42.2267 19.6331 42.3265 19.4083 42.3959L21.0627 45.3688H20.0166L18.4871 42.5348H16.7278V45.3688L16.7282 45.3693Z" fill="#FEFEFE"/>
<path d="M27.582 45.3692V38.208H28.4743V45.3692H27.582Z" fill="#FEFEFE"/>
<path d="M35.4824 45.3692V38.208H36.3543L40.2648 43.8271H40.3088V38.208H41.1908V45.3692H40.3221L36.4049 39.7688H36.3645V45.3692H35.4824Z" fill="#FEFEFE"/>
<path d="M50.0479 45.3692V39.0102H47.7461V38.208H53.2417V39.0102H50.9402V45.3692H50.0479Z" fill="#FEFEFE"/>
<path d="M6.90989 38.208C7.24628 38.208 7.55378 38.2637 7.83241 38.3772C8.11281 38.489 8.35277 38.6465 8.5554 38.8478C8.75981 39.049 8.91712 39.2912 9.02866 39.5739C9.14197 39.8565 9.19752 40.1664 9.19752 40.5034C9.19752 40.8435 9.1402 41.1551 9.02688 41.4378C8.91179 41.7205 8.75492 41.9645 8.55185 42.1675C8.34743 42.3705 8.1057 42.5281 7.8253 42.6398C7.5449 42.7533 7.23561 42.809 6.89922 42.809H5.10129V45.3688H4.20898V38.2072H6.90944L6.90989 38.208ZM5.10173 42.0175H6.67837C6.93344 42.0175 7.16007 41.9836 7.36093 41.916C7.56045 41.8483 7.72931 41.7486 7.86618 41.6181C8.00305 41.4877 8.10792 41.3288 8.17902 41.1422C8.25012 40.9544 8.28522 40.7429 8.28522 40.5038C8.28522 40.0279 8.14658 39.6571 7.86796 39.3949C7.59067 39.1327 7.19384 39.0005 6.67837 39.0005H5.10173V42.0175V42.0175Z" stroke="#FEFEFE" stroke-width="0.199921" stroke-miterlimit="22.9256" stroke-linecap="round" stroke-linejoin="round"/>
<path d="M16.7282 41.7428H18.4857C18.9488 41.7428 19.3038 41.6244 19.5505 41.3889C19.7989 41.1521 19.9224 40.8115 19.9224 40.3681C19.9224 40.1549 19.8886 39.9617 19.8211 39.7943C19.7535 39.6251 19.6553 39.4826 19.5287 39.3642C19.402 39.2476 19.2483 39.1577 19.0656 39.0949C18.8848 39.0321 18.6786 39.0001 18.4471 39.0001H16.7282V41.7428V41.7428ZM16.7282 45.3693H15.8359V38.2076H18.5653C18.9101 38.2076 19.2207 38.2584 19.5016 38.3581C19.7838 38.4596 20.0219 38.6039 20.2215 38.7899C20.4192 38.9778 20.573 39.2031 20.6809 39.4653C20.7907 39.7279 20.8449 40.0204 20.8449 40.3405C20.8449 40.5894 20.8111 40.8231 20.7449 41.043C20.6792 41.2629 20.5845 41.461 20.461 41.6373C20.3374 41.8118 20.1872 41.9659 20.0099 42.0963C19.8326 42.2267 19.6331 42.3265 19.4083 42.3959L21.0627 45.3688H20.0166L18.4871 42.5348H16.7278V45.3688L16.7282 45.3693Z" stroke="#FEFEFE" stroke-width="0.199921" stroke-miterlimit="22.9256" stroke-linecap="round" stroke-linejoin="round"/>
<path d="M27.582 45.3692V38.208H28.4743V45.3692H27.582Z" stroke="#FEFEFE" stroke-width="0.199921" stroke-miterlimit="22.9256" stroke-linecap="round" stroke-linejoin="round"/>
<path d="M35.4824 45.3692V38.208H36.3543L40.2648 43.8271H40.3088V38.208H41.1908V45.3692H40.3221L36.4049 39.7688H36.3645V45.3692H35.4824Z" stroke="#FEFEFE" stroke-width="0.199921" stroke-miterlimit="22.9256" stroke-linecap="round" stroke-linejoin="round"/>
<path d="M50.0479 45.3692V39.0102H47.7461V38.208H53.2417V39.0102H50.9402V45.3692H50.0479Z" stroke="#FEFEFE" stroke-width="0.199921" stroke-miterlimit="22.9256" stroke-linecap="round" stroke-linejoin="round"/>
<path d="M0 7.06323H57.258V32.0031H0V7.06323Z" fill="#780EFF"/>
<path fill-rule="evenodd" clip-rule="evenodd" d="M8.58211 0C8.4999 0.188311 6.82195 2.489 6.79706 3.95231C6.78373 4.74117 7.47296 5.85368 8.71454 5.86036C9.87168 5.86659 10.5742 4.74607 10.5547 3.9808C10.5134 2.3372 8.69943 0.191873 8.58211 0V0Z" fill="#780EFF"/>
<path d="M9.98592 10.9453H8.06445V27.9436H9.98592V10.9453Z" fill="#FEFEFE" stroke="#FEFEFE" stroke-width="0.199921" stroke-miterlimit="22.9256"/>
<path d="M31.615 28.0179H29.6264V14.9287H29.5545L24.1673 27.8973H22.3867L17 14.9287H16.928V28.0179H14.9395V11.024H17.3911L23.2292 25.1937H23.3252L29.163 11.024H31.615V28.0179Z" fill="#FEFEFE"/>
<path d="M50.2404 20.9996C50.2404 22.1446 50.0769 23.173 49.7534 24.0771C49.4299 24.9849 48.9628 25.7483 48.3518 26.3792C47.7368 27.006 46.9862 27.4841 46.0957 27.8135C45.2052 28.143 44.1991 28.3077 43.0767 28.3077C41.8986 28.3077 40.8326 28.0989 39.8781 27.6849C38.9275 27.2669 38.113 26.6725 37.4384 25.901C36.7634 25.1295 36.2444 24.1973 35.8809 23.1049C35.5174 22.0164 35.3379 20.7948 35.3379 19.445C35.3379 18.1193 35.5174 16.9217 35.8809 15.8493C36.2444 14.7764 36.7634 13.8647 37.4344 13.1132C38.1054 12.3578 38.92 11.7795 39.8705 11.3695C40.825 10.9639 41.8951 10.7587 43.0811 10.7587C43.9956 10.7587 44.8461 10.8913 45.6367 11.1522C46.4232 11.4135 47.1262 11.787 47.7452 12.2692C48.3603 12.7513 48.8753 13.3336 49.2908 14.0165C49.7023 14.6994 49.9898 15.4629 50.1453 16.3105H47.9288C47.7492 15.7398 47.5097 15.2301 47.2102 14.784C46.9067 14.3339 46.5512 13.9564 46.1362 13.651C45.7207 13.3456 45.2576 13.1128 44.7386 12.9521C44.2236 12.7914 43.6681 12.7112 43.0771 12.7112C42.2066 12.7112 41.428 12.8639 40.737 13.1693C40.046 13.4747 39.4595 13.9168 38.976 14.4951C38.4969 15.0694 38.1294 15.7767 37.8739 16.6083C37.6224 17.4399 37.4944 18.3802 37.4944 19.4326C37.4944 20.5014 37.6224 21.4613 37.8819 22.3173C38.1374 23.173 38.5089 23.9 38.988 24.4947C39.467 25.0895 40.054 25.5511 40.745 25.8725C41.436 26.194 42.2106 26.3547 43.0731 26.3547C43.8201 26.3547 44.5066 26.238 45.1257 26.0092C45.7487 25.7764 46.2797 25.447 46.7272 25.0249C47.1702 24.5989 47.5177 24.0927 47.7652 23.5064C48.0087 22.9157 48.1327 22.2648 48.1327 21.5498V21.2444H43.373V19.3885H50.2413V20.9996H50.2404Z" fill="#FEFEFE"/>
</g>
<defs>
<clipPath id="clip0_1107_662">
<rect width="57.2581" height="50" fill="white"/>
</clipPath>
</defs>
</svg>
