<svg width="105" height="17" viewBox="0 0 105 17" fill="none" xmlns="http://www.w3.org/2000/svg">
<path d="M1.312 8.608C1.312 9.64267 1.56267 10.432 2.064 10.976C2.576 11.52 3.2 11.792 3.936 11.792C4.672 11.792 5.27467 11.616 5.744 11.264C6.21333 10.9013 6.448 10.336 6.448 9.568C6.448 8.87467 6.08 8.256 5.344 7.712C5.024 7.47733 4.66667 7.248 4.272 7.024C3.87733 6.78933 3.48267 6.54933 3.088 6.304C2.69333 6.05867 2.336 5.80267 2.016 5.536C1.28 4.91733 0.912 4.19733 0.912 3.376C0.912 2.544 1.21067 1.88267 1.808 1.392C2.416 0.901333 3.216 0.655999 4.208 0.655999C5.21067 0.655999 6.13867 0.874666 6.992 1.312C6.992 1.84533 6.912 2.76267 6.752 4.064L6.512 4C6.512 2.99733 6.26667 2.25067 5.776 1.76C5.28533 1.25867 4.72 1.008 4.08 1.008C3.45067 1.008 2.944 1.19467 2.56 1.568C2.176 1.93067 1.984 2.36267 1.984 2.864C1.984 3.36533 2.11733 3.79733 2.384 4.16C2.66133 4.512 3.00267 4.80533 3.408 5.04C3.824 5.27467 4.272 5.536 4.752 5.824C5.232 6.10133 5.67467 6.37867 6.08 6.656C6.496 6.92267 6.83733 7.27467 7.104 7.712C7.38133 8.14933 7.52 8.64 7.52 9.184C7.52 10.1653 7.168 10.9067 6.464 11.408C5.77067 11.9093 4.93333 12.16 3.952 12.16C3.408 12.16 2.848 12.0747 2.272 11.904C1.70667 11.7333 1.24267 11.4827 0.88 11.152C0.88 10.4693 0.944 9.60533 1.072 8.56L1.312 8.608ZM14.9983 6.832V8.448C14.9983 9.632 15.0356 10.4107 15.1103 10.784C15.1849 11.1467 15.3663 11.328 15.6543 11.328C15.8356 11.328 16.0756 11.2533 16.3743 11.104L16.4543 11.264C16.3689 11.328 16.2569 11.408 16.1183 11.504C15.9796 11.5893 15.6969 11.7067 15.2703 11.856C14.8436 12.0053 14.4329 12.08 14.0383 12.08C13.9316 11.632 13.8783 10.9173 13.8783 9.936C13.6436 10.5973 13.3343 11.136 12.9503 11.552C12.5769 11.9573 12.0543 12.16 11.3823 12.16C10.7103 12.16 10.1769 11.984 9.78225 11.632C9.39825 11.2693 9.20625 10.7787 9.20625 10.16C9.20625 8.44267 10.7636 7.57867 13.8783 7.568V6.992C13.8783 6.224 13.7663 5.63733 13.5423 5.232C13.3183 4.82667 12.9023 4.624 12.2943 4.624C11.9529 4.624 11.6756 4.70933 11.4623 4.88C11.2489 5.05067 11.1049 5.23733 11.0303 5.44C10.8489 5.99467 10.5769 6.272 10.2143 6.272C9.86225 6.272 9.68625 6.07467 9.68625 5.68C9.68625 5.27467 9.95292 4.93867 10.4863 4.672C11.0196 4.40533 11.6649 4.272 12.4223 4.272C13.1796 4.272 13.7983 4.49067 14.2783 4.928C14.7583 5.35467 14.9983 5.98933 14.9983 6.832ZM10.4223 10.224C10.4223 10.64 10.5236 10.9867 10.7263 11.264C10.9289 11.5307 11.2489 11.664 11.6863 11.664C12.1343 11.664 12.5396 11.4507 12.9023 11.024C13.2649 10.5867 13.5103 10.1067 13.6383 9.584C13.7769 9.05067 13.8569 8.50133 13.8783 7.936C12.6943 7.94667 11.8196 8.16533 11.2543 8.592C10.6996 9.01867 10.4223 9.56267 10.4223 10.224ZM22.4274 4.192C22.694 4.192 22.9287 4.25067 23.1314 4.368C23.334 4.48533 23.4354 4.64533 23.4354 4.848C23.4354 5.05067 23.3714 5.21067 23.2434 5.328C23.1154 5.44533 22.9714 5.504 22.8114 5.504C22.6514 5.504 22.4487 5.43467 22.2034 5.296C21.9687 5.15733 21.718 5.088 21.4514 5.088C21.0354 5.088 20.694 5.472 20.4274 6.24C20.1714 7.008 20.0434 7.89867 20.0434 8.912C20.0434 10.2773 20.1127 11.104 20.2514 11.392C20.294 11.488 20.374 11.5787 20.4914 11.664C20.6087 11.7387 20.7314 11.7813 20.8594 11.792C20.9874 11.8027 21.1687 11.808 21.4034 11.808L21.4354 12H17.5474L17.5794 11.808C17.9207 11.808 18.166 11.792 18.3154 11.76C18.4754 11.7173 18.6087 11.584 18.7154 11.36C18.822 11.136 18.8807 10.8587 18.8914 10.528C18.9127 10.1867 18.9234 9.648 18.9234 8.912V7.984C18.9234 6.50133 18.8807 5.65867 18.7954 5.456C18.7207 5.25333 18.6514 5.09333 18.5874 4.976C18.5234 4.85867 18.4274 4.77867 18.2994 4.736C18.0647 4.672 17.7554 4.64 17.3714 4.64L17.3394 4.464C18.246 4.336 19.1474 4.272 20.0434 4.272V6.624C20.1607 5.86667 20.422 5.27467 20.8274 4.848C21.2434 4.41067 21.7767 4.192 22.4274 4.192ZM26.3175 6.368C26.4988 5.78133 26.7868 5.28533 27.1815 4.88C27.5868 4.47467 28.1255 4.272 28.7975 4.272C29.4802 4.272 30.0508 4.48 30.5095 4.896C31.3415 5.632 31.7575 6.74667 31.7575 8.24C31.7575 9.36 31.4162 10.2933 30.7335 11.04C30.0508 11.7867 29.1868 12.16 28.1415 12.16C27.3842 12.16 26.7762 12.016 26.3175 11.728V13.616C26.3175 14.256 26.3228 14.72 26.3335 15.008C26.3548 15.296 26.4135 15.5413 26.5095 15.744C26.6162 15.9573 26.7495 16.0853 26.9095 16.128C27.0802 16.1707 27.3362 16.192 27.6775 16.192L27.7095 16.384H23.8375L23.8695 16.192C24.4882 16.192 24.8615 16.0533 24.9895 15.776C25.1282 15.5093 25.1975 14.7893 25.1975 13.616V6.864C25.1975 6.288 25.1868 5.87733 25.1655 5.632C25.1548 5.38667 25.0962 5.17333 24.9895 4.992C24.8935 4.81067 24.7655 4.70933 24.6055 4.688C24.4562 4.656 24.2108 4.64 23.8695 4.64L23.8375 4.464C24.5948 4.336 25.4215 4.272 26.3175 4.272V6.368ZM27.9335 11.696C28.9148 11.696 29.6028 11.328 29.9975 10.592C30.3602 9.92 30.5415 9.136 30.5415 8.24C30.5415 7.44 30.4242 6.69867 30.1895 6.016C30.0508 5.64267 29.8375 5.344 29.5495 5.12C29.2615 4.88533 28.9148 4.768 28.5095 4.768C28.1148 4.768 27.7628 4.912 27.4535 5.2C27.1442 5.47733 26.9148 5.824 26.7655 6.24C26.4668 7.072 26.3175 7.776 26.3175 8.352V10.848C26.6482 11.4133 27.1868 11.696 27.9335 11.696ZM39.4946 7.952H34.2466V8.224C34.2466 9.35467 34.4866 10.2187 34.9666 10.816C35.4466 11.4027 36.044 11.696 36.7586 11.696C37.8253 11.696 38.5933 11.2693 39.0626 10.416L39.3026 10.544C38.748 11.6213 37.82 12.16 36.5186 12.16C35.5586 12.16 34.7373 11.8133 34.0546 11.12C33.372 10.4267 33.0306 9.49333 33.0306 8.32C33.0306 7.136 33.3293 6.16533 33.9266 5.408C34.5346 4.65067 35.34 4.272 36.3426 4.272C37.356 4.272 38.1346 4.61867 38.6786 5.312C39.2226 5.99467 39.4946 6.87467 39.4946 7.952ZM36.3906 4.592C35.772 4.592 35.2813 4.85867 34.9186 5.392C34.5666 5.91467 34.3533 6.61333 34.2786 7.488H38.2626C38.188 5.55733 37.564 4.592 36.3906 4.592ZM46.3449 10.224C46.1742 10.7787 45.8809 11.2427 45.4649 11.616C45.0595 11.9787 44.5582 12.16 43.9609 12.16C43.3742 12.16 42.8835 12.0427 42.4889 11.808C42.0942 11.5733 41.7902 11.264 41.5769 10.88C41.1502 10.144 40.9369 9.248 40.9369 8.192C40.9369 7.136 41.2995 6.21867 42.0249 5.44C42.7502 4.66133 43.7209 4.272 44.9369 4.272C45.4702 4.272 45.9555 4.336 46.3929 4.464V2.944C46.3929 2.144 46.3662 1.60533 46.3129 1.328C46.2595 1.04 46.1742 0.864 46.0569 0.799999C45.8435 0.672 45.5075 0.608 45.0489 0.608L45.0169 0.431999C45.7849 0.304 46.6169 0.24 47.5129 0.24V8.448C47.5129 9.632 47.5502 10.4107 47.6249 10.784C47.6995 11.1467 47.8809 11.328 48.1689 11.328C48.3502 11.328 48.5902 11.2533 48.8889 11.104L48.9689 11.264C48.8835 11.328 48.7715 11.408 48.6329 11.504C48.4942 11.5893 48.2115 11.7067 47.7849 11.856C47.3582 12.0053 46.9475 12.08 46.5529 12.08C46.4142 11.504 46.3449 10.8853 46.3449 10.224ZM42.5369 10.496C42.6649 10.848 42.8622 11.1307 43.1289 11.344C43.4062 11.5573 43.7369 11.664 44.1209 11.664C44.5155 11.664 44.8675 11.5307 45.1769 11.264C45.4969 10.9973 45.7369 10.656 45.8969 10.24C46.2275 9.44 46.3929 8.61333 46.3929 7.76V5.312C45.9342 4.94933 45.4329 4.768 44.8889 4.768C44.3449 4.768 43.8915 4.88533 43.5289 5.12C43.1662 5.35467 42.8889 5.664 42.6969 6.048C42.3342 6.76267 42.1529 7.52533 42.1529 8.336C42.1529 9.11467 42.2809 9.83467 42.5369 10.496ZM49.9213 8.224C49.9213 7.104 50.2413 6.16533 50.8813 5.408C51.5213 4.65067 52.3906 4.272 53.4893 4.272C54.5879 4.272 55.4733 4.65067 56.1453 5.408C56.8173 6.16533 57.1533 7.104 57.1533 8.224C57.1533 9.344 56.8279 10.2827 56.1773 11.04C55.5373 11.7867 54.6679 12.16 53.5693 12.16C52.4706 12.16 51.5853 11.7813 50.9133 11.024C50.2519 10.2667 49.9213 9.33333 49.9213 8.224ZM51.7613 10.816C52.1879 11.4987 52.7906 11.84 53.5693 11.84C54.3479 11.84 54.9346 11.504 55.3293 10.832C55.7346 10.16 55.9373 9.296 55.9373 8.24C55.9373 7.17333 55.7239 6.29867 55.2973 5.616C54.8706 4.93333 54.2679 4.592 53.4893 4.592C52.7213 4.592 52.1346 4.93333 51.7293 5.616C51.3346 6.288 51.1373 7.152 51.1373 8.208C51.1373 9.264 51.3453 10.1333 51.7613 10.816ZM63.3649 4.192C63.6315 4.192 63.8662 4.25067 64.0689 4.368C64.2715 4.48533 64.3729 4.64533 64.3729 4.848C64.3729 5.05067 64.3089 5.21067 64.1809 5.328C64.0529 5.44533 63.9089 5.504 63.7489 5.504C63.5889 5.504 63.3862 5.43467 63.1409 5.296C62.9062 5.15733 62.6555 5.088 62.3889 5.088C61.9729 5.088 61.6315 5.472 61.3649 6.24C61.1089 7.008 60.9809 7.89867 60.9809 8.912C60.9809 10.2773 61.0502 11.104 61.1889 11.392C61.2315 11.488 61.3115 11.5787 61.4289 11.664C61.5462 11.7387 61.6689 11.7813 61.7969 11.792C61.9249 11.8027 62.1062 11.808 62.3409 11.808L62.3729 12H58.4849L58.5169 11.808C58.8582 11.808 59.1035 11.792 59.2529 11.76C59.4129 11.7173 59.5462 11.584 59.6529 11.36C59.7595 11.136 59.8182 10.8587 59.8289 10.528C59.8502 10.1867 59.8609 9.648 59.8609 8.912V7.984C59.8609 6.50133 59.8182 5.65867 59.7329 5.456C59.6582 5.25333 59.5889 5.09333 59.5249 4.976C59.4609 4.85867 59.3649 4.77867 59.2369 4.736C59.0022 4.672 58.6929 4.64 58.3089 4.64L58.2769 4.464C59.1835 4.336 60.0849 4.272 60.9809 4.272V6.624C61.0982 5.86667 61.3595 5.27467 61.7649 4.848C62.1809 4.41067 62.7142 4.192 63.3649 4.192ZM71.511 0.223999V7.136C71.607 6.368 71.8737 5.70133 72.311 5.136C72.7483 4.56 73.3297 4.272 74.055 4.272C75.687 4.272 76.503 5.12533 76.503 6.832V9.36C76.503 10.4693 76.5723 11.1573 76.711 11.424C76.8603 11.68 77.2443 11.808 77.863 11.808L77.895 12H74.007L74.039 11.808C74.679 11.808 75.063 11.6747 75.191 11.408C75.319 11.1413 75.383 10.4107 75.383 9.216V6.992C75.383 6.256 75.2657 5.70133 75.031 5.328C74.807 4.95467 74.4443 4.768 73.943 4.768C73.4523 4.768 73.0417 4.93867 72.711 5.28C72.3803 5.61067 72.135 6.032 71.975 6.544C71.6657 7.536 71.511 8.53333 71.511 9.536C71.511 10.5387 71.575 11.168 71.703 11.424C71.8417 11.68 72.2257 11.808 72.855 11.808L72.887 12H68.983L69.015 11.808C69.655 11.808 70.0443 11.68 70.183 11.424C70.3217 11.1573 70.391 10.4587 70.391 9.328V4C70.391 2.4 70.3163 1.44 70.167 1.12C70.103 0.992 70.0017 0.879999 69.863 0.783999C69.735 0.687999 69.591 0.629333 69.431 0.608C69.2817 0.586666 69.0737 0.575999 68.807 0.575999L68.775 0.4C69.703 0.282666 70.615 0.223999 71.511 0.223999ZM79.015 8.224C79.015 7.104 79.335 6.16533 79.975 5.408C80.615 4.65067 81.4843 4.272 82.583 4.272C83.6817 4.272 84.567 4.65067 85.239 5.408C85.911 6.16533 86.247 7.104 86.247 8.224C86.247 9.344 85.9217 10.2827 85.271 11.04C84.631 11.7867 83.7617 12.16 82.663 12.16C81.5643 12.16 80.679 11.7813 80.007 11.024C79.3457 10.2667 79.015 9.33333 79.015 8.224ZM80.855 10.816C81.2817 11.4987 81.8843 11.84 82.663 11.84C83.4417 11.84 84.0283 11.504 84.423 10.832C84.8283 10.16 85.031 9.296 85.031 8.24C85.031 7.17333 84.8177 6.29867 84.391 5.616C83.9643 4.93333 83.3617 4.592 82.583 4.592C81.815 4.592 81.2283 4.93333 80.823 5.616C80.4283 6.288 80.231 7.152 80.231 8.208C80.231 9.264 80.439 10.1333 80.855 10.816ZM89.7066 4.432H91.6746V4.784H89.7066V10.88C89.7066 11.104 89.76 11.2853 89.8666 11.424C89.9733 11.552 90.112 11.616 90.2826 11.616C90.6666 11.616 91.12 11.504 91.6426 11.28L91.6746 11.456C90.928 11.9253 90.2666 12.16 89.6906 12.16C89.3173 12.16 89.04 12.0693 88.8586 11.888C88.6773 11.7067 88.5866 11.392 88.5866 10.944V4.784H87.6266V4.432C88.2026 4.432 88.6026 4.272 88.8266 3.952C89.0613 3.62133 89.2373 3.136 89.3546 2.496L89.7066 2.464V4.432ZM99.104 7.952H93.856V8.224C93.856 9.35467 94.096 10.2187 94.576 10.816C95.056 11.4027 95.6533 11.696 96.368 11.696C97.4347 11.696 98.2027 11.2693 98.672 10.416L98.912 10.544C98.3573 11.6213 97.4293 12.16 96.128 12.16C95.168 12.16 94.3467 11.8133 93.664 11.12C92.9813 10.4267 92.64 9.49333 92.64 8.32C92.64 7.136 92.9387 6.16533 93.536 5.408C94.144 4.65067 94.9493 4.272 95.952 4.272C96.9653 4.272 97.744 4.61867 98.288 5.312C98.832 5.99467 99.104 6.87467 99.104 7.952ZM96 4.592C95.3813 4.592 94.8907 4.85867 94.528 5.392C94.176 5.91467 93.9627 6.61333 93.888 7.488H97.872C97.7973 5.55733 97.1733 4.592 96 4.592ZM102.834 0.223999V9.216C102.834 10.4 102.904 11.1307 103.042 11.408C103.181 11.6747 103.565 11.808 104.194 11.808L104.226 12H100.306L100.338 11.808C100.978 11.808 101.368 11.6747 101.506 11.408C101.645 11.1413 101.714 10.4107 101.714 9.216V3.104C101.714 1.92 101.65 1.20533 101.522 0.959999C101.48 0.885333 101.4 0.810666 101.282 0.735999C101.165 0.661333 101.037 0.618666 100.898 0.608C100.77 0.597333 100.584 0.591999 100.338 0.591999L100.306 0.415999C101.106 0.287999 101.949 0.223999 102.834 0.223999Z" fill="white"/>
</svg>
